<?xml version="1.0" encoding="utf-8"?>
<!-- Generator: Adobe Illustrator 19.0.0, SVG Export Plug-In . SVG Version: 6.00 Build 0)  -->
<svg version="1.1" id="layer" xmlns="http://www.w3.org/2000/svg" xmlns:xlink="http://www.w3.org/1999/xlink" x="0px" y="0px"
	 viewBox="-153 -46 652 652" style="enable-background:new -153 -46 652 652;" xml:space="preserve">
<style type="text/css">
	.st0{fill:#0EA800;}
</style>
<path class="st0" d="M-86.9,214.4c18.9,0,36,6.4,48.2,18c12.1,11.5,18.7,27.4,18.7,44.8v0.3c0,17.4-6.6,33.4-18.7,44.9
	c-12.2,11.8-29.3,18.2-48.2,18.2h-44.6V214.4L-86.9,214.4L-86.9,214.4z M-86.9,232.4h-25.6l0,90.4h25.6c27.9,0,47.4-18.5,47.4-44.9
	v-0.4c0-12.5-4.5-23.9-12.7-32.1C-61,236.9-73,232.4-86.9,232.4L-86.9,232.4z M37.4,244.1c13.3,0,25.6,5.2,34.6,14.5
	c8.8,9.2,13.6,21.4,13.6,34.5v0.3c0,27.7-21.3,49.3-48.5,49.3c-26.9,0-48-21.5-48-48.9v-0.4c0-13.2,4.9-25.5,13.8-34.7
	C11.9,249.3,24.2,244.1,37.4,244.1L37.4,244.1z M58.6,316.2c5.3-5.9,8.3-13.8,8.3-22.4v-0.4c0-18.1-13.1-32.2-29.9-32.2
	c-16.7,0-29.3,13.7-29.3,31.9v0.3c0,18,13,32.1,29.7,32.1C45.6,325.5,53.2,322.2,58.6,316.2z M200,239.7l40.6,26.7l0,74.4h-18.3
	v-64.9L200,261.2l-22.3,14.6v64.9h-18.3l0-64.9l-22.3-14.6l-22.3,14.6v64.9H96.6V246h17.7v8.7l22.9-15l31.4,20.6L200,239.7z
	 M294.9,244.6c13.1,0,23.2,3.6,30.1,10.7c6.6,6.7,9.9,16.2,9.9,28.1v57.3h-18.2v-9.1c-5.8,5.4-15.1,11-28.8,11
	c-17.5,0-35.3-10.5-35.3-30.5v-0.3c0-10.1,4-18.3,11.5-23.9c7-5.2,16.9-7.9,28.6-7.9c10,0,17,1.2,24.1,3
	c-0.3-13.8-8.1-20.8-23.2-20.8c-8.9,0-16.7,1.9-25.4,6.1l-2.6,1.3l-5.7-16l2.2-1C273.5,246.9,283,244.6,294.9,244.6L294.9,244.6z
	 M309.5,320.4c4.9-3.9,7.5-9.2,7.5-15.3v-6.2c-5.9-1.6-13.2-3.2-22.9-3.2c-14.3,0-22.9,5.7-22.9,15.3v0.4c0,9.9,9.7,15.1,19.3,15.1
	C297.8,326.5,304.6,324.4,309.5,320.4L309.5,320.4z M351.6,340.6V246h18.3v94.7H351.6L351.6,340.6z M360.7,207.2
	c7.3,0,13.3,6,13.3,13.3c0,7.3-5.9,13.3-13.3,13.3c-7.3,0-13.3-6-13.3-13.3C347.5,213.1,353.4,207.2,360.7,207.2z M432.3,244.1
	c22,0,36.2,15.1,36.2,38.4v58.1h-18.3v-54.9c0-15.7-7.7-24.3-21.6-24.3c-13.9,0-23.6,10.4-23.6,25.3v53.8h-18.3V246H405v10.1
	C412.1,248,421.1,244.1,432.3,244.1L432.3,244.1z"/>
</svg>
