<?xml version="1.0" encoding="iso-8859-1"?>
<!-- Generator: Adobe Illustrator 16.0.0, SVG Export Plug-In . SVG Version: 6.00 Build 0)  -->
<!DOCTYPE svg PUBLIC "-//W3C//DTD SVG 1.1//EN" "http://www.w3.org/Graphics/SVG/1.1/DTD/svg11.dtd">
<svg version="1.1" id="Layer_1" xmlns="http://www.w3.org/2000/svg" xmlns:xlink="http://www.w3.org/1999/xlink" x="0px" y="0px"
	 width="280.088px" height="37.086px" viewBox="0 0 280.088 37.086" style="enable-background:new 0 0 280.088 37.086;"
	 xml:space="preserve">
<path style="fill:#383838;" d="M0,36.2h3.529V18.868h14.167v-3.457H3.529V4.345h14.167V0.888H0V36.2z"/>
<path style="fill:#383838;" d="M31.508,0.888L14.821,36.2h3.938l5.502-11.619h15.216L45.032,36.2h3.812L32.373,0.888H31.508z
	 M37.95,21.172H25.875l6.052-12.781L37.95,21.172z"/>
<path style="fill:#383838;" d="M51.562,35.372c1.745,1.144,3.689,1.715,5.834,1.715c2.786,0,5.15-0.943,7.096-2.832
	c1.945-1.889,2.917-4.112,2.917-6.674c0-1.775-0.568-3.543-1.705-5.305c-1.137-1.76-3.234-3.769-6.291-6.025
	c-2.578-1.904-4.098-3.08-4.562-3.528c-0.849-0.848-1.433-1.632-1.753-2.353c-0.32-0.72-0.48-1.464-0.48-2.232
	c0-1.264,0.452-2.329,1.356-3.192c0.904-0.864,2.069-1.296,3.494-1.296c1.104,0,2.125,0.28,3.062,0.84
	c0.936,0.561,2.068,1.721,3.397,3.481l2.881-2.185c-1.617-2.208-3.149-3.725-4.598-4.549C60.762,0.413,59.205,0,57.541,0
	c-1.569,0-3.021,0.364-4.358,1.092c-1.337,0.729-2.374,1.725-3.109,2.989c-0.736,1.264-1.104,2.665-1.104,4.201
	c0,1.937,0.624,3.737,1.873,5.401c0.721,0.993,2.553,2.601,5.499,4.825c2.929,2.208,4.946,4.097,6.051,5.665
	c0.8,1.138,1.2,2.298,1.2,3.481c0,1.041-0.272,2.024-0.816,2.953s-1.337,1.668-2.377,2.22c-1.04,0.553-2.153,0.828-3.337,0.828
	c-2.77,0-5.21-1.943-7.324-5.833l-3.001,1.8C48.208,32.31,49.817,34.227,51.562,35.372z"/>
<path style="fill:#383838;" d="M70.895,36.2h3.529V19.157h17.985V36.2h3.529V0.888h-3.529v14.811H74.424V0.888h-3.529V36.2
	L70.895,36.2z"/>
<path style="fill:#383838;" d="M100.097,36.2h3.529V0.888h-3.529V36.2z"/>
<path style="fill:#383838;" d="M115.401,2.46c-2.835,1.641-5.074,3.909-6.715,6.806c-1.642,2.896-2.463,6.041-2.463,9.434
	c0,5.089,1.802,9.425,5.406,13.009c3.604,3.586,8.025,5.377,13.263,5.377c5.174,0,9.559-1.799,13.154-5.4
	c3.596-3.602,5.395-7.984,5.395-13.154c0-5.217-1.801-9.61-5.405-13.179C134.431,1.785,129.954,0,124.604,0
	C121.304,0,118.236,0.82,115.401,2.46z M132.312,5.475c2.373,1.361,4.212,3.175,5.519,5.441c1.307,2.267,1.96,4.801,1.96,7.604
	c0,2.818-0.653,5.381-1.96,7.688s-3.126,4.125-5.459,5.453c-2.333,1.33-4.87,1.994-7.612,1.994c-4.104,0-7.612-1.445-10.522-4.336
	c-2.91-2.891-4.365-6.436-4.365-10.631c0-2.834,0.657-5.405,1.972-7.711c1.315-2.306,3.143-4.14,5.484-5.501
	c2.341-1.361,4.818-2.042,7.431-2.042C127.421,3.433,129.938,4.114,132.312,5.475z"/>
<path style="fill:#383838;" d="M150.265,36.2V9.461L173.579,36.2h0.792V0.888h-3.481v27.067L147.382,0.888h-0.768V36.2H150.265z"/>
<path style="fill:#383838;" d="M179.009,36.2h3.53V19.78h2.521c4.387,0,7.379-0.191,8.98-0.576c2.193-0.528,3.914-1.556,5.163-3.083
	c1.249-1.528,1.873-3.469,1.873-5.821c0-2.336-0.64-4.276-1.921-5.821s-2.93-2.564-4.946-3.061c-1.409-0.352-4.13-0.528-8.164-0.528
	h-7.036V36.2L179.009,36.2z M188.782,4.345c2.385,0,4.102,0.208,5.15,0.623c1.047,0.416,1.893,1.114,2.532,2.096
	s0.96,2.064,0.96,3.246c0,1.214-0.32,2.312-0.96,3.294c-0.641,0.982-1.521,1.693-2.642,2.132s-2.891,0.658-5.307,0.658l-5.979-0.072
	V4.345H188.782z"/>
<path style="fill:#383838;" d="M204.153,36.2h3.529V19.157h17.984V36.2h3.529V0.888h-3.529v14.811h-17.984V0.888h-3.529V36.2z"/>
<path style="fill:#383838;" d="M233.354,36.2h3.529V0.888h-3.529V36.2z"/>
<path style="fill:#383838;" d="M241.042,36.2h17.12v-3.41h-13.59V0.888h-3.53V36.2L241.042,36.2z"/>
<path style="fill:#383838;" d="M259.847,36.2h20.098v-3.457h-16.568V18.868h16.568v-3.457h-16.568V4.345h16.712V0.888h-20.241V36.2z
	"/>
</svg>
