<?xml version="1.0" encoding="UTF-8"?>
<!-- Generator: visioncortex VTracer 0.6.2 -->
<svg version="1.1" xmlns="http://www.w3.org/2000/svg" width="1280" height="416">
<path d="M0 0 C0.68153137 0.00054382 1.36306274 0.00108765 2.06524658 0.00164795 C13.4447457 0.04327498 24.07622112 1.06053094 35 4.375 C36.07628662 4.68848389 36.07628662 4.68848389 37.17431641 5.00830078 C54.04331114 10.03174668 69.80168289 18.5346662 82 31.375 C83.16395665 32.5443704 84.33082708 33.71084499 85.5 34.875 C86.09167969 35.46925781 86.68335938 36.06351563 87.29296875 36.67578125 C88.78090978 38.15691248 90.29461238 39.61207406 91.8125 41.0625 C93.84576569 43.2119523 94.73854998 44.76374938 96 47.375 C96.73550672 48.57153086 97.48625786 49.7587913 98.25 50.9375 C106.61063867 64.20006074 106.61063867 64.20006074 108 70.375 C108.66884217 72.29825701 109.35750765 74.21469815 110.0625 76.125 C110.42472656 77.10984375 110.78695312 78.0946875 111.16015625 79.109375 C111.43730469 79.85703125 111.71445312 80.6046875 112 81.375 C112.66 81.375 113.32 81.375 114 81.375 C114.6520027 84.18619304 115.29670121 86.99875031 115.9375 89.8125 C116.11990234 90.59560547 116.30230469 91.37871094 116.49023438 92.18554688 C121.10152442 112.55906472 119.59540366 133.34345489 114 153.375 C113.34 153.375 112.68 153.375 112 153.375 C111.64808594 154.37917969 111.29617188 155.38335937 110.93359375 156.41796875 C107.65872578 165.55797037 103.8667118 173.96624351 99 182.375 C98.34 182.375 97.68 182.375 97 182.375 C97.33 183.695 97.66 185.015 98 186.375 C97.01 186.375 96.02 186.375 95 186.375 C93.16074708 188.52866905 93.16074708 188.52866905 91.375 191.3125 C85.14205522 200.17763902 78.19211907 206.70259832 69 212.375 C67.30692521 213.44959998 65.61925998 214.53277716 63.9375 215.625 C63.18339844 216.10453125 62.42929687 216.5840625 61.65234375 217.078125 C60.83443359 217.72007812 60.83443359 217.72007812 60 218.375 C60 219.035 60 219.695 60 220.375 C58.98292969 220.64570313 57.96585938 220.91640625 56.91796875 221.1953125 C53.23308486 222.24655288 49.82157293 223.70552776 46.3125 225.25 C21.25939028 235.41729341 -10.15774312 235.91799806 -36 228.375 C-37.66482422 227.94767578 -37.66482422 227.94767578 -39.36328125 227.51171875 C-41.92745261 226.84944933 -44.4633781 226.13460547 -47 225.375 C-48.0725 225.065625 -49.145 224.75625 -50.25 224.4375 C-55.12338899 222.55459971 -59.37157619 220.19439348 -63 216.375 C-63.66 216.375 -64.32 216.375 -65 216.375 C-65.99 215.385 -65.99 215.385 -67 214.375 C-68.299375 213.6325 -68.299375 213.6325 -69.625 212.875 C-70.40875 212.38 -71.1925 211.885 -72 211.375 C-72 210.715 -72 210.055 -72 209.375 C-72.556875 209.33375 -73.11375 209.2925 -73.6875 209.25 C-77.15543888 207.93780691 -78.68848944 205.20660043 -81 202.375 C-83.13309192 201.13987921 -83.13309192 201.13987921 -85 200.375 C-85.495 199.385 -85.495 199.385 -86 198.375 C-86.66 198.045 -87.32 197.715 -88 197.375 C-88 196.385 -88 195.395 -88 194.375 C-88.57234375 194.16101563 -89.1446875 193.94703125 -89.734375 193.7265625 C-102.3782146 186.18385819 -109.97099019 162.90763486 -113.49609375 149.37841797 C-121.32180503 118.26514919 -117.55656387 85.50079633 -102.375 57.1875 C-85.52604858 29.30183234 -59.78752642 11.24086921 -28.49853516 2.98828125 C-18.95190224 0.64499985 -9.8293351 -0.01328125 0 0 Z M-37 33.375 C-36.505 34.365 -36.505 34.365 -36 35.375 C-37.45381897 36.07199552 -38.91322953 36.75733866 -40.375 37.4375 C-41.18710937 37.82035156 -41.99921875 38.20320313 -42.8359375 38.59765625 C-43.55007813 38.85417969 -44.26421875 39.11070312 -45 39.375 C-45.66 39.045 -46.32 38.715 -47 38.375 C-47.53625 38.94347656 -48.0725 39.51195312 -48.625 40.09765625 C-52.16209182 43.48930844 -56.1515386 46.20266837 -60.125 49.05859375 C-70.61701658 57.51207994 -79.5940616 74.14233878 -82 87.375 C-81.67 87.705 -81.34 88.035 -81 88.375 C-81.4534211 90.31868625 -81.94044584 92.25451161 -82.4375 94.1875 C-86.05868106 110.35246855 -85.41065133 128.60526245 -81.55859375 144.6640625 C-81 147.375 -81 147.375 -82 149.375 C-81.45342162 151.26336549 -81.45342162 151.26336549 -80.48828125 153.33203125 C-80.14216797 154.11513672 -79.79605469 154.89824219 -79.43945312 155.70507812 C-79.06755859 156.52427734 -78.69566406 157.34347656 -78.3125 158.1875 C-77.95994141 158.99509766 -77.60738281 159.80269531 -77.24414062 160.63476562 C-75.28669075 165.00413728 -73.36432459 168.88318521 -70 172.375 C-69.34 172.375 -68.68 172.375 -68 172.375 C-67.938125 172.931875 -67.87625 173.48875 -67.8125 174.0625 C-66.89069172 176.6861082 -65.5651271 178.0482142 -63.5390625 179.91015625 C-62 181.375 -62 181.375 -60.5234375 183.12109375 C-48.29980819 196.991285 -26.32426501 205.15035358 -8.22607422 206.59667969 C16.55444325 207.58840897 38.83073172 202.81401268 58 186.375 C58.72574219 185.76140625 59.45148438 185.1478125 60.19921875 184.515625 C76.20201162 169.80185867 85.13025262 146.38379045 86.1081543 125.01123047 C86.71335196 100.74897985 82.54170725 77.69350922 67 58.375 C66.67 57.385 66.34 56.395 66 55.375 C64.30846256 53.66047658 64.30846256 53.66047658 62.25 52 C59.00847386 49.25627966 56.00372191 46.37872191 53 43.375 C48.80316352 39.96507036 45.53225099 37.375 40 37.375 C39.505 35.89 39.505 35.89 39 34.375 C38.01 34.375 37.02 34.375 36 34.375 C32.79872544 32.90774916 29.93194294 31.32962863 27 29.375 C21.78504238 27.81051271 17.4257952 27.1489252 12 27.375 C12 27.045 12 26.715 12 26.375 C-5.70661126 25.9287879 -20.2214724 27.3212089 -37 33.375 Z M113 85.375 C114 89.375 114 89.375 114 89.375 Z M-83 87.375 C-82 91.375 -82 91.375 -82 91.375 Z M114 90.375 C114 92.025 114 93.675 114 95.375 C114.33 95.375 114.66 95.375 115 95.375 C115 93.725 115 92.075 115 90.375 C114.67 90.375 114.34 90.375 114 90.375 Z M-84 91.375 C-83 95.375 -83 95.375 -83 95.375 Z M-85 95.375 C-85 97.355 -85 99.335 -85 101.375 C-84.67 101.375 -84.34 101.375 -84 101.375 C-84 99.395 -84 97.415 -84 95.375 C-84.33 95.375 -84.66 95.375 -85 95.375 Z M115 95.375 C115 97.355 115 99.335 115 101.375 C115.33 101.375 115.66 101.375 116 101.375 C116 99.395 116 97.415 116 95.375 C115.67 95.375 115.34 95.375 115 95.375 Z M-86 101.375 C-86 104.675 -86 107.975 -86 111.375 C-85.67 111.375 -85.34 111.375 -85 111.375 C-85 108.075 -85 104.775 -85 101.375 C-85.33 101.375 -85.66 101.375 -86 101.375 Z M116 101.375 C116 105.335 116 109.295 116 113.375 C116.33 113.375 116.66 113.375 117 113.375 C117 109.415 117 105.455 117 101.375 C116.67 101.375 116.34 101.375 116 101.375 Z M116 117.375 C116 122.655 116 127.935 116 133.375 C116.33 133.375 116.66 133.375 117 133.375 C117 128.095 117 122.815 117 117.375 C116.67 117.375 116.34 117.375 116 117.375 Z M-87 119.375 C-86 123.375 -86 123.375 -86 123.375 Z M-86 123.375 C-86 126.345 -86 129.315 -86 132.375 C-85.67 132.375 -85.34 132.375 -85 132.375 C-85 129.405 -85 126.435 -85 123.375 C-85.33 123.375 -85.66 123.375 -86 123.375 Z M-85 133.375 C-85 135.025 -85 136.675 -85 138.375 C-84.67 138.375 -84.34 138.375 -84 138.375 C-84 136.725 -84 135.075 -84 133.375 C-84.33 133.375 -84.66 133.375 -85 133.375 Z M115 133.375 C115 135.685 115 137.995 115 140.375 C115.33 140.375 115.66 140.375 116 140.375 C116 138.065 116 135.755 116 133.375 C115.67 133.375 115.34 133.375 115 133.375 Z M-84 139.375 C-83 143.375 -83 143.375 -83 143.375 Z M114 140.375 C114 142.025 114 143.675 114 145.375 C114.33 145.375 114.66 145.375 115 145.375 C115 143.725 115 142.075 115 140.375 C114.67 140.375 114.34 140.375 114 140.375 Z M-83 143.375 C-82 147.375 -82 147.375 -82 147.375 Z M113 145.375 C114 149.375 114 149.375 114 149.375 Z " fill="#F0F0F0" transform="translate(533,90.625)"/>
<path d="M0 0 C0.67514648 0.18191895 1.35029297 0.36383789 2.04589844 0.55126953 C20.66210843 5.6948594 37.81777245 15.99317197 50.3125 30.8125 C50.82425781 31.41707031 51.33601562 32.02164063 51.86328125 32.64453125 C52.42595703 33.31548828 52.42595703 33.31548828 53 34 C47.90499173 40.3343346 42.07469335 45.62789574 36 51 C31.04918391 47.40539151 26.36922577 43.65276083 21.859375 39.515625 C19.36392124 37.48151563 16.7841367 36.31365468 13.8125 35.125 C9.82463137 33.52985255 5.91806565 31.75843469 2 30 C2 29.34 2 28.68 2 28 C-1.49219802 27.37319523 -4.97349887 26.87592144 -8.5 26.5 C-18.37009063 25.41993958 -18.37009063 25.41993958 -22 23 C-25.6898998 22.52856122 -29.40818441 22.6198765 -33.125 22.625 C-34.19637207 22.62516113 -35.26774414 22.62532227 -36.37158203 22.62548828 C-51.70316209 22.69056832 -51.70316209 22.69056832 -65 29 C-68.13332347 31.68570583 -71.07197643 32.79754381 -75 34 C-90.13485379 39.13045891 -101.975628 53.93191435 -109.01293945 67.58227539 C-112.09544443 73.85420516 -114.32593178 80.21072334 -116 87 C-116.21140625 87.79664063 -116.4228125 88.59328125 -116.640625 89.4140625 C-120.98676803 106.98489788 -121.04866658 130.01271354 -114 147 C-113.34 147.99 -112.68 148.98 -112 150 C-111.65846063 151.66500443 -111.32550502 153.33178677 -111 155 C-110.36525925 156.34882408 -109.70151152 157.6846659 -109 159 C-108.67 159.99 -108.34 160.98 -108 162 C-107.01 162.99 -107.01 162.99 -106 164 C-105.690625 164.639375 -105.38125 165.27875 -105.0625 165.9375 C-103.93744021 168.1214396 -102.76172606 169.30603263 -101 171 C-100.42378906 171.75925781 -99.84757812 172.51851562 -99.25390625 173.30078125 C-86.63238441 188.41598332 -65.00865439 197.63271182 -46 201 C-21.77537111 202.76813208 -1.60700194 197.44950795 18 183 C18.68449219 182.68224609 19.36898437 182.36449219 20.07421875 182.03710938 C23.28751058 178.6380593 22.6035333 174.58447252 22.609375 170.08203125 C22.62591125 169.10965012 22.64244751 168.13726898 22.65948486 167.13542175 C22.70809466 164.02771776 22.72936476 160.92050353 22.75 157.8125 C22.77814879 155.70635539 22.80807468 153.60023373 22.83984375 151.49414062 C22.91385725 146.32946738 22.96335263 141.16506811 23 136 C22.3257045 136.00222061 21.651409 136.00444122 20.9566803 136.00672913 C13.96567309 136.02877929 6.97467569 136.04390547 -0.01635742 136.05493164 C-2.62866619 136.05997377 -5.24097211 136.06680725 -7.85327148 136.07543945 C-11.59880268 136.08751036 -15.34429672 136.09322935 -19.08984375 136.09765625 C-20.26586655 136.10281754 -21.44188934 136.10797882 -22.65354919 136.11329651 C-23.73459427 136.11337204 -24.81563934 136.11344757 -25.92944336 136.11352539 C-26.88652695 136.115746 -27.84361053 136.11796661 -28.82969666 136.12025452 C-31 136 -31 136 -32 135 C-32.08758003 133.00035018 -32.10696576 130.9976389 -32.09765625 128.99609375 C-32.09282227 127.17368164 -32.09282227 127.17368164 -32.08789062 125.31445312 C-32.07532227 123.39536133 -32.07532227 123.39536133 -32.0625 121.4375 C-32.05798828 120.15423828 -32.05347656 118.87097656 -32.04882812 117.54882812 C-32.03699545 114.36583978 -32.02051068 111.18294238 -32 108 C-20.93465142 107.97687717 -9.86930855 107.95908522 1.19605923 107.94818783 C6.33359566 107.94295887 11.47111563 107.93586099 16.60864258 107.92456055 C21.5623141 107.91373213 26.51596974 107.90772326 31.46965218 107.90512276 C33.36397616 107.90326843 35.25829924 107.89964766 37.1526165 107.89426994 C39.79634386 107.88706011 42.44000471 107.88600903 45.08374023 107.88647461 C45.87495773 107.88287933 46.66617523 107.87928406 47.48136902 107.87557983 C52.88594784 107.88594784 52.88594784 107.88594784 54 109 C54.15880515 111.46601873 54.25280799 113.90542424 54.30395508 116.37451172 C54.32337662 117.14702774 54.34279816 117.91954376 54.36280823 118.71546936 C54.53206475 125.87444413 54.628425 133.03494463 54.70387745 140.19546318 C54.75516242 145.00447692 54.82935707 149.81060122 54.96020508 154.61816406 C55.08628436 159.26862366 55.15232505 163.9164825 55.17746544 168.5685463 C55.19699873 170.33494491 55.23724179 172.10124959 55.29932594 173.86666489 C55.78548722 188.37523253 55.78548722 188.37523253 51.37895203 193.50544739 C48.48618109 196.36934523 45.34956157 198.69532302 42 201 C41.31373535 201.52991043 40.6274707 202.05982086 39.92041016 202.60578918 C38.38969179 203.78018487 36.79121201 204.86492752 35.1875 205.9375 C34.11371094 206.66066406 33.03992188 207.38382813 31.93359375 208.12890625 C29.57182893 209.63527822 27.21092915 211.04136764 24.75 212.375 C21.71460274 213.76307129 21.71460274 213.76307129 21 217 C16.25 218.125 16.25 218.125 14 217 C14 217.66 14 218.32 14 219 C-16.83396099 230.02742355 -48.83909968 232.3521274 -80 221 C-81.99900942 220.33036891 -83.99890171 219.66336271 -86 219 C-90.86486486 217.27027027 -90.86486486 217.27027027 -92 215 C-93.0209375 214.8453125 -93.0209375 214.8453125 -94.0625 214.6875 C-98.23164349 213.71174301 -101.58752739 211.55935446 -105 209 C-105.33 208.34 -105.66 207.68 -106 207 C-106.99 206.67 -107.98 206.34 -109 206 C-109.4021875 204.7934375 -109.4021875 204.7934375 -109.8125 203.5625 C-110.204375 202.716875 -110.59625 201.87125 -111 201 C-112.36705078 200.58234375 -112.36705078 200.58234375 -113.76171875 200.15625 C-122.31111865 197.10362953 -128.48626108 186.5966096 -133 179 C-133.47824219 178.2059375 -133.95648438 177.411875 -134.44921875 176.59375 C-150.56836205 148.50159474 -156.04209434 114.58467698 -148 83 C-139.63335005 52.13213239 -119.84232361 26.07073942 -92.13623047 9.91308594 C-64.33366146 -5.6733098 -30.56788506 -8.55198072 0 0 Z M-13 24 C-9 25 -9 25 -9 25 Z M-8 25 C-4 26 -4 26 -4 26 Z M-74 31 C-73.67 31.66 -73.34 32.32 -73 33 C-72.67 32.34 -72.34 31.68 -72 31 C-72.66 31 -73.32 31 -74 31 Z M-31 134 C-31 134.33 -31 134.66 -31 135 C-13.84 135 3.32 135 21 135 C21 134.67 21 134.34 21 134 C3.84 134 -13.32 134 -31 134 Z " fill="#F0F0F0" transform="translate(246,95)"/>
<path d="M0 0 C0.99773437 0.02320312 1.99546875 0.04640625 3.0234375 0.0703125 C4.02632812 0.08835937 5.02921875 0.10640625 6.0625 0.125 C6.83335937 0.14820312 7.60421875 0.17140625 8.3984375 0.1953125 C8.8934375 3.1653125 8.8934375 3.1653125 9.3984375 6.1953125 C10.0584375 6.1953125 10.7184375 6.1953125 11.3984375 6.1953125 C12.22009259 7.89926143 13.03034395 9.60871148 13.8359375 11.3203125 C14.28839844 12.27164063 14.74085938 13.22296875 15.20703125 14.203125 C16.3984375 17.1953125 16.3984375 17.1953125 16.82299805 19.99682617 C17.86225987 25.77339349 20.47646877 31.00849465 22.7734375 36.3828125 C23.2684375 37.57068359 23.7634375 38.75855469 24.2734375 39.98242188 C24.75554687 41.11873047 25.23765625 42.25503906 25.734375 43.42578125 C26.39252197 44.97881958 26.39252197 44.97881958 27.06396484 46.56323242 C28.30751322 49.01597575 29.41114041 50.36130554 31.3984375 52.1953125 C32.75 54.90234375 32.75 54.90234375 34.0234375 58.0078125 C34.66152344 59.53341797 34.66152344 59.53341797 35.3125 61.08984375 C36.3984375 64.1953125 36.3984375 64.1953125 36.796875 67.01953125 C37.6314126 71.42523947 39.49725984 75.15572327 41.3984375 79.1953125 C42.11485378 80.77604407 42.8284061 82.35807683 43.5390625 83.94140625 C44.06113281 85.1025293 44.06113281 85.1025293 44.59375 86.28710938 C45.11582031 87.44823242 45.11582031 87.44823242 45.6484375 88.6328125 C46.01195312 89.43396484 46.37546875 90.23511719 46.75 91.06054688 C47.26433594 92.20813477 47.26433594 92.20813477 47.7890625 93.37890625 C48.2536084 94.40842407 48.2536084 94.40842407 48.72753906 95.45874023 C49.3984375 97.1953125 49.3984375 97.1953125 49.3984375 99.1953125 C50.0584375 99.5253125 50.7184375 99.8553125 51.3984375 100.1953125 C55.29921987 105.74876279 56.81283364 110.51942852 57.3984375 117.1953125 C58.0584375 117.8553125 58.7184375 118.5153125 59.3984375 119.1953125 C60.57788283 121.87085226 61.69484928 124.54214844 62.7734375 127.2578125 C63.39608176 128.80250846 64.01977142 130.34678348 64.64453125 131.890625 C64.94472168 132.63344727 65.24491211 133.37626953 65.55419922 134.14160156 C66.59160891 136.66522514 67.70110513 139.15163779 68.8359375 141.6328125 C70.3984375 145.1953125 70.3984375 145.1953125 70.3984375 147.1953125 C71.0584375 147.1953125 71.7184375 147.1953125 72.3984375 147.1953125 C74.78236796 152.1849344 76.73821714 156.64946147 77.3984375 162.1953125 C78.14993773 165.47304754 78.14993773 165.47304754 81.3984375 167.1953125 C81.60201016 168.82389378 81.80009639 170.45337057 81.96875 172.0859375 C82.67010533 175.5289546 84.36662878 178.4111012 85.99609375 181.5 C87.91237976 185.18311239 89.58970139 188.96145918 91.28515625 192.75 C92.27581387 194.92597077 93.32761293 197.05822006 94.3984375 199.1953125 C95.07976201 200.85604099 95.74585877 202.5230795 96.3984375 204.1953125 C96.7490625 205.0409375 97.0996875 205.8865625 97.4609375 206.7578125 C98.3984375 209.1953125 98.3984375 209.1953125 98.8359375 211.1328125 C99.38727679 213.43075038 99.38727679 213.43075038 100.9609375 216.2578125 C102.3984375 219.1953125 102.3984375 219.1953125 102.3984375 222.1953125 C103.3884375 222.5253125 104.3784375 222.8553125 105.3984375 223.1953125 C101.09093948 225.34906151 95.42926632 224.54543845 90.64990234 224.6003418 C89.2355917 224.62193804 87.82141531 224.65606202 86.40771484 224.70288086 C84.36495574 224.76989175 82.32495291 224.79733102 80.28125 224.81640625 C78.44651123 224.85399048 78.44651123 224.85399048 76.57470703 224.89233398 C73.3984375 224.1953125 73.3984375 224.1953125 71.15283203 221.56152344 C69.45989165 218.31322648 67.88675504 215.08238564 66.4453125 211.71484375 C66.18370834 211.10813339 65.92210419 210.50142303 65.65257263 209.87632751 C64.81195391 207.92262826 63.97994932 205.96540289 63.1484375 204.0078125 C62.57114053 202.65965032 61.99341988 201.31166949 61.4152832 199.96386719 C59.9959442 196.65075416 58.58399984 193.33454786 57.1741333 190.01739502 C56.04482163 187.3646811 54.90674355 184.71574089 53.76953125 182.06640625 C53.040995 180.35966155 52.31307274 178.65265455 51.5859375 176.9453125 C51.2549707 176.17292236 50.92400391 175.40053223 50.58300781 174.60473633 C48.3984375 169.42864462 48.3984375 169.42864462 48.3984375 167.1953125 C46.69501694 167.19864342 46.69501694 167.19864342 44.95718384 167.20204163 C34.27388683 167.22228169 23.59059369 167.23728883 12.90728188 167.24712467 C7.41441679 167.25235129 1.92156714 167.25944496 -3.57128906 167.27075195 C-8.86860939 167.28158864 -14.16591484 167.28759101 -19.46324539 167.29018974 C-21.48792378 167.29204257 -23.51260132 167.29566049 -25.53727341 167.30104256 C-28.36519911 167.30826333 -31.19306271 167.309303 -34.02099609 167.30883789 C-34.86472275 167.31243317 -35.7084494 167.31602844 -36.57774353 167.31973267 C-42.37345818 167.30936466 -42.37345818 167.30936466 -44.6015625 166.1953125 C-44.80652344 166.88238281 -45.01148438 167.56945312 -45.22265625 168.27734375 C-45.49207031 169.17839844 -45.76148438 170.07945312 -46.0390625 171.0078125 C-46.30589844 171.90113281 -46.57273437 172.79445313 -46.84765625 173.71484375 C-48.47486567 179.06861567 -48.47486567 179.06861567 -49.6015625 180.1953125 C-49.2715625 180.8553125 -48.9415625 181.5153125 -48.6015625 182.1953125 C-51.6015625 186.1953125 -51.6015625 186.1953125 -53.0625 187.96875 C-54.86411711 190.57515039 -55.83347076 193.09218681 -56.9140625 196.0703125 C-59.81831339 203.86177712 -62.98085017 211.55047809 -66.48339844 219.09472656 C-67.24624166 220.77021083 -67.93008459 222.48116702 -68.6015625 224.1953125 C-68.2715625 224.8553125 -67.9415625 225.5153125 -67.6015625 226.1953125 C-78.4915625 226.1953125 -89.3815625 226.1953125 -100.6015625 226.1953125 C-99.86287187 222.50185934 -99.25556305 220.08461222 -97.765625 216.78515625 C-97.17297852 215.45774414 -97.17297852 215.45774414 -96.56835938 214.10351562 C-96.12556641 213.12318359 -95.68277344 212.14285156 -95.2265625 211.1328125 C-94.22745878 208.89268803 -93.23021679 206.65173271 -92.234375 204.41015625 C-91.82007233 203.47845108 -91.82007233 203.47845108 -91.3973999 202.52792358 C-87.6494167 194.07944327 -84.00693213 185.58508122 -80.3510437 177.09646606 C-74.41499572 163.31363623 -68.4612855 149.54056818 -62.390625 135.81640625 C-58.54948157 127.11699418 -54.81329474 118.37374326 -51.078125 109.62841797 C-47.37922282 100.97972517 -43.61180042 92.36330299 -39.81201172 83.75854492 C-34.86169605 72.53965175 -29.99380999 61.28529912 -25.12663269 50.03018188 C-23.10929163 45.36602103 -21.08683327 40.70409856 -19.0625 36.04296875 C-18.18962454 34.03219843 -17.31681782 32.02139829 -16.44403076 30.0105896 C-15.89325004 28.74209408 -15.34219542 27.47371744 -14.79083252 26.20547485 C-11.66439282 19.01335653 -8.59615174 11.80805588 -5.6796875 4.52783203 C-4.22970096 1.39079141 -3.53091607 0.26508379 0 0 Z M32.3984375 59.1953125 C33.3984375 61.1953125 33.3984375 61.1953125 33.3984375 61.1953125 Z M1.3984375 60.1953125 C-2.1333147 66.41302511 -5.23398232 72.44770899 -7.6015625 79.1953125 C-8.26822917 80.52864583 -8.93489583 81.86197917 -9.6015625 83.1953125 C-9.74207031 83.80890625 -9.88257813 84.4225 -10.02734375 85.0546875 C-10.64184242 87.34547165 -11.5339932 89.11138809 -12.6640625 91.1953125 C-15.75387981 97.22269526 -18.17291312 103.48618245 -20.64086914 109.78564453 C-22.80221246 115.28002576 -25.11134918 120.63890603 -27.7890625 125.90625 C-28.93606449 128.73287687 -28.93606449 128.73287687 -28.6015625 134.1953125 C-8.1415625 134.1953125 12.3184375 134.1953125 33.3984375 134.1953125 C31.38058757 127.46914608 29.33865967 121.35272149 26.484375 115.0234375 C26.11297394 114.18588928 25.74157288 113.34834106 25.35891724 112.4854126 C24.16881652 109.80309744 22.97114076 107.12424028 21.7734375 104.4453125 C20.14181291 100.77521246 18.51505286 97.10297806 16.890625 93.4296875 C16.49578918 92.53749512 16.10095337 91.64530273 15.69415283 90.72607422 C12.24057755 82.8946993 8.96051693 75.00334755 5.86083984 67.02441406 C4.52648538 62.87617061 4.52648538 62.87617061 1.3984375 60.1953125 Z M53.3984375 107.1953125 C54.3984375 109.1953125 54.3984375 109.1953125 54.3984375 109.1953125 Z M-42.6015625 165.1953125 C-42.6015625 165.5253125 -42.6015625 165.8553125 -42.6015625 166.1953125 C-13.2315625 166.1953125 16.1384375 166.1953125 46.3984375 166.1953125 C46.3984375 165.8653125 46.3984375 165.5353125 46.3984375 165.1953125 C17.0284375 165.1953125 -12.3415625 165.1953125 -42.6015625 165.1953125 Z M-51.6015625 182.1953125 C-50.6015625 184.1953125 -50.6015625 184.1953125 -50.6015625 184.1953125 Z " fill="#EEEEEE" transform="translate(834.6015625,94.8046875)"/>
<path d="M0 0 C56.43 0 112.86 0 171 0 C171 9.24 171 18.48 171 28 C148.23 28 125.46 28 102 28 C102 93.01 102 158.02 102 225 C101.34 224.67 100.68 224.34 100 224 C97.76023219 223.92623243 95.51822793 223.91653402 93.27734375 223.9375 C92.28632408 223.94317993 92.28632408 223.94317993 91.27528381 223.94897461 C89.16262353 223.96120591 87.05009865 223.97984116 84.9375 224 C82.15495177 224.02648544 79.37246992 224.04652852 76.58984375 224.0625 C75.35097412 224.07410156 74.11210449 224.08570313 72.83569336 224.09765625 C70 224 70 224 69 223 C68.90226095 220.48325639 68.87004455 217.99398173 68.87974548 215.47679138 C68.87889106 214.67964425 68.87803663 213.88249711 68.87715632 213.061194 C68.87549908 210.36946835 68.88102684 207.67780397 68.88647461 204.98608398 C68.88675645 203.06477866 68.8865988 201.14347323 68.8860321 199.22216797 C68.88574403 193.98891366 68.89164241 188.75568205 68.89860606 183.52243304 C68.9048379 178.0598021 68.90544326 172.59717069 68.90663147 167.13453674 C68.90974529 156.78247776 68.91795936 146.43042927 68.92798096 136.07837492 C68.93914053 124.29623148 68.94465215 112.51408755 68.94967639 100.73194015 C68.96014193 76.48795293 68.97848804 52.24398011 69 28 C46.23 28 23.46 28 0 28 C0 18.76 0 9.52 0 0 Z M1 26 C1 26.33 1 26.66 1 27 C23.11 27 45.22 27 68 27 C68 26.67 68 26.34 68 26 C45.89 26 23.78 26 1 26 Z M169 1 C169 9.25 169 17.5 169 26 C146.56 26 124.12 26 101 26 C101 26.33 101 26.66 101 27 C123.77 27 146.54 27 170 27 C170 18.42 170 9.84 170 1 C169.67 1 169.34 1 169 1 Z M99 220 C100 222 100 222 100 222 Z " fill="#F3F3F3" transform="translate(1014,95)"/>
<path d="M0 0 C0.66 0 1.32 0 2 0 C2 9.24 2 18.48 2 28 C-20.77 28 -43.54 28 -67 28 C-67 93.01 -67 158.02 -67 225 C-69.95602552 220.56596172 -70.14467057 217.72960289 -70.13371277 212.52185059 C-70.13597833 211.74159437 -70.13824388 210.96133815 -70.14057809 210.1574378 C-70.14693564 207.52877184 -70.14608761 204.9001572 -70.14526367 202.27148438 C-70.14825403 200.39268425 -70.15165627 198.51388475 -70.15544128 196.63508606 C-70.16429709 191.52159364 -70.16662003 186.40811795 -70.16725707 181.29461861 C-70.16820474 177.03236701 -70.17188131 172.77011934 -70.17542917 168.50786924 C-70.18357941 158.45690431 -70.18601285 148.40594833 -70.18530273 138.35498047 C-70.18470149 127.97010019 -70.19526129 117.58527179 -70.2110464 107.20040464 C-70.22409887 98.29764418 -70.22948761 89.39490072 -70.22884732 80.49213076 C-70.2285917 75.1689856 -70.23147833 69.84588653 -70.24202538 64.52275085 C-70.25166811 59.51923953 -70.251812 54.51581872 -70.24450874 49.51230431 C-70.24345818 47.67160091 -70.24585351 45.830892 -70.2518692 43.99019814 C-70.25952574 41.48607356 -70.25498687 38.98226659 -70.24723816 36.47814941 C-70.25238172 35.74216821 -70.25752529 35.00618701 -70.26282471 34.24790335 C-70.22827143 29.22827143 -70.22827143 29.22827143 -68 27 C-65.13998413 26.75949097 -65.13998413 26.75949097 -61.43896484 26.77294922 C-60.76567642 26.77265717 -60.092388 26.77236511 -59.3986969 26.77206421 C-57.16931346 26.77345953 -54.94026268 26.78902984 -52.7109375 26.8046875 C-51.16680077 26.80841692 -49.62266167 26.81126423 -48.07852173 26.81326294 C-44.01124557 26.82090501 -39.94411189 26.84055832 -35.87689209 26.8626709 C-31.7278435 26.88311704 -27.57877193 26.89226201 -23.4296875 26.90234375 C-15.28638561 26.92380377 -7.14322693 26.95899049 1 27 C0.67 18.09 0.34 9.18 0 0 Z " fill="#000100" transform="translate(1183,95)"/>
<path d="M0 0 C9.23888522 13.85832783 5.86525359 40.42343956 3 56 C2.10270252 60.03127309 1.11103375 64.02249918 0 68 C-1.39022148 64.20681292 -0.53365535 61.60009145 0.4375 57.75 C2.32123791 49.12823594 2.3146297 40.46636445 2.3125 31.6875 C2.31719803 30.65187927 2.31719803 30.65187927 2.32199097 29.59533691 C2.34361637 22.03473903 2.07543068 14.75188005 0.42651367 7.34301758 C-0.02745333 4.84918739 -0.07051568 2.52929363 0 0 Z " fill="#000100" transform="translate(647,176)"/>
<path d="M0 0 C1.47135491 2.94270982 0.38674165 4.70258546 -0.4375 7.875 C-4.36094829 25.28557761 -3.14435145 44.73186897 1 62 C0.34 61.67 -0.32 61.34 -1 61 C-4.33580558 49.60822393 -6.47470738 36.86768451 -6 25 C-5.34 25 -4.68 25 -4 25 C-4.03480469 24.44054687 -4.06960938 23.88109375 -4.10546875 23.3046875 C-4.36522754 15.61087955 -2.99182672 8.42032855 -1 1 C-0.67 0.67 -0.34 0.34 0 0 Z " fill="#000100" transform="translate(452,177)"/>
<path d="M0 0 C0.66 0 1.32 0 2 0 C2 27.06 2 54.12 2 82 C1.67 82 1.34 82 1 82 C0.67 54.94 0.34 27.88 0 0 Z " fill="#000100" transform="translate(300,203)"/>
<path d="M0 0 C15.84 0.495 15.84 0.495 32 1 C32 1.33 32 1.66 32 2 C21.44 2 10.88 2 0 2 C0 1.34 0 0.68 0 0 Z " fill="#000100" transform="translate(1083,319)"/>
<path d="M0 0 C9.9 0 19.8 0 30 0 C30 0.33 30 0.66 30 1 C20.1 1 10.2 1 0 1 C0 0.67 0 0.34 0 0 Z " fill="#000100" transform="translate(908,320)"/>
<path d="M0 0 C9.24 0 18.48 0 28 0 C28 0.33 28 0.66 28 1 C18.76 1 9.52 1 0 1 C0 0.67 0 0.34 0 0 Z " fill="#000100" transform="translate(520,324)"/>
<path d="M0 0 C8.58 0 17.16 0 26 0 C26 0.33 26 0.66 26 1 C17.42 1 8.84 1 0 1 C0 0.67 0 0.34 0 0 Z " fill="#000100" transform="translate(197,324)"/>
<path d="M0 0 C0.33 0 0.66 0 1 0 C1 4.29 1 8.58 1 13 C0.67 13 0.34 13 0 13 C0 8.71 0 4.42 0 0 Z " fill="#000100" transform="translate(127,202)"/>
<path d="M0 0 C-2.97 0.66 -5.94 1.32 -9 2 C-5.76698667 -1.23301333 -4.45068633 -1.11267158 0 0 Z " fill="#000100" transform="translate(190,122)"/>
<path d="M0 0 C3.63 0 7.26 0 11 0 C11 0.33 11 0.66 11 1 C7.37 1 3.74 1 0 1 C0 0.67 0 0.34 0 0 Z " fill="#000100" transform="translate(213,118)"/>
<path d="M0 0 C3.3 0 6.6 0 10 0 C10 0.33 10 0.66 10 1 C6.7 1 3.4 1 0 1 C0 0.67 0 0.34 0 0 Z " fill="#000100" transform="translate(522,118)"/>
<path d="M0 0 C0.33 0.99 0.66 1.98 1 3 C-0.4375 5.1875 -0.4375 5.1875 -2 7 C-1.125 2.25 -1.125 2.25 0 0 Z " fill="#000100" transform="translate(782,281)"/>
<path d="M0 0 C2.97 0 5.94 0 9 0 C9 0.33 9 0.66 9 1 C6.03 1 3.06 1 0 1 C0 0.67 0 0.34 0 0 Z " fill="#000100" transform="translate(200,118)"/>
<path d="M0 0 C2.125 0.375 2.125 0.375 4 1 C2.02 1.33 0.04 1.66 -2 2 C-1.34 1.34 -0.68 0.68 0 0 Z " fill="#000100" transform="translate(504,122)"/>
<path d="M0 0 C0.33 0 0.66 0 1 0 C1 1.65 1 3.3 1 5 C0.67 5 0.34 5 0 5 C0 3.35 0 1.7 0 0 Z " fill="#000100" transform="translate(128,221)"/>
<path d="M0 0 C0.33 0 0.66 0 1 0 C1 1.65 1 3.3 1 5 C0.67 5 0.34 5 0 5 C0 3.35 0 1.7 0 0 Z " fill="#000100" transform="translate(128,191)"/>
<path d="M0 0 C1.65 0 3.3 0 5 0 C5 0.33 5 0.66 5 1 C3.35 1 1.7 1 0 1 C0 0.67 0 0.34 0 0 Z " fill="#000100" transform="translate(515,119)"/>
<path d="M0 0 C4 1 4 1 4 1 Z " fill="#000100" transform="translate(551,323)"/>
<path d="M0 0 C4 1 4 1 4 1 Z " fill="#000100" transform="translate(512,323)"/>
<path d="M0 0 C4 1 4 1 4 1 Z " fill="#000100" transform="translate(226,323)"/>
<path d="M0 0 C4 1 4 1 4 1 Z " fill="#000100" transform="translate(190,323)"/>
<path d="M0 0 C4 1 4 1 4 1 Z " fill="#000100" transform="translate(232,322)"/>
<path d="M0 0 C4 1 4 1 4 1 Z " fill="#000100" transform="translate(184,322)"/>
<path d="M0 0 C0.99 1.485 0.99 1.485 2 3 C1.34 3 0.68 3 0 3 C0 2.01 0 1.02 0 0 Z " fill="#000100" transform="translate(892,209)"/>
<path d="M0 0 C4 1 4 1 4 1 Z " fill="#000100" transform="translate(553,120)"/>
<path d="M0 0 C4 1 4 1 4 1 Z " fill="#000100" transform="translate(511,120)"/>
<path d="M0 0 C4 1 4 1 4 1 Z " fill="#000100" transform="translate(548,119)"/>
<path d="M0 0 C4 1 4 1 4 1 Z " fill="#000100" transform="translate(194,119)"/>
<path d="M0 0 C3 1 3 1 3 1 Z " fill="#000100" transform="translate(557,322)"/>
<path d="M0 0 C3 1 3 1 3 1 Z " fill="#000100" transform="translate(507,322)"/>
<path d="M0 0 C3 1 3 1 3 1 Z " fill="#000100" transform="translate(562,321)"/>
<path d="M0 0 C3 1 3 1 3 1 Z " fill="#000100" transform="translate(502,321)"/>
<path d="" fill="#000100" transform="translate(0,0)"/>
<path d="" fill="#000100" transform="translate(0,0)"/>
<path d="" fill="#000100" transform="translate(0,0)"/>
<path d="" fill="#000100" transform="translate(0,0)"/>
<path d="" fill="#000100" transform="translate(0,0)"/>
<path d="" fill="#000100" transform="translate(0,0)"/>
<path d="" fill="#000100" transform="translate(0,0)"/>
<path d="" fill="#000100" transform="translate(0,0)"/>
<path d="M0 0 C0.99 0.495 0.99 0.495 2 1 C1.01 1.495 1.01 1.495 0 2 C0 1.34 0 0.68 0 0 Z " fill="#000100" transform="translate(282,146)"/>
<path d="M0 0 C3 1 3 1 3 1 Z " fill="#000100" transform="translate(499,124)"/>
<path d="M0 0 C3 1 3 1 3 1 Z " fill="#000100" transform="translate(245,123)"/>
<path d="M0 0 C3 1 3 1 3 1 Z " fill="#000100" transform="translate(242,122)"/>
<path d="M0 0 C3 1 3 1 3 1 Z " fill="#000100" transform="translate(557,121)"/>
<path d="M0 0 C3 1 3 1 3 1 Z " fill="#000100" transform="translate(508,121)"/>
<path d="M0 0 C3 1 3 1 3 1 Z " fill="#000100" transform="translate(190,120)"/>
<path d="M0 0 C2 1 2 1 2 1 Z " fill="#000100" transform="translate(238,321)"/>
<path d="M0 0 C2 1 2 1 2 1 Z " fill="#000100" transform="translate(180,321)"/>
<path d="M0 0 C2 1 2 1 2 1 Z " fill="#000100" transform="translate(567,320)"/>
<path d="M0 0 C2 1 2 1 2 1 Z " fill="#000100" transform="translate(499,320)"/>
<path d="M0 0 C2 1 2 1 2 1 Z " fill="#000100" transform="translate(242,320)"/>
<path d="M0 0 C2 1 2 1 2 1 Z " fill="#000100" transform="translate(176,320)"/>
<path d="M0 0 C2 1 2 1 2 1 Z " fill="#F5F5F5" transform="translate(938,319)"/>
<path d="M0 0 C2 1 2 1 2 1 Z " fill="#000100" transform="translate(495,319)"/>
<path d="M0 0 C2 1 2 1 2 1 Z " fill="#000100" transform="translate(173,319)"/>
<path d="M0 0 C2 1 2 1 2 1 Z " fill="#000100" transform="translate(492,318)"/>
<path d="M0 0 C2 1 2 1 2 1 Z " fill="#000100" transform="translate(170,318)"/>
<path d="M0 0 C2 1 2 1 2 1 Z " fill="#000100" transform="translate(576,317)"/>
<path d="M0 0 C2 1 2 1 2 1 Z " fill="#000100" transform="translate(167,317)"/>
<path d="M0 0 C2 1 2 1 2 1 Z " fill="#000100" transform="translate(254,316)"/>
<path d="M0 0 C2 1 2 1 2 1 Z " fill="#000100" transform="translate(581,315)"/>
<path d="M0 0 C2 1 2 1 2 1 Z " fill="#000100" transform="translate(162,315)"/>
<path d="" fill="#000100" transform="translate(0,0)"/>
<path d="" fill="#000100" transform="translate(0,0)"/>
<path d="M0 0 C2 1 2 1 2 1 Z " fill="#000100" transform="translate(152,310)"/>
<path d="" fill="#000100" transform="translate(0,0)"/>
<path d="M0 0 C2 1 2 1 2 1 Z " fill="#000100" transform="translate(593,309)"/>
<path d="M0 0 C2 1 2 1 2 1 Z " fill="#000100" transform="translate(268,309)"/>
<path d="" fill="#000100" transform="translate(0,0)"/>
<path d="M0 0 C2 1 2 1 2 1 Z " fill="#000100" transform="translate(270,308)"/>
<path d="" fill="#000100" transform="translate(0,0)"/>
<path d="M0 0 C2 1 2 1 2 1 Z " fill="#000100" transform="translate(598,306)"/>
<path d="M0 0 C2 1 2 1 2 1 Z " fill="#000100" transform="translate(273,306)"/>
<path d="" fill="#000100" transform="translate(0,0)"/>
<path d="" fill="#000100" transform="translate(0,0)"/>
<path d="M0 0 C2 1 2 1 2 1 Z " fill="#000100" transform="translate(605,301)"/>
<path d="" fill="#000100" transform="translate(0,0)"/>
<path d="" fill="#000100" transform="translate(0,0)"/>
<path d="" fill="#000100" transform="translate(0,0)"/>
<path d="" fill="#000100" transform="translate(0,0)"/>
<path d="" fill="#000100" transform="translate(0,0)"/>
<path d="" fill="#000100" transform="translate(0,0)"/>
<path d="" fill="#000100" transform="translate(0,0)"/>
<path d="" fill="#000100" transform="translate(0,0)"/>
<path d="" fill="#000100" transform="translate(0,0)"/>
<path d="" fill="#000100" transform="translate(0,0)"/>
<path d="" fill="#000100" transform="translate(0,0)"/>
<path d="" fill="#000100" transform="translate(0,0)"/>
<path d="" fill="#000100" transform="translate(0,0)"/>
<path d="" fill="#000100" transform="translate(0,0)"/>
<path d="" fill="#000100" transform="translate(0,0)"/>
<path d="" fill="#000100" transform="translate(0,0)"/>
<path d="" fill="#000100" transform="translate(0,0)"/>
<path d="" fill="#000100" transform="translate(0,0)"/>
<path d="" fill="#000100" transform="translate(0,0)"/>
<path d="" fill="#000100" transform="translate(0,0)"/>
<path d="" fill="#000100" transform="translate(0,0)"/>
<path d="" fill="#000100" transform="translate(0,0)"/>
<path d="" fill="#000100" transform="translate(0,0)"/>
<path d="" fill="#000100" transform="translate(0,0)"/>
<path d="" fill="#000100" transform="translate(0,0)"/>
<path d="" fill="#000100" transform="translate(0,0)"/>
<path d="" fill="#000100" transform="translate(0,0)"/>
<path d="" fill="#000100" transform="translate(0,0)"/>
<path d="" fill="#000100" transform="translate(0,0)"/>
<path d="" fill="#000100" transform="translate(0,0)"/>
<path d="" fill="#000100" transform="translate(0,0)"/>
<path d="" fill="#000100" transform="translate(0,0)"/>
<path d="" fill="#000100" transform="translate(0,0)"/>
<path d="" fill="#000100" transform="translate(0,0)"/>
<path d="" fill="#000100" transform="translate(0,0)"/>
<path d="" fill="#000100" transform="translate(0,0)"/>
<path d="" fill="#000100" transform="translate(0,0)"/>
<path d="" fill="#000100" transform="translate(0,0)"/>
<path d="" fill="#000100" transform="translate(0,0)"/>
<path d="" fill="#000100" transform="translate(0,0)"/>
<path d="" fill="#000100" transform="translate(0,0)"/>
<path d="" fill="#000100" transform="translate(0,0)"/>
<path d="" fill="#000100" transform="translate(0,0)"/>
<path d="" fill="#000100" transform="translate(0,0)"/>
<path d="" fill="#000100" transform="translate(0,0)"/>
<path d="" fill="#000100" transform="translate(0,0)"/>
<path d="" fill="#000100" transform="translate(0,0)"/>
<path d="" fill="#000100" transform="translate(0,0)"/>
<path d="" fill="#000100" transform="translate(0,0)"/>
<path d="" fill="#000100" transform="translate(0,0)"/>
<path d="" fill="#000100" transform="translate(0,0)"/>
<path d="" fill="#000100" transform="translate(0,0)"/>
<path d="" fill="#000100" transform="translate(0,0)"/>
<path d="" fill="#000100" transform="translate(0,0)"/>
<path d="" fill="#000100" transform="translate(0,0)"/>
<path d="" fill="#000100" transform="translate(0,0)"/>
<path d="" fill="#000100" transform="translate(0,0)"/>
<path d="" fill="#000100" transform="translate(0,0)"/>
<path d="" fill="#000100" transform="translate(0,0)"/>
<path d="" fill="#000100" transform="translate(0,0)"/>
<path d="" fill="#000100" transform="translate(0,0)"/>
<path d="" fill="#000100" transform="translate(0,0)"/>
<path d="" fill="#000100" transform="translate(0,0)"/>
<path d="" fill="#000100" transform="translate(0,0)"/>
<path d="" fill="#000100" transform="translate(0,0)"/>
<path d="" fill="#000100" transform="translate(0,0)"/>
<path d="" fill="#000100" transform="translate(0,0)"/>
<path d="" fill="#000100" transform="translate(0,0)"/>
<path d="" fill="#000100" transform="translate(0,0)"/>
<path d="" fill="#000100" transform="translate(0,0)"/>
<path d="" fill="#000100" transform="translate(0,0)"/>
<path d="" fill="#000100" transform="translate(0,0)"/>
<path d="" fill="#000100" transform="translate(0,0)"/>
<path d="" fill="#000100" transform="translate(0,0)"/>
<path d="" fill="#000100" transform="translate(0,0)"/>
<path d="" fill="#000100" transform="translate(0,0)"/>
<path d="" fill="#000100" transform="translate(0,0)"/>
<path d="" fill="#000100" transform="translate(0,0)"/>
<path d="" fill="#000100" transform="translate(0,0)"/>
<path d="" fill="#000100" transform="translate(0,0)"/>
<path d="" fill="#000100" transform="translate(0,0)"/>
<path d="" fill="#000100" transform="translate(0,0)"/>
<path d="" fill="#000100" transform="translate(0,0)"/>
<path d="" fill="#000100" transform="translate(0,0)"/>
<path d="" fill="#000100" transform="translate(0,0)"/>
<path d="" fill="#000100" transform="translate(0,0)"/>
<path d="" fill="#000100" transform="translate(0,0)"/>
<path d="" fill="#000100" transform="translate(0,0)"/>
<path d="" fill="#000100" transform="translate(0,0)"/>
<path d="" fill="#000100" transform="translate(0,0)"/>
<path d="" fill="#000100" transform="translate(0,0)"/>
<path d="" fill="#000100" transform="translate(0,0)"/>
<path d="" fill="#000100" transform="translate(0,0)"/>
<path d="" fill="#000100" transform="translate(0,0)"/>
<path d="" fill="#000100" transform="translate(0,0)"/>
<path d="" fill="#000100" transform="translate(0,0)"/>
<path d="" fill="#000100" transform="translate(0,0)"/>
<path d="" fill="#000100" transform="translate(0,0)"/>
<path d="" fill="#000100" transform="translate(0,0)"/>
<path d="" fill="#000100" transform="translate(0,0)"/>
<path d="" fill="#000100" transform="translate(0,0)"/>
<path d="" fill="#000100" transform="translate(0,0)"/>
<path d="" fill="#000100" transform="translate(0,0)"/>
<path d="" fill="#000100" transform="translate(0,0)"/>
<path d="" fill="#000100" transform="translate(0,0)"/>
<path d="" fill="#000100" transform="translate(0,0)"/>
<path d="" fill="#000100" transform="translate(0,0)"/>
<path d="" fill="#000100" transform="translate(0,0)"/>
<path d="" fill="#000100" transform="translate(0,0)"/>
<path d="" fill="#000100" transform="translate(0,0)"/>
<path d="" fill="#000100" transform="translate(0,0)"/>
<path d="" fill="#000100" transform="translate(0,0)"/>
<path d="" fill="#000100" transform="translate(0,0)"/>
<path d="" fill="#000100" transform="translate(0,0)"/>
<path d="" fill="#000100" transform="translate(0,0)"/>
<path d="" fill="#000100" transform="translate(0,0)"/>
<path d="" fill="#000100" transform="translate(0,0)"/>
<path d="" fill="#000100" transform="translate(0,0)"/>
<path d="" fill="#000100" transform="translate(0,0)"/>
<path d="" fill="#000100" transform="translate(0,0)"/>
<path d="" fill="#000100" transform="translate(0,0)"/>
<path d="" fill="#000100" transform="translate(0,0)"/>
<path d="" fill="#000100" transform="translate(0,0)"/>
<path d="" fill="#000100" transform="translate(0,0)"/>
<path d="" fill="#000100" transform="translate(0,0)"/>
<path d="" fill="#000100" transform="translate(0,0)"/>
<path d="" fill="#000100" transform="translate(0,0)"/>
<path d="" fill="#000100" transform="translate(0,0)"/>
<path d="" fill="#000100" transform="translate(0,0)"/>
<path d="" fill="#000100" transform="translate(0,0)"/>
<path d="" fill="#000100" transform="translate(0,0)"/>
<path d="" fill="#000100" transform="translate(0,0)"/>
<path d="" fill="#000100" transform="translate(0,0)"/>
<path d="" fill="#000100" transform="translate(0,0)"/>
<path d="" fill="#000100" transform="translate(0,0)"/>
<path d="" fill="#000100" transform="translate(0,0)"/>
<path d="" fill="#000100" transform="translate(0,0)"/>
<path d="" fill="#000100" transform="translate(0,0)"/>
<path d="" fill="#000100" transform="translate(0,0)"/>
<path d="" fill="#000100" transform="translate(0,0)"/>
<path d="" fill="#000100" transform="translate(0,0)"/>
<path d="" fill="#000100" transform="translate(0,0)"/>
<path d="" fill="#000100" transform="translate(0,0)"/>
<path d="" fill="#000100" transform="translate(0,0)"/>
<path d="" fill="#000100" transform="translate(0,0)"/>
<path d="" fill="#000100" transform="translate(0,0)"/>
<path d="" fill="#000100" transform="translate(0,0)"/>
<path d="" fill="#000100" transform="translate(0,0)"/>
<path d="" fill="#000100" transform="translate(0,0)"/>
<path d="" fill="#000100" transform="translate(0,0)"/>
<path d="" fill="#000100" transform="translate(0,0)"/>
<path d="" fill="#000100" transform="translate(0,0)"/>
<path d="" fill="#000100" transform="translate(0,0)"/>
<path d="" fill="#000100" transform="translate(0,0)"/>
<path d="" fill="#000100" transform="translate(0,0)"/>
<path d="" fill="#000100" transform="translate(0,0)"/>
<path d="" fill="#000100" transform="translate(0,0)"/>
<path d="" fill="#000100" transform="translate(0,0)"/>
<path d="" fill="#000100" transform="translate(0,0)"/>
<path d="" fill="#000100" transform="translate(0,0)"/>
<path d="" fill="#000100" transform="translate(0,0)"/>
<path d="" fill="#000100" transform="translate(0,0)"/>
<path d="" fill="#000100" transform="translate(0,0)"/>
<path d="" fill="#000100" transform="translate(0,0)"/>
<path d="" fill="#000100" transform="translate(0,0)"/>
<path d="" fill="#000100" transform="translate(0,0)"/>
<path d="" fill="#000100" transform="translate(0,0)"/>
<path d="" fill="#000100" transform="translate(0,0)"/>
<path d="" fill="#000100" transform="translate(0,0)"/>
<path d="" fill="#000100" transform="translate(0,0)"/>
<path d="" fill="#000100" transform="translate(0,0)"/>
<path d="" fill="#000100" transform="translate(0,0)"/>
<path d="" fill="#000100" transform="translate(0,0)"/>
<path d="" fill="#000100" transform="translate(0,0)"/>
<path d="" fill="#000100" transform="translate(0,0)"/>
<path d="" fill="#000100" transform="translate(0,0)"/>
<path d="" fill="#000100" transform="translate(0,0)"/>
<path d="" fill="#000100" transform="translate(0,0)"/>
<path d="" fill="#000100" transform="translate(0,0)"/>
<path d="" fill="#000100" transform="translate(0,0)"/>
<path d="" fill="#000100" transform="translate(0,0)"/>
<path d="" fill="#000100" transform="translate(0,0)"/>
<path d="" fill="#000100" transform="translate(0,0)"/>
<path d="" fill="#000100" transform="translate(0,0)"/>
<path d="" fill="#000100" transform="translate(0,0)"/>
<path d="" fill="#000100" transform="translate(0,0)"/>
<path d="" fill="#000100" transform="translate(0,0)"/>
<path d="" fill="#000100" transform="translate(0,0)"/>
<path d="" fill="#000100" transform="translate(0,0)"/>
<path d="" fill="#000100" transform="translate(0,0)"/>
<path d="" fill="#000100" transform="translate(0,0)"/>
<path d="" fill="#000100" transform="translate(0,0)"/>
<path d="" fill="#000100" transform="translate(0,0)"/>
<path d="" fill="#000100" transform="translate(0,0)"/>
<path d="" fill="#000100" transform="translate(0,0)"/>
<path d="" fill="#000100" transform="translate(0,0)"/>
<path d="" fill="#000100" transform="translate(0,0)"/>
<path d="" fill="#000100" transform="translate(0,0)"/>
<path d="" fill="#000100" transform="translate(0,0)"/>
<path d="" fill="#000100" transform="translate(0,0)"/>
<path d="" fill="#000100" transform="translate(0,0)"/>
<path d="" fill="#000100" transform="translate(0,0)"/>
<path d="" fill="#000100" transform="translate(0,0)"/>
<path d="" fill="#000100" transform="translate(0,0)"/>
<path d="" fill="#000100" transform="translate(0,0)"/>
<path d="" fill="#000100" transform="translate(0,0)"/>
<path d="" fill="#000100" transform="translate(0,0)"/>
<path d="" fill="#000100" transform="translate(0,0)"/>
<path d="" fill="#000100" transform="translate(0,0)"/>
<path d="" fill="#000100" transform="translate(0,0)"/>
<path d="" fill="#000100" transform="translate(0,0)"/>
<path d="" fill="#000100" transform="translate(0,0)"/>
<path d="" fill="#000100" transform="translate(0,0)"/>
<path d="" fill="#000100" transform="translate(0,0)"/>
<path d="" fill="#000100" transform="translate(0,0)"/>
<path d="" fill="#000100" transform="translate(0,0)"/>
<path d="" fill="#000100" transform="translate(0,0)"/>
<path d="" fill="#000100" transform="translate(0,0)"/>
<path d="" fill="#000100" transform="translate(0,0)"/>
<path d="" fill="#000100" transform="translate(0,0)"/>
<path d="" fill="#000100" transform="translate(0,0)"/>
<path d="" fill="#000100" transform="translate(0,0)"/>
<path d="" fill="#000100" transform="translate(0,0)"/>
<path d="" fill="#000100" transform="translate(0,0)"/>
<path d="" fill="#000100" transform="translate(0,0)"/>
<path d="" fill="#000100" transform="translate(0,0)"/>
<path d="" fill="#000100" transform="translate(0,0)"/>
<path d="" fill="#000100" transform="translate(0,0)"/>
<path d="" fill="#000100" transform="translate(0,0)"/>
<path d="" fill="#000100" transform="translate(0,0)"/>
<path d="" fill="#000100" transform="translate(0,0)"/>
<path d="" fill="#000100" transform="translate(0,0)"/>
<path d="" fill="#000100" transform="translate(0,0)"/>
<path d="" fill="#000100" transform="translate(0,0)"/>
<path d="" fill="#000100" transform="translate(0,0)"/>
<path d="" fill="#000100" transform="translate(0,0)"/>
<path d="" fill="#000100" transform="translate(0,0)"/>
<path d="" fill="#000100" transform="translate(0,0)"/>
<path d="" fill="#000100" transform="translate(0,0)"/>
<path d="" fill="#000100" transform="translate(0,0)"/>
<path d="" fill="#000100" transform="translate(0,0)"/>
<path d="" fill="#000100" transform="translate(0,0)"/>
<path d="" fill="#000100" transform="translate(0,0)"/>
<path d="" fill="#000100" transform="translate(0,0)"/>
<path d="" fill="#000100" transform="translate(0,0)"/>
</svg>
