<?xml version="1.0" encoding="utf-8"?>
<!-- Generator: Adobe Illustrator 24.3.0, SVG Export Plug-In . SVG Version: 6.00 Build 0)  -->
<svg version="1.1" id="Ebene_1" xmlns="http://www.w3.org/2000/svg" xmlns:xlink="http://www.w3.org/1999/xlink" x="0px" y="0px"
	 viewBox="0 0 736.7 124.8" style="enable-background:new 0 0 736.7 124.8;" xml:space="preserve">
<style type="text/css">
	.st0{fill:#E5077E;}
	.st1{fill:#A51B80;}
	.st2{fill:#8CA5D6;}
	.st3{fill:#F39205;}
	.st4{fill:#F39DAA;}
	.st5{fill:#1D1D1B;}
</style>
<rect x="40.3" y="40.3" transform="matrix(0.7071 -0.7071 0.7071 0.7071 -25.8472 62.3994)" class="st0" width="44.1" height="44.1"/>
<rect x="71.5" y="71.5" transform="matrix(0.7071 -0.7071 0.7071 0.7071 -38.7707 93.5993)" class="st1" width="44.1" height="44.1"/>
<rect x="9.1" y="71.5" transform="matrix(0.7071 -0.7071 0.7071 0.7071 -57.0467 49.475)" class="st2" width="44.1" height="44.1"/>
<rect x="9.1" y="9.1" transform="matrix(0.7071 -0.7071 0.7071 0.7071 -12.9237 31.2006)" class="st3" width="44.1" height="44.1"/>
<rect x="71.5" y="9.1" transform="matrix(0.7071 -0.7071 0.7071 0.7071 5.3533 75.3239)" class="st4" width="44.1" height="44.1"/>
<g>
	<path class="st5" d="M177.7,37h-7.3v-8.3h16.8v26.8c4-5.3,10-7.4,15.7-7.4c13.5,0,20.2,9.4,20.2,22.7V88h7.5v8.3H208V88h5.8V70.9
		c0-8.8-4.7-14-12.5-13.9c-8.5,0.1-14,6.5-14,14.6V88h7.4v8.3H170V88h7.7V37z"/>
	<path class="st5" d="M258.7,56.2c-9.2,0-15.4,6.7-15.4,16.4c0,8.9,6.1,15.7,15.3,15.7c9.4,0,15.4-6.8,15.5-15.7
		C274.2,62.9,267.6,56.2,258.7,56.2 M258.6,47.5c15,0,25,10.5,25,25.1c0,14.1-10.1,24.7-25,24.7c-14.7,0-24.9-10.6-24.9-24.7
		C233.8,58.1,244.1,47.5,258.6,47.5"/>
	<path class="st5" d="M289.7,96.3v-8.6h7.7V57H290v-8.4h16.4l0.8,6.3c2.7-5,8.2-7.1,13.1-7.1c7.6,0,12.8,2.7,15.2,9.7
		c3.7-6.9,9.9-9.7,16.3-9.7c14,0,20.1,8.4,20.1,21.8v18.1h7.6v8.6h-24v-8.6h7V69.6c0-7.3-2.9-12.7-11-12.7c-7.2,0-11.9,6-11.9,12.9
		v17.9h7.2v8.6h-24v-8.6h7.3V69.7c0-7.3-3.6-12.9-11.6-12.9c-7.2-0.1-11.7,5.9-11.7,12.9v17.9h7.3v8.6H289.7z"/>
	<path class="st5" d="M422.8,68.2c-0.6-7.9-6.3-12.2-14.4-12.2c-7.3,0-14.1,4.4-15.6,12.2H422.8z M429.2,89.1
		c-4.9,5.5-13.2,8.2-20.5,8.2c-15.4,0-25.5-10.1-25.5-25.2c0-14.3,10.4-24.8,25.1-24.8c15.1,0,25.6,9.5,23.8,28.7h-39.1
		c0.8,7.1,7.2,12.3,16.1,12.3c4.9,0,11-1.8,14-5.2L429.2,89.1z"/>
	<path class="st5" d="M465,86.6c9.1,0,15.8-6.6,15.8-15.2c0-9.7-7.4-15.2-16-15.2c-7.9,0-16,5-16,15C449.1,81.1,456.2,86.6,465,86.6
		 M448.9,103.6c0.2,8.9,7.7,12.2,15.7,12.3c7.6,0,15.5-2.5,15.5-10.3c0-6.5-6.5-10.7-15.3-10.7c-15.2,0-25.5-8.9-25.5-23.7
		c0-15.8,13-23.8,25.5-23.8c4,0,9.6,1,13,3.3l5.2-6.3l6.7,5.4l-5.6,6.6c4,4.5,5.9,8.8,5.9,14.8c0,8.3-3.9,15.5-12.4,18.8
		c9.5,3.1,12.2,9.5,12.2,15.4c0,12.6-12.3,19.2-25.3,19.2c-15.2,0-25.2-8-24.9-21H448.9z"/>
	<path class="st5" d="M507.7,72.8c0,9.6,6.8,16.1,15.7,16.1c10.2,0,16.2-7.2,16.6-15.4c0.4-9.1-5.4-16.6-16.6-16.6
		C514.7,56.9,507.7,63.3,507.7,72.8 M556.5,87.8v8.5h-15.9c0,1.3-1.2-7.8-1.2-6.5c-3.8,6-10.4,7.7-16.5,7.8
		c-14.1,0-24.7-9.4-24.7-25.2c0-15.6,11-24.8,24.9-24.8c6.7,0,13,2.8,16.6,8.2l0.1-7.3h16.4v8.7h-7.1v30.6H556.5z"/>
	<path class="st5" d="M581.9,35v13.7h14v8.2h-14.1v23.2c0,5.1,2,8.2,6.8,8.2c2,0,4-0.6,6-1.5l2.7,7.9c-3.3,1.4-5.9,2.1-9.2,2.2
		c-10.2,0.3-15.8-5.9-15.8-16.8V56.9h-9.3v-8.2h9.3V36.1L581.9,35z"/>
	<path class="st5" d="M642.4,68.2C641.8,60.3,636.1,56,628,56c-7.3,0-14.1,4.4-15.6,12.2H642.4z M648.8,89.1
		c-4.9,5.5-13.2,8.2-20.5,8.2c-15.4,0-25.5-10.1-25.5-25.2c0-14.3,10.4-24.8,25.1-24.8c15.1,0,25.6,9.5,23.8,28.7h-39.1
		c0.8,7.1,7.2,12.3,16.1,12.3c4.9,0,11-1.8,14-5.2L648.8,89.1z"/>
	<path class="st5" d="M660.1,73.1c0-2.4,1.7-3.5,3.5-3.5c1.8,0,3.5,1.2,3.5,3.5c0,2.3-1.8,3.5-3.5,3.5
		C661.8,76.6,660.1,75.4,660.1,73.1"/>
	<path class="st5" d="M697.6,72.2c-3,3.1-6.9,4.4-10.9,4.4c-7.8,0-15.3-5.1-15.3-14.6c0-10.6,7.3-14.7,15-14.7c3.6,0,7,0.9,10.2,2.5
		l-0.3,7.7h-5v-4.5c-1.3-0.5-3.5-0.6-4.7-0.6c-5.8,0.1-9.4,4.3-9.4,9.7c0,6,5,9.3,9.7,9.3c2.5,0,5.3-0.8,7.1-2.9L697.6,72.2z"/>
	<path class="st5" d="M705.3,40.9H701V36h9.9v15.9c2.4-3.1,5.9-4.4,9.3-4.4c8,0,12,5.6,12,13.4v10.2h4.5v4.9h-13.4v-4.9h3.4V61
		c0-5.2-2.8-8.3-7.4-8.2c-5,0.1-8.3,3.8-8.3,8.6v9.7h4.4v4.9h-14.6v-4.9h4.6V40.9z"/>
</g>
</svg>
