<?xml version="1.0" encoding="UTF-8"?>
<svg width="555px" height="160px" viewBox="0 0 555 160" version="1.1" xmlns="http://www.w3.org/2000/svg" xmlns:xlink="http://www.w3.org/1999/xlink">
    <!-- Generator: Sketch 54.1 (76490) - https://sketchapp.com -->
    <title>E710</title>
    <desc>Created with Sketch.</desc>
    <g id="E710" stroke="none" stroke-width="1" fill="none" fill-rule="evenodd">
        <path d="M90,115 L90,70 L60,70 L60,55 L90,55 L90,25 L105,25 L105,130 L90,130 L60,130 L60,115 L90,115 Z M465,55 L480,55 L480,70 L465,70 L465,115 L450,115 L450,70 L435,70 L435,55 L450,55 L450,25 L465,25 L465,55 Z M345,70 L345,130 L330,130 L330,70 L315,70 L315,55 L345,55 L345,70 Z M30,70 L30,130 L15,130 L15,70 L0,70 L0,55 L30,55 L30,70 Z M240,115 L240,100 L210,100 L210,85 L240,85 L240,70 L255,70 L255,130 L240,130 L210,130 L210,115 L240,115 Z M540,115 L540,100 L510,100 L510,85 L540,85 L540,70 L555,70 L555,130 L540,130 L510,130 L510,115 L540,115 Z M165,100 L135,100 L135,115 L120,115 L120,70 L135,70 L135,85 L165,85 L165,70 L180,70 L180,100 L165,100 Z M300,40 L300,130 L285,130 L285,40 L270,40 L270,25 L300,25 L300,40 Z M375,55 L420,55 L420,70 L375,70 L375,55 Z M360,70 L375,70 L375,85 L360,85 L360,70 Z M375,85 L405,85 L405,100 L375,100 L375,85 Z M405,100 L420,100 L420,115 L405,115 L405,100 Z M360,115 L405,115 L405,130 L360,130 L360,115 Z M135,115 L165,115 L165,130 L135,130 L135,115 Z M135,55 L165,55 L165,70 L135,70 L135,55 Z M510,55 L540,55 L540,70 L510,70 L510,55 Z M495,100 L510,100 L510,115 L495,115 L495,100 Z M210,55 L240,55 L240,70 L210,70 L210,55 Z M195,100 L210,100 L210,115 L195,115 L195,100 Z M15,25 L30,25 L30,40 L15,40 L15,25 Z M330,25 L345,25 L345,40 L330,40 L330,25 Z M465,115 L480,115 L480,130 L465,130 L465,115 Z M45,70 L60,70 L60,115 L45,115 L45,70 Z" id="Rectangle-84" fill="#000000"></path>
    </g>
</svg>