<svg xmlns="http://www.w3.org/2000/svg" xmlns:xlink="http://www.w3.org/1999/xlink" viewBox="0 0 232 47"><defs><path id="a" d="M0 .19h102.808v46.83H0z"/></defs><g fill="none" fill-rule="evenodd"><mask id="b" fill="#fff"><use xlink:href="#a"/></mask><path fill="#00FFD0" d="M92.262 45.745c.084.705-.456 1.276-.456 1.276l-.607-.191s-4.47-1.587-11.347-3.62c0 0-6.084-1.819-8.556-2.637 0 0-.53-.205-1.57-.103-1.038.103-4.63.376-6.994.626l-3.613.41c-6.526.754-9.509.886-9.509.886-10.357 1.008-12.836 1.195-12.836 1.195-5.468.402-8.951 1.06-17.13 1.595l-15.4 1.552s-1.097.12-1.106.114l-.41.037c-.338-.226-.38-.492-.38-.492l.015-.576c.65-.237-.08-.942-.08-.942-.334-.144-.224-.39-.224-.39.004-.048.03-.077.048-.11.034-.06.104-.156.098-.172-.073-.186.268-.853.268-.853-.173-.22-.104-.179-.278-.397-.11-.14-.162-.558-.188-.854-.018-.206.346-.613.25-.724-.156-.183-.317-.347-.471-.542a.798.798 0 01-.125-.3.333.333 0 01.051-.214c.11-.156.114-.163-.024-.415-.052-.096-.112-.172-.167-.262-.12-.198.272-.636.235-.921a2.48 2.48 0 00-.094-.403 3.581 3.581 0 01-.081-.329l-.03-.078a.345.345 0 01-.016-.19 1.062 1.062 0 01-.008-.288c-.042-.139-.086-.278-.127-.418-.033-.11-.026-.203.014-.267.012-.018.024-.038.038-.046.08-.046.052-.242.087-.35l-.05-.06c-.055-.069-.076-.117-.058-.168.04-.113.001-.282.011-.415a1.163 1.163 0 00-.085-.474c-.026-.072-.041-.149-.06-.224-.026-.1-.02-.179.009-.23.044-.076.094-.14.14-.212.033-.051.027-.184-.016-.285a3.586 3.586 0 00-.103-.22 3.213 3.213 0 00-.166-.233c-.13-.164-.213-.353-.174-.582.026-.153-.003-.234-.088-.33a1.007 1.007 0 01-.152-.217c-.166-.33-.157-.43.032-.455.17-.024.2-.068.145-.424-.052-.337-.045-.538.13-.586.092-.025.176-.133.14-.397-.037-.269.078-.754-.074-.817-.197-.082-.218-.421-.328-.622-.002-.004.014-.079.025-.074.03.012.064.062.094.074.038.014.073.005.11.006-.027-.078-.048-.182-.082-.228-.108-.144-.143-.25-.142-.488.002-.282-.018-.656-.264-.863-.037-.031-.085-.225-.09-.326-.004-.07.05-.128.09-.154.044-.028.105 0 .152-.02.044-.018.079-.068.117-.104-.035-.087-.064-.193-.107-.256a1.465 1.465 0 00-.22-.256c-.133-.123-.2-.343-.113-.44.144-.157.029-.29-.063-.457-.05-.09-.1-.192-.135-.299a.492.492 0 01-.006-.2c.031-.058.145-.274.408-.26.116.007.131-.155.127-.196-.034-.089-.318-.013-.357-.05-.1-.094.01-.128-.093-.202-.102-.073-.27-.502-.24-.64.016-.073.085-.09.137-.103.077-.02.186.041.05-.26-.087-.197-.049-.115.01-.356.03-.12.092-.07.048-.208l.083-.072s1.307-.193 1.49-.212c.372-.039.06-.546.06-.546-.105-.682-.022-.97-.03-1.06-.045-.546-.234-.628-.452-.764-.05-.03-.118-.241-.147-.374-.01-.047.06-.155.109-.153.077.004.106-.043.19.002.025.014.049-.102.075-.083-.007-.059.033-.041.015-.076-.057-.107-.1-.028-.156-.136a1.157 1.157 0 01-.114-.311c-.007-.04.064-.1.109-.111.075-.018.114-.224.033-.443-.06-.16-.07-.152-.11-.334-.065-.298-.032-.482.083-.594.135-.132.12-.265-.046-.523-.014-.022-.028-.048-.043-.064-.07-.077-.145-.144-.139-.321.008-.206.154-.353.217-.338.048.01.073-.102.079-.138.034-.228.025-.158-.034-.279-.067-.139-.219-.135-.348-.151-.254-.031-.223-.13-.36-.311-.12-.16-.159-.22-.06-.357.027-.035.188-.066.234-.06.1.012.062-.068.073-.262.003-.052.02-.096.032-.139.1-.324.098-.323-.017-.817-.082-.354-.14-.68-.005-.92.089-.16.024-.682.142-.71.07-.018.074-.22.091-.328.013-.073.025-.101.065-.105.026-.003.055-.079.07-.124.03-.094-.126-.248-.16-.324a4.763 4.763 0 00-.191-.385c-.096-.17-.17-.309-.026-.373.098-.043.07-.253.004-.346-.15-.208-.181-.457-.234-.71-.006-.03-.017-.061-.02-.09C.798 9.44.628 9.304.704 9.16c.04-.076.142-.026.201-.075.11-.091.348-.226.225-.325-.038-.03.007-.214-.023-.257-.084-.127-.116-.228-.207-.309C.743 8.056.814 8.12.7 7.86l-.022-.137c-.044-.143.13-.153.13-.153l1.674-.21s4.416-.472 8.59-.889c0 0 3.195-.315 16.604-1.685 0 0 5.666-.497 12.126-1.371 0 0 5.649-.681 17.292-1.628 0 0 7.946-.821 13.663-1.522 0 0 2.096-.328 3.558.402 0 0 9.323 3.949 12.618 5.207l15.653 6.769c.399.216.138.39.138.39-.026.038-.075.055-.115.077-.073.041-.213.1-.212.115.02.176.026.381.104.508.142.234.065.18.21.412.09.149-.023.512-.117.767-.066.177-.75.411-.668.531.137.198.287.381.415.588a.447.447 0 01.04.286c-.013.065-.102.136-.165.164-.221.099-.23.103-.15.353.03.095.08.176.116.267.08.2-.657.452-.732.7a1.337 1.337 0 00-.048.363c0 .079-.013.186-.032.298a.72.72 0 01.006.073.212.212 0 01-.06.163.683.683 0 01-.118.243c-.002.128-.003.256-.007.385a.241.241 0 01-.139.219c-.024.011-.048.025-.073.027-.13.015-.178.187-.274.266l.042.065c.046.073.055.12.007.157-.111.087-.129.251-.21.36-.109.143-.073.305-.08.462-.003.049-.01.097-.015.145a.227.227 0 01-.115.188c-.094.052-.192.09-.288.137-.068.034-.117.146-.104.242.011.074.028.145.046.214.039.084.08.166.127.242.109.174.14.356-.016.536-.103.12-.098.196-.022.3a.685.685 0 01.114.226c.083.322.027.403-.246.37-.246-.03-.308-.002-.388.311-.076.296-.175.462-.438.451-.14-.006-.303.06-.37.29-.067.235-.027.524.156.621.236.126.115.414.18.614 0 .004-.055.061-.069.054-.036-.019-.06-.07-.096-.088-.046-.023-.1-.026-.15-.038.003.073-.014.166.013.214.086.151.088.25-.02.448-.126.235-.263.552-.014.796.037.037.018.212-.019.298-.025.059-.126.092-.193.102-.073.01-.145-.03-.22-.027-.068.002-.138.034-.208.052.01.083.004.18.036.245.05.105.118.198.19.277.131.141.128.344-.037.399-.268.09-.167.234-.114.4.03.09.054.189.055.288 0 .055-.052.166-.08.169-.213.024-.433.262-.642.063-.032-.03-.097-.01-.146-.012.008.084-.01.203.028.244.097.108.22.18.329.27.11.091.154.498.051.603-.055.057-.158.05-.236.047-.115-.005-.239-.089-.185.202.035.19-.02.39-.238.395-.178.005-.196.2-.196.328 0 .285-.102.456-.304.575-.103.06-.229.115-.028.23.183.106.262.294.22.614-.036.26-.076.587.167.763.056.04.055.235.037.354-.006.043-.152.112-.218.097-.105-.026-.195-.11-.292-.173-.029-.019-.055-.045-.083-.067-.017.05-.057.114-.046.149.03.105.091.193.12.299.025.09.042.2.02.292-.008.036-.133.065-.2.061-.112-.006-.175-.02-.159.185.012.151-.052.322-.077.485-.042.268-.169.412-.376.472-.245.07-.285.185-.169.449.01.023.019.047.032.066.065.084.137.161.05.308-.101.17-.158.025-.239-.005-.06-.023-.19-.01-.2.021-.043.137-.093.306-.065.424.033.135.14.235.224.34.133.167.294.305.404.495.096.168.033.26-.147.254a.754.754 0 01-.187-.03c-.133-.04-.25-.02-.351.138-.028.044-.068.075-.106.107-.281.242-.277.242-.337.687-.042.318-.107.607-.399.768-.194.107-.333.562-.51.551-.105-.006-.2.162-.271.246-.05.058-.079.078-.137.07-.037-.006-.082-.065-.122-.032-.083.07.036.358.05.431.024.131.053.254.094.377.058.17.1.306-.128.318-.155.008-.21.19-.159.287.116.217.05.434.01.66-.004.027-.002.056-.012.08-.051.136.124.3-.044.397-.09.052-.209-.018-.312.005a3.841 3.841 0 00-.575.185c-.024.01-.058.164-.037.21.061.129.135.255.226.35.156.16.254.363.295.613.03.188.01.361-.142.516-.256.26-.179.626-.179.626" mask="url(#b)"/><path fill="#333" d="M40.17 18.126c-1.12-.95-2.615-1.473-4.21-1.473-2.862 0-5.114 1.29-6.012 3.401-.953-2.496-3.243-3.4-5.151-3.4-2.118 0-3.867.915-4.777 2.475l-.49-1.995h-2.877v19.11h3.525V24.489c0-2.815 1.604-4.634 4.086-4.634 2.136 0 3.361 1.312 3.361 3.598v12.793h3.525V24.488c0-2.815 1.604-4.634 4.086-4.634 2.136 0 3.361 1.312 3.361 3.598v12.793h3.525V22.6c0-1.844-.675-3.392-1.952-4.475m27.428 0c-1.12-.95-2.614-1.473-4.21-1.473-2.862 0-5.113 1.29-6.011 3.401-.953-2.496-3.243-3.4-5.151-3.4-2.119 0-3.867.915-4.778 2.475l-.489-1.995h-2.877v19.11h3.525V24.489c0-2.815 1.603-4.634 4.085-4.634 2.136 0 3.362 1.312 3.362 3.598v12.793h3.525V24.488c0-2.815 1.603-4.634 4.085-4.634 2.137 0 3.362 1.312 3.362 3.598v12.793h3.525V22.6c0-1.844-.675-3.392-1.953-4.475m14.235 15.697c-2.92 0-5.876-2.364-5.876-6.884 0-3.967 2.47-6.847 5.876-6.847 3.362 0 5.803 2.88 5.803 6.847 0 4.52-2.92 6.884-5.803 6.884m-.037-17.17c-2.737 0-5.088 1.049-6.8 3.033-1.616 1.873-2.506 4.449-2.506 7.253 0 2.818.89 5.399 2.506 7.267 1.708 1.975 4.06 3.018 6.8 3.018 5.392 0 9.306-4.325 9.306-10.285s-3.914-10.286-9.306-10.286m-72-4.523v24.115h3.918v-25.47zm189.3 20.677c.536-.408 1.078-.815 1.62-1.22 5.003-3.746 10.175-7.619 10.175-13.28 0-4.434-3.292-7.531-8.005-7.531-4.14 0-8.595 2.693-8.595 8.608 0 .285.02.602.05.8l3.375-1.267c0-3.253 2.49-4.955 4.949-4.955 2.39 0 4.8 1.477 4.8 4.776 0 4.272-4.485 7.617-10.693 12.246a420.1 420.1 0 00-2.757 2.068l-.056.042v3.15h17.633v-3.437h-12.496zm-84.28-10.586l-.313-.118c-2.842-1.082-4.854-2.034-4.854-4.44 0-2.37 1.997-3.61 3.968-3.61 1.59 0 3.607.8 4.393 2.549l3.346-1.23-.05-.118c-1.317-3.093-4.791-4.478-7.65-4.478-3.745 0-7.775 2.233-7.775 7.137 0 4.788 3.88 6.28 6.996 7.479l.382.147c3.184 1.242 5.27 2.24 5.27 4.691 0 2.543-2.258 3.68-4.496 3.68-2.212 0-4.854-1.115-5.633-4.247l-.035-.139-3.549 1.273c1.07 3.914 4.598 6.427 9.066 6.427 2.246 0 4.337-.648 5.888-1.824 1.752-1.33 2.679-3.229 2.679-5.491 0-4.81-4.055-6.339-7.634-7.688m42.423 4.718c0 4.556-2.945 6.94-5.854 6.94-2.946 0-5.928-2.384-5.928-6.94 0-4 2.493-6.902 5.928-6.902 3.392 0 5.854 2.903 5.854 6.902m-5.89-10.286c-5.393 0-9.307 4.326-9.307 10.286s3.914 10.285 9.306 10.285c5.392 0 9.306-4.325 9.306-10.285s-3.914-10.286-9.306-10.286m24.528 11.984c0 3.53-2.599 5.433-5.044 5.433-1.86 0-3.849-1.105-3.849-4.206v-12.23h-3.39v12.231c0 5.433 3.538 7.36 6.567 7.36 2.437 0 4.584-1.161 5.698-3.056l.647 2.61h2.761V17.633h-3.39v11.004zm11.452-15.902l-3.134 1.273v4.063h-2.969v3.011h2.969v10.256c0 5.122 2.766 5.886 4.415 5.886.732 0 1.49-.12 2.315-.368l.097-.03V33.55l-.207.141c-.484.327-1.05.523-1.515.523-1.252 0-1.97-.956-1.97-2.621v-10.51h3.692V18.07h-3.693v-5.336z"/><path fill="#333" d="M226.602 26.557v-7.612l-3.543 1.307v6.305h-7.952l9.697-15.781h-3.934l-10.258 16.65v2.55h12.447v6.269h3.543v-6.269h4.582v-3.419zm-87.709 4.257c-1.011 1.875-2.901 3.026-5.025 3.026-2.946 0-5.918-2.146-5.918-6.94 0-3.305 1.78-6.863 5.689-6.863a5.18 5.18 0 014.599 2.74l3.303-1.263-.06-.126c-1.371-2.92-4.377-4.735-7.842-4.735-2.44 0-4.7.907-6.363 2.553-1.876 1.858-2.868 4.532-2.868 7.733 0 7.067 4.825 10.285 9.307 10.285 3.484 0 6.571-1.895 8.26-5.07l.066-.126-.029-.013-3.119-1.2z"/></g></svg>