<?xml version="1.0" encoding="UTF-8" standalone="no"?>
<!-- Created with Inkscape (http://www.inkscape.org/) -->

<svg
   xmlns:dc="http://purl.org/dc/elements/1.1/"
   xmlns:cc="http://creativecommons.org/ns#"
   xmlns:rdf="http://www.w3.org/1999/02/22-rdf-syntax-ns#"
   xmlns:svg="http://www.w3.org/2000/svg"
   xmlns="http://www.w3.org/2000/svg"
   xmlns:sodipodi="http://sodipodi.sourceforge.net/DTD/sodipodi-0.dtd"
   xmlns:inkscape="http://www.inkscape.org/namespaces/inkscape"
   width="150.82001"
   height="27.629999"
   id="svg3369"
   version="1.1"
   inkscape:version="0.48.1 "
   sodipodi:docname="Neues Dokument 3">
  <defs
     id="defs3371" />
  <sodipodi:namedview
     id="base"
     pagecolor="#ffffff"
     bordercolor="#666666"
     borderopacity="1.0"
     inkscape:pageopacity="0.0"
     inkscape:pageshadow="2"
     inkscape:zoom="10.415345"
     inkscape:cx="75.410002"
     inkscape:cy="13.814999"
     inkscape:document-units="px"
     inkscape:current-layer="layer1"
     showgrid="false"
     fit-margin-top="0"
     fit-margin-left="0"
     fit-margin-right="0"
     fit-margin-bottom="0"
     inkscape:window-width="1680"
     inkscape:window-height="960"
     inkscape:window-x="-4"
     inkscape:window-y="-4"
     inkscape:window-maximized="1" />
  <metadata
     id="metadata3374">
    <rdf:RDF>
      <cc:Work
         rdf:about="">
        <dc:format>image/svg+xml</dc:format>
        <dc:type
           rdf:resource="http://purl.org/dc/dcmitype/StillImage" />
        <dc:title></dc:title>
      </cc:Work>
    </rdf:RDF>
  </metadata>
  <g
     inkscape:label="Ebene 1"
     inkscape:groupmode="layer"
     id="layer1"
     transform="translate(-8.0320504,-425.94661)">
    <path
       inkscape:connector-curvature="0"
       d="m 144.88473,426.94636 -79.462491,0 -20.38075,0 -24.011625,0 c -6.615375,0 -11.9972497,5.749 -11.9972497,12.81512 0,7.06638 5.3818747,12.81538 11.9972497,12.81538 l 24.011625,0 20.38075,0 79.462491,0 c 7.14975,0 12.96676,-5.749 12.96676,-12.81538 0,-7.06612 -5.81701,-12.81512 -12.96676,-12.81512"
       style="fill:#231f20;fill-opacity:1;fill-rule:evenodd;stroke:none"
       id="path246" />
    <path
       inkscape:connector-curvature="0"
       d="m 144.88473,427.92011 -74.879616,0 c 4.348,1.92712 7.41475,6.50825 7.41475,11.84137 0,5.33338 -3.06675,9.9145 -7.41475,11.84163 l 74.879616,0 c 6.61288,0 11.993,-5.31213 11.993,-11.84163 0,-6.52925 -5.38012,-11.84137 -11.993,-11.84137"
       style="fill:#f7a919;fill-opacity:1;fill-rule:evenodd;stroke:none"
       id="path248" />
    <path
       inkscape:connector-curvature="0"
       d="m 81.680614,434.24598 1.740875,8.84763 0.04637,0 1.6945,-8.84763 4.123,0 1.62425,8.84763 0.04713,0 1.671625,-8.84763 3.43525,0 -3.184375,12.42488 -3.84725,0 -1.947125,-9.08638 -0.045,0 -1.831125,9.08638 -3.9405,0 -3.205625,-12.42488 3.618,0 z"
       style="fill:#231f20;fill-opacity:1;fill-rule:evenodd;stroke:none"
       id="path250" />
    <path
       inkscape:connector-curvature="0"
       d="m 106.87636,441.42961 -7.030621,0 c 0,1.47825 0.915251,2.83887 2.955871,2.83887 1.23488,0 2.4725,-0.478 3.36513,-0.97862 l 0.0684,2.8385 c -1.16725,0.45287 -2.542,0.71475 -3.77825,0.71475 -4.190751,0 -6.045626,-2.64688 -6.045626,-6.43825 0,-3.33988 1.877625,-6.36875 5.289496,-6.36875 1.07638,0 5.17563,0 5.17563,6.4875 l 0,0.906 z m -3.29812,-2.05125 c 0,-1.57313 -0.38788,-3.0515 -1.8775,-3.0515 -1.855001,0 -1.855001,2.38437 -1.855001,3.0515 l 3.732501,0 z"
       style="fill:#231f20;fill-opacity:1;fill-rule:evenodd;stroke:none"
       id="path252" />
    <path
       inkscape:connector-curvature="0"
       d="m 113.31536,434.24623 2.05962,0 0,-2.5515 3.52813,-1.16862 0,3.72012 2.33575,0 0,2.64725 -2.33575,0 0,5.70088 c 0,1.215 0.52587,1.54875 1.21362,1.54875 0.5035,0 0.82375,-0.095 1.19125,-0.26225 l 0,2.64687 c -0.3675,0.1435 -1.35212,0.33375 -2.52075,0.33375 -1.87762,0 -3.50287,-0.95387 -3.50287,-3.6715 l 0,-6.2965 -1.969,0 0,-2.64725 z"
       style="fill:#231f20;fill-opacity:1;fill-rule:evenodd;stroke:none"
       id="path254" />
    <path
       inkscape:connector-curvature="0"
       d="m 137.53873,443.87598 c 0,1.57388 0.045,2.21838 0.09,2.79025 l -3.4345,0 c -0.0464,-0.47762 -0.0921,-1.12037 -0.0921,-1.9785 l -0.0446,0 c -0.36775,0.76213 -1.169,2.16888 -3.25275,2.16888 -2.67875,0 -4.19075,-2.74263 -4.19075,-6.7005 0,-3.33913 1.19163,-6.1065 4.19075,-6.1065 1.67175,0 2.63413,0.90712 3.0685,2.02787 l 0.0454,0 -7.5e-4,-5.69625 3.6035,7.5e-4 0.0174,13.494 z m -5.42862,0.26213 c 1.48925,0 1.8085,-2.24113 1.8085,-3.6715 0,-1.98038 -0.34238,-3.83988 -1.8085,-3.83988 -1.60375,0 -1.7405,1.8595 -1.7405,3.83988 0,1.2865 0.0917,3.6715 1.7405,3.6715"
       style="fill:#231f20;fill-opacity:1;fill-rule:evenodd;stroke:none"
       id="path256" />
    <path
       inkscape:connector-curvature="0"
       d="m 149.60198,441.42961 -7.03025,0 c 0,1.47825 0.91513,2.83887 2.95438,2.83887 1.23625,0 2.4725,-0.478 3.365,-0.97862 l 0.0695,2.8385 c -1.16713,0.45287 -2.54238,0.71475 -3.77863,0.71475 -4.19137,0 -6.047,-2.64688 -6.047,-6.43825 0,-3.33988 1.87938,-6.36875 5.29163,-6.36875 1.075,0 5.17537,0 5.17537,6.4875 l 0,0.906 z m -3.29925,-2.05125 c 0,-1.57313 -0.38862,-3.0515 -1.87612,-3.0515 -1.85488,0 -1.85488,2.38437 -1.85488,3.0515 l 3.731,0 z"
       style="fill:#231f20;fill-opacity:1;fill-rule:evenodd;stroke:none"
       id="path258" />
    <path
       inkscape:connector-curvature="0"
       d="m 125.64136,446.66273 -2.64013,0 0,-2.8105 2.64013,0 0,2.8105 z"
       style="fill:#231f20;fill-opacity:1;fill-rule:evenodd;stroke:none"
       id="path260" />
    <path
       inkscape:connector-curvature="0"
       d="m 112.14173,446.66873 -3.60987,0 0,-16.2875 3.60987,0 0,16.2875 z"
       style="fill:#231f20;fill-opacity:1;fill-rule:evenodd;stroke:none"
       id="path262" />
    <path
       inkscape:connector-curvature="0"
       d="m 38.878614,446.67511 3.56525,0 0,-8.107 c 0,-2.47288 -0.85825,-4.47 -3.453375,-4.47 -1.872625,0 -2.706625,0.90287 -3.22575,2.06787 -0.4965,-1.23625 -1.353625,-2.06787 -3.04625,-2.06787 -1.872625,0 -2.77575,0.90287 -3.3175,2.25825 l -0.04537,0 c 0,-0.83163 -0.044,-1.52113 -0.08938,-2.06788 l -3.2495,0 c 0.068,0.64125 0.09038,1.402 0.09038,2.5905 l 0,9.79613 3.56525,0 0,-6.94238 c 0,-1.56962 0.40575,-2.63937 1.579625,-2.63937 0.58675,0 1.2405,0.3805 1.2405,1.95025 l 0,7.6315 3.564875,0 0,-7.84625 c 0,-0.92725 0.406125,-1.7355 1.468,-1.7355 0.789125,0 1.35325,0.52262 1.35325,1.95025 l 0,7.6315 z"
       style="fill:#ffffff;fill-opacity:1;fill-rule:evenodd;stroke:none"
       id="path264" />
    <path
       inkscape:connector-curvature="0"
       d="m 57.698864,446.67511 3.564875,0 0,-8.107 c 0,-2.47288 -0.858125,-4.47 -3.451875,-4.47 -1.87225,0 -2.708125,0.90287 -3.22725,2.06787 -0.496375,-1.23625 -1.353125,-2.06787 -3.046125,-2.06787 -1.872625,0 -2.775875,0.90287 -3.317625,2.25825 l -0.044,0 c 0,-0.83163 -0.04525,-1.52113 -0.09025,-2.06788 l -3.25,0 c 0.06812,0.64125 0.09075,1.402 0.09075,2.5905 l 0,9.79613 3.564875,0 0,-6.94238 c 0,-1.56962 0.40575,-2.63937 1.579625,-2.63937 0.587125,0 1.2405,0.3805 1.2405,1.95025 l 0,7.6315 3.565,0 0,-7.84625 c 0,-0.92725 0.407375,-1.7355 1.467625,-1.7355 0.789375,0 1.353875,0.52262 1.353875,1.95025 l 0,7.6315 z"
       style="fill:#ffffff;fill-opacity:1;fill-rule:evenodd;stroke:none"
       id="path266" />
    <path
       inkscape:connector-curvature="0"
       d="m 63.384489,440.46023 c 0,-2.37687 0.42875,-4.0415 1.285125,-4.99112 0.856375,-0.94963 2.16175,-1.42513 3.91575,-1.42513 0.84225,0 1.53425,0.1045 2.0745,0.31213 0.541875,0.20762 0.98225,0.47762 1.3245,0.81 0.342,0.3335 0.6105,0.6825 0.806875,1.04912 0.19625,0.36675 0.35425,0.79625 0.474375,1.2845 0.23325,0.93263 0.350125,1.90525 0.350125,2.91788 0,2.27025 -0.38475,3.931 -1.154,4.98412 -0.7675,1.05125 -2.091625,1.57775 -3.970625,1.57775 -1.05275,0 -1.904625,-0.16725 -2.553375,-0.50425 -0.64875,-0.33475 -1.181,-0.828 -1.597,-1.47537 -0.301125,-0.461 -0.53675,-1.09025 -0.704375,-1.89 -0.168,-0.79863 -0.251875,-1.682 -0.251875,-2.64963 z m 3.44975,0.006 c 0,1.59313 0.141,2.6805 0.421625,3.26488 0.282,0.5825 0.690625,0.87412 1.225625,0.87412 0.352875,0 0.65875,-0.124 0.918125,-0.37137 0.259,-0.248 0.45,-0.63925 0.5725,-1.17388 0.12225,-0.53325 0.183625,-1.36812 0.183625,-2.4995 0,-1.66075 -0.141,-2.77687 -0.423125,-3.34912 -0.282375,-0.57113 -0.704,-0.85738 -1.268125,-0.85738 -0.575125,0 -0.990375,0.2915 -1.2465,0.87413 -0.25625,0.5835 -0.38375,1.6625 -0.38375,3.23812"
       style="fill:#ffffff;fill-opacity:1;fill-rule:evenodd;stroke:none"
       id="path268" />
    <path
       inkscape:connector-curvature="0"
       d="m 19.852114,446.68148 3.56525,0 0,-12.38625 -3.56525,0 0,12.38625 z"
       style="fill:#ffffff;fill-opacity:1;fill-rule:evenodd;stroke:none"
       id="path270" />
    <path
       inkscape:connector-curvature="0"
       d="m 19.844989,430.02473 0.0075,2.51188 3.56525,0 0.005,-2.51188 -3.577,0 z"
       style="fill:#ffffff;fill-opacity:1;fill-rule:evenodd;stroke:none"
       id="path272" />
  </g>
</svg>
