<?xml version="1.0" encoding="utf-8"?>
<!-- Generator: Adobe Illustrator 25.4.1, SVG Export Plug-In . SVG Version: 6.00 Build 0)  -->
<svg version="1.1" id="Layer_1" xmlns="http://www.w3.org/2000/svg" xmlns:xlink="http://www.w3.org/1999/xlink" x="0px" y="0px"
	 viewBox="0 0 1486.1 400" style="enable-background:new 0 0 1486.1 400;" xml:space="preserve">
<style type="text/css">
	.st0{fill-rule:evenodd;clip-rule:evenodd;fill:#003A9B;}
</style>
<g>
	<g>
		<path class="st0" d="M1472.2,71.4c-5.2-5.9-12.2-8.8-21.5-8.8s-16.6,3.1-21.7,9.6c-5,6.3-7.6,15.7-7.6,27.8v88.8
			c-11.6-12.5-23.6-21.4-35.9-27.4c-7.6-3.7-16.6-6.4-26.7-7.7c-5.9-0.7-11.8-1.1-18.4-1.1c-30.6,0-55.4,10.5-74.4,31.7
			c-18.8,21-28.2,50.3-28.2,87.8c0,17.7,2.4,34.3,7.2,49.5c4.8,15.1,11.6,28.4,20.8,39.8c9.2,11.2,20.3,19.9,32.8,26.2
			c12.5,6.1,26.2,9.2,41.1,9.2c6.8,0,13.3-0.6,19.2-1.7c4.1-0.6,7.7-1.7,11.6-2.8c9.4-3.1,18.2-7.6,26.2-13.3
			c8.3-5.9,16.4-13.4,24.7-22.7v5.9c0,11.1,2.8,19.5,8.3,25.6c5.7,5.9,12.7,9,21,9c8.7,0,15.7-2.9,21-8.5c5.3-5.9,8.3-14.4,8.3-26
			V96.8C1479.7,85.8,1477.2,77.1,1472.2,71.4z M1409.9,316.5c-5.3,11.2-12.7,19.7-21.4,25.2c-9,5.5-18.8,8.1-29.7,8.1h-0.2
			c-10.9,0-20.6-2.9-29.7-8.5c-9-5.9-16.2-14.4-21.4-25.8c-5.2-11.4-7.7-25.4-7.7-41.6c0-15.5,2.4-29.1,7.4-40.5
			c4.8-11.6,11.8-20.6,20.6-26.9c9-6.4,19-9.4,30.4-9.4h0.6c10.7,0,20.4,3.1,29.5,9.2c9,6.1,16.2,14.9,21.5,26.3
			c5.3,11.4,7.9,25.4,7.9,41.3C1417.9,290.9,1415.3,305.1,1409.9,316.5z M1215.5,319.1c-3.9-3.3-9-5-15.5-5
			c-5.9,0-10.1,1.5-13.4,3.9c-7.7,7-14,12.7-18.8,16.8c-4.8,3.9-10.1,7.7-16,11.4c-5.5,3.5-11.6,6.3-17.7,7.7
			c-6.3,1.7-12.9,2.6-20.3,2.6c-1.7,0-3.1,0-4.6-0.2c-9.2-0.6-17.9-3.1-25.6-7.7c-9.2-5.3-16.4-13.1-22.1-23.2
			c-5.3-10.5-8.3-22.7-8.5-36.3h121c16.2,0,28.7-2.4,37.6-6.6c9-4.6,13.4-14.4,13.4-29.5c0-16.4-4.4-32.4-13.1-48.1
			c-8.7-15.7-21.4-28.5-38.9-38.3c-17.3-9.9-37.9-14.7-62.1-14.7h-1.8c-17.9,0.2-34.3,3.1-48.8,8.7c-15.3,5.9-28,14.2-38.7,24.9
			c-10.1,10.9-18.2,23.9-23.6,39.2s-8.3,31.9-8.3,49.5c0,37.8,11.1,67.4,33,89.5c20.8,20.8,49.5,31.9,86.2,33c2,0.2,4.2,0.2,6.4,0.2
			c17.1,0,32.6-2.2,46-6.6c13.4-4.4,24.5-9.9,33.3-16.6c8.8-6.8,15.5-13.8,19.7-21c4.4-7.2,6.6-13.6,6.6-19
			C1221.5,327.2,1219.5,322.3,1215.5,319.1z M1071.4,209c9.8-10.3,22.5-15.5,37.9-15.5h0.2c16,0,29.1,5,38.9,15.1
			c9.8,10.1,15.7,25.6,16.9,46.2h-112C1055.4,234.6,1061.3,219.3,1071.4,209z M952.7,314c-6.1,0-10.3,1.5-13.6,3.9
			c-7.6,7-14,12.7-18.8,16.8c-4.8,3.9-9.9,7.7-15.8,11.4c-5.7,3.5-11.6,6.3-17.9,7.7c-6.1,1.7-12.9,2.6-20.3,2.6
			c-1.7,0-3.1,0-4.6-0.2c-9.2-0.6-17.9-3.1-25.6-7.7c-9-5.3-16.4-13.1-21.7-23.2c-5.7-10.5-8.5-22.7-8.7-36.3h120.8
			c16,0,28.5-2.4,37.6-6.6c8.8-4.6,13.3-14.4,13.3-29.5c0-16.4-4.2-32.4-12.9-48.1s-21.5-28.5-38.9-38.3
			c-17.3-9.9-38.1-14.7-62.1-14.7h-2c-17.9,0.2-34.1,3.1-48.8,8.7c-15.3,5.9-28,14.2-38.5,24.9c-10.3,10.9-18.4,23.9-23.8,39.2
			c-5.5,15.3-8.3,31.9-8.3,49.5c0,37.8,11.2,67.4,33.2,89.5c20.8,20.8,49.4,31.9,86,33c2.2,0.2,4.2,0.2,6.4,0.2
			c17.3,0,32.6-2.2,46-6.6c13.4-4.4,24.5-9.9,33.2-16.6c9-6.8,15.5-13.8,19.9-21c4.4-7.2,6.6-13.6,6.6-19c0-6.1-2-10.9-5.9-14.2
			C964.1,315.6,958.7,314,952.7,314z M823.7,209c9.8-10.3,22.5-15.5,37.9-15.5h0.2c16,0,29.1,5,38.9,15.1
			c9.9,10.1,15.7,25.6,17.1,46.2H805.7C807.9,234.6,814,219.3,823.7,209z M134.9,356.5V213c4.2,0.4,8.3,0.6,12.3,0.6
			c20.1,0,38.9-5.3,54.9-14.5v157.5c0,13.4-3.1,23.4-9.4,30c-6.3,6.6-14.4,9.9-24.5,9.9c-9.8,0-17.7-3.3-23.9-10.1
			C138.3,379.5,134.9,369.8,134.9,356.5z M716.6,71.4c-5.2-5.9-12.3-8.8-21.4-8.8c-9.4,0-16.6,3.1-21.7,9.6
			c-5.2,6.3-7.6,15.7-7.6,27.8v88.8c-11.6-12.5-23.6-21.4-35.9-27.4c-7.7-3.7-16.6-6.4-26.5-7.7c-5.7-0.7-11.8-1.1-18.4-1.1
			c-30.6,0-55.6,10.5-74.4,31.7c-18.8,21-28.2,50.3-28.2,87.8c0,17.7,2.4,34.3,7,49.5c4.8,15.1,11.8,28.4,21,39.8
			c9.2,11.2,20.3,19.9,32.8,26.2c12.7,6.1,26.2,9.2,41.1,9.2c6.6,0,13.1-0.6,19.2-1.7c4.1-0.6,7.7-1.7,11.6-2.8
			c9.4-3.1,18.2-7.6,26.2-13.3c8.3-5.9,16.2-13.4,24.7-22.7v5.9c0,11.1,2.8,19.5,8.3,25.6c5.3,5.9,12.7,9,21,9s15.5-2.9,20.8-8.5
			c5.3-5.9,7.9-14.4,7.9-26V96.8C723.9,85.8,721.5,77.1,716.6,71.4z M654.5,316.5c-5.3,11.2-12.7,19.7-21.5,25.2
			c-8.8,5.5-18.8,8.1-29.5,8.1h-0.2c-10.9,0-20.6-2.9-29.7-8.5c-9.2-5.9-16.2-14.4-21.4-25.8c-5.2-11.4-7.7-25.4-7.7-41.6
			c0-15.5,2.4-29.1,7.2-40.5c5-11.6,11.8-20.6,20.8-26.9c8.8-6.4,19-9.4,30.2-9.4h0.7c10.7,0,20.4,3.1,29.3,9.2
			c9.2,6.1,16.4,14.9,21.7,26.3c5.2,11.4,7.9,25.4,7.9,41.3C662.4,290.9,659.6,305.1,654.5,316.5z M300.9,185.2v7.4
			c11.1-14,22.8-24.1,35.5-30.8c13.1-6.4,27.8-9.8,44.6-9.8c16.2,0,30.8,3.5,43.6,10.3c12.9,6.8,22.3,16.6,28.5,29.3
			c4.2,7.4,6.8,15.5,7.9,23.9c1.1,8.3,1.8,19.3,1.8,32.6v111.6c0,12.2-2.9,21.2-8.7,27.3c-5.5,6.3-13.1,9.4-22.1,9.4
			c-9.2,0-16.6-3.1-22.5-9.6c-5.9-6.3-8.7-15.3-8.7-27.1v-100c0-19.9-2.8-35-8.5-45.5c-5.5-10.5-16.9-15.8-33.9-15.8
			c-11.1,0-21,3.3-30,9.6c-9,6.4-15.8,15.1-20.1,26.5c-2.9,9-4.4,25.6-4.4,50.3v75c0,12.3-2.9,21.2-8.8,27.4
			c-5.9,6.1-13.3,9.2-22.5,9.2c-9,0-16.2-3.1-22.1-9.6c-5.9-6.3-8.7-15.3-8.7-27.1V186.2c0-11.4,2.6-20.1,7.7-25.6
			c5-5.7,12-8.7,21-8.7c5.3,0,10.1,1.1,14.5,3.7s7.9,6.3,10.7,11.2C299.8,172.2,300.9,178.2,300.9,185.2z M135.3,12.7
			C176.9-1.9,224.5-1.1,260,28.9c6.6,6.1,14.2,13.6,17.1,22.7c3.7,11.2-12.5-1.1-14.9-2.8c-11.6-7.4-23.2-13.6-36.3-17.9
			c-70-21-136.3,16.9-177.5,76.1c-16.9,26-28.2,53.4-37.4,83.6c-0.9,3.3-1.8,7.6-3.7,10.5c-1.8,3.3-0.7-8.8-0.7-9.4
			c1.5-12.5,4.1-24.5,7.2-36.6C32.9,90.9,74.9,37.3,135.3,12.7z M216,128.3c0,27.3-22.1,49.5-49.4,49.5s-49.4-22.1-49.4-49.5
			s22.1-49.5,49.4-49.5S216,100.9,216,128.3z"/>
	</g>
</g>
</svg>
