<?xml version="1.0" encoding="UTF-8"?>
<!DOCTYPE svg PUBLIC "-//W3C//DTD SVG 1.1//EN" "http://www.w3.org/Graphics/SVG/1.1/DTD/svg11.dtd">
<svg xmlns="http://www.w3.org/2000/svg" version="1.1" width="1245px" height="156px" style="shape-rendering:geometricPrecision; text-rendering:geometricPrecision; image-rendering:optimizeQuality; fill-rule:evenodd; clip-rule:evenodd" xmlns:xlink="http://www.w3.org/1999/xlink">
<g><path style="opacity:1" fill="#f5f5f5" d="M 206.5,-0.5 C 214.833,-0.5 223.167,-0.5 231.5,-0.5C 233.167,0.166667 234.833,0.833333 236.5,1.5C 238.515,2.92381 240.848,3.59047 243.5,3.5C 250.128,6.81395 256.795,10.1473 263.5,13.5C 264.262,15.2624 265.596,16.2624 267.5,16.5C 271.167,20.8333 275.167,24.8333 279.5,28.5C 279.738,30.4044 280.738,31.7377 282.5,32.5C 283.669,35.5113 285.336,38.178 287.5,40.5C 287.66,42.153 288.326,43.4863 289.5,44.5C 291.529,50.9173 293.529,57.2506 295.5,63.5C 295.9,69.829 296.233,76.1624 296.5,82.5C 295.399,88.018 294.399,93.6847 293.5,99.5C 293.737,100.791 293.404,101.791 292.5,102.5C 289.93,107.311 287.597,112.311 285.5,117.5C 283.674,119.147 282.34,121.147 281.5,123.5C 279.413,124.585 278.08,126.251 277.5,128.5C 272.126,133.177 266.793,137.843 261.5,142.5C 259.326,142.75 257.659,143.75 256.5,145.5C 254.181,145.992 252.181,146.992 250.5,148.5C 243.453,150.675 236.453,152.675 229.5,154.5C 220.476,154.642 211.476,154.308 202.5,153.5C 198.383,151.796 194.049,150.463 189.5,149.5C 173.752,142.088 161.085,131.088 151.5,116.5C 141.776,97.8199 139.11,78.1533 143.5,57.5C 145.072,54.7846 146.072,51.7846 146.5,48.5C 149.008,44.8178 151.008,40.8178 152.5,36.5C 153.906,36.0269 154.573,35.0269 154.5,33.5C 162.617,23.7116 171.95,15.3783 182.5,8.5C 183.514,7.32627 184.847,6.6596 186.5,6.5C 190.383,5.54118 194.05,4.20784 197.5,2.5C 200.727,2.32385 203.727,1.65719 206.5,0.5C 206.5,0.166667 206.5,-0.166667 206.5,-0.5 Z M 214.5,22.5 C 217.5,22.5 220.5,22.5 223.5,22.5C 238.354,24.9277 251.02,31.5943 261.5,42.5C 261.738,44.4044 262.738,45.7377 264.5,46.5C 265.079,49.3311 266.412,51.6644 268.5,53.5C 268.328,54.4916 268.662,55.1583 269.5,55.5C 269.928,58.7846 270.928,61.7846 272.5,64.5C 274.029,74.5685 273.695,84.5685 271.5,94.5C 269.597,97.9789 267.93,101.646 266.5,105.5C 264.674,107.147 263.34,109.147 262.5,111.5C 257.059,117.283 251.059,122.283 244.5,126.5C 242.847,126.66 241.514,127.326 240.5,128.5C 235.354,129.701 230.354,131.035 225.5,132.5C 219.143,132.524 212.81,132.19 206.5,131.5C 205.432,130.566 204.099,130.232 202.5,130.5C 198.355,128.264 194.022,126.264 189.5,124.5C 186.792,121.791 183.792,119.458 180.5,117.5C 180.5,116.833 180.167,116.5 179.5,116.5C 176.497,112.491 173.497,108.491 170.5,104.5C 170.34,102.847 169.674,101.514 168.5,100.5C 168.598,98.4471 167.931,96.7804 166.5,95.5C 160.36,70.9266 166.693,50.2599 185.5,33.5C 187.853,32.6597 189.853,31.3264 191.5,29.5C 193.153,29.3404 194.486,28.6737 195.5,27.5C 198.443,27.0198 201.11,26.0198 203.5,24.5C 207.36,24.1916 211.026,23.5249 214.5,22.5 Z"/></g>
<g><path style="opacity:1" fill="#f4f4f4" d="M 991.5,-0.5 C 999.833,-0.5 1008.17,-0.5 1016.5,-0.5C 1019.53,0.37448 1022.53,1.37448 1025.5,2.5C 1027.21,3.73838 1029.21,4.40505 1031.5,4.5C 1033.43,6.29268 1035.76,7.29268 1038.5,7.5C 1039.49,7.32842 1040.16,7.66175 1040.5,8.5C 1044.32,11.4702 1048.32,14.3036 1052.5,17C 1056.7,21.3702 1061.04,25.5368 1065.5,29.5C 1065.74,31.4044 1066.74,32.7377 1068.5,33.5C 1070.92,38.6665 1073.58,43.6665 1076.5,48.5C 1080.56,60.8347 1082.22,73.5013 1081.5,86.5C 1080.04,92.0161 1078.71,97.6828 1077.5,103.5C 1076.07,104.78 1075.4,106.447 1075.5,108.5C 1071.84,114.492 1068.17,120.492 1064.5,126.5C 1055.55,136.126 1045.22,143.792 1033.5,149.5C 1028.95,150.463 1024.62,151.796 1020.5,153.5C 1011.52,154.308 1002.52,154.642 993.5,154.5C 990.411,153.215 987.078,152.549 983.5,152.5C 980.05,150.792 976.383,149.459 972.5,148.5C 970.819,146.992 968.819,145.992 966.5,145.5C 965.341,143.75 963.674,142.75 961.5,142.5C 959.2,140.016 956.533,138.016 953.5,136.5C 951.167,133.5 948.5,130.833 945.5,128.5C 940.077,121.325 935.41,113.658 931.5,105.5C 931.405,103.214 930.738,101.214 929.5,99.5C 927.679,90.2615 926.679,80.9281 926.5,71.5C 926.194,68.6146 926.527,65.9479 927.5,63.5C 929.608,56.5106 931.941,49.5106 934.5,42.5C 936.588,40.6644 937.921,38.3311 938.5,35.5C 949.252,21.0793 962.919,10.4126 979.5,3.5C 982.152,3.59047 984.485,2.92381 986.5,1.5C 988.167,0.833333 989.833,0.166667 991.5,-0.5 Z M 1008.5,22.5 C 1011.97,23.5249 1015.64,24.1916 1019.5,24.5C 1020.21,25.404 1021.21,25.7373 1022.5,25.5C 1023.78,26.9313 1025.45,27.5979 1027.5,27.5C 1027.84,28.3382 1028.51,28.6716 1029.5,28.5C 1031.82,30.664 1034.49,32.3307 1037.5,33.5C 1041.86,38.1927 1046.19,42.8594 1050.5,47.5C 1053.77,54.0189 1056.43,60.6855 1058.5,67.5C 1059.32,77.7656 1058.16,87.7656 1055,97.5C 1052.81,101.886 1050.64,106.22 1048.5,110.5C 1039.75,120.534 1029.08,127.534 1016.5,131.5C 1010.19,132.19 1003.86,132.524 997.5,132.5C 992.646,131.035 987.646,129.701 982.5,128.5C 982.158,127.662 981.492,127.328 980.5,127.5C 973.143,123.139 966.476,117.806 960.5,111.5C 957.227,105.952 954.227,100.286 951.5,94.5C 949.88,86.2576 949.214,77.9243 949.5,69.5C 950.998,64.9907 952.332,60.324 953.5,55.5C 958.035,47.9555 963.368,40.9555 969.5,34.5C 971.853,33.6597 973.853,32.3264 975.5,30.5C 975.833,30.5 976.167,30.5 976.5,30.5C 981.74,27.7607 987.073,25.4274 992.5,23.5C 997.822,23.0199 1003.16,22.6865 1008.5,22.5 Z"/></g>
<g><path style="opacity:0.539" fill="#221e1f" d="M -0.5,-0.5 C -0.166667,-0.5 0.166667,-0.5 0.5,-0.5C 3.23941,2.23273 5.57275,5.23273 7.5,8.5C 5.20337,6.70587 3.0367,4.70587 1,2.5C 0.500008,52.1655 0.333341,101.832 0.5,151.5C 0.166667,151.5 -0.166667,151.5 -0.5,151.5C -0.5,100.833 -0.5,50.1667 -0.5,-0.5 Z"/></g>
<g><path style="opacity:0.244" fill="#211d20" d="M 1110.5,-0.5 C 1110.83,-0.5 1111.17,-0.5 1111.5,-0.5C 1112.92,0.922032 1113.92,2.5887 1114.5,4.5C 1113.54,4.0472 1112.71,3.38053 1112,2.5C 1111.5,52.1655 1111.33,101.832 1111.5,151.5C 1118.83,151.5 1126.17,151.5 1133.5,151.5C 1133.33,124.165 1133.5,96.8313 1134,69.5C 1135.04,70.2438 1135.54,71.2438 1135.5,72.5C 1134.5,98.9948 1134.17,125.661 1134.5,152.5C 1126.5,152.5 1118.5,152.5 1110.5,152.5C 1110.5,101.5 1110.5,50.5 1110.5,-0.5 Z"/></g>
<g><path style="opacity:0.925" fill="#1e1b1b" d="M 206.5,0.5 C 203.727,1.65719 200.727,2.32385 197.5,2.5C 200.171,0.881947 203.171,0.21528 206.5,0.5 Z"/></g>
<g><path style="opacity:0.4" fill="#211d1e" d="M 630.5,1.5 C 624.804,1.44701 619.138,1.78034 613.5,2.5C 616.718,1.0458 620.218,0.379138 624,0.5C 626.361,0.503931 628.527,0.837264 630.5,1.5 Z"/></g>
<g><path style="opacity:1" fill="#f5f5f5" d="M 630.5,1.5 C 632.905,2.7682 635.572,3.43487 638.5,3.5C 644.094,6.42989 649.428,9.76323 654.5,13.5C 655.5,13.8333 656.167,14.5 656.5,15.5C 656.539,16.5832 656.873,17.5832 657.5,18.5C 655.812,19.5213 654.479,20.8546 653.5,22.5C 651.973,22.427 650.973,23.0937 650.5,24.5C 648.973,24.427 647.973,25.0937 647.5,26.5C 645.534,27.4412 643.534,28.4412 641.5,29.5C 639.736,27.7224 637.736,26.3891 635.5,25.5C 632.749,23.0255 629.416,22.0255 625.5,22.5C 624.833,22.5 624.167,22.5 623.5,22.5C 619.869,22.1604 616.536,22.9937 613.5,25C 612.177,25.8159 611.511,26.9826 611.5,28.5C 609.896,29.287 609.229,30.6203 609.5,32.5C 608.357,35.9758 608.19,39.6425 609,43.5C 609.424,46.0254 610.59,48.0254 612.5,49.5C 615.167,54.1667 618.833,57.8333 623.5,60.5C 625.569,63.5725 628.236,65.9059 631.5,67.5C 633.569,70.5725 636.236,72.9059 639.5,74.5C 645.946,80.6043 651.613,87.271 656.5,94.5C 657.338,94.8417 657.672,95.5084 657.5,96.5C 657.98,99.4432 658.98,102.11 660.5,104.5C 662.269,114.144 661.269,123.478 657.5,132.5C 655.674,134.147 654.34,136.147 653.5,138.5C 651.167,140.167 649.167,142.167 647.5,144.5C 645.147,145.34 643.147,146.674 641.5,148.5C 641.158,149.338 640.492,149.672 639.5,149.5C 636.557,149.98 633.89,150.98 631.5,152.5C 626.245,154.524 620.911,154.857 615.5,153.5C 612.727,152.343 609.727,151.676 606.5,151.5C 603.485,149.326 600.151,147.659 596.5,146.5C 595.738,144.738 594.404,143.738 592.5,143.5C 591.167,141.5 589.5,139.833 587.5,138.5C 587.262,136.596 586.262,135.262 584.5,134.5C 583.921,131.669 582.588,129.336 580.5,127.5C 580.433,126.041 580.766,124.708 581.5,123.5C 582.514,122.326 583.847,121.66 585.5,121.5C 589.697,120.404 593.697,118.738 597.5,116.5C 599.841,119.198 602.174,121.865 604.5,124.5C 605.5,124.833 606.167,125.5 606.5,126.5C 609.681,130.792 614.015,132.792 619.5,132.5C 629.913,134.194 636.746,129.861 640,119.5C 640.81,115.642 640.643,111.976 639.5,108.5C 639.834,105.509 638.834,103.176 636.5,101.5C 635.92,99.2512 634.587,97.5846 632.5,96.5C 631.167,95.8333 630.167,94.8333 629.5,93.5C 627.431,90.4275 624.764,88.0941 621.5,86.5C 619.431,83.4275 616.764,81.0941 613.5,79.5C 611.431,76.4275 608.764,74.0941 605.5,72.5C 603.5,69.8333 601.167,67.5 598.5,65.5C 597.92,63.2512 596.587,61.5846 594.5,60.5C 587.642,49.4035 585.642,37.4035 588.5,24.5C 593.712,13.6213 602.045,6.28795 613.5,2.5C 619.138,1.78034 624.804,1.44701 630.5,1.5 Z"/></g>
<g><path style="opacity:1" fill="#f6f6f6" d="M 7.5,8.5 C 8.16667,8.5 8.5,8.83333 8.5,9.5C 10.7657,13.4356 13.7657,16.7689 17.5,19.5C 18.1667,19.5 18.5,19.8333 18.5,20.5C 20.7657,24.4356 23.7657,27.7689 27.5,30.5C 28.1667,30.5 28.5,30.8333 28.5,31.5C 30.7657,35.4356 33.7657,38.7689 37.5,41.5C 38.1667,41.5 38.5,41.8333 38.5,42.5C 40.7657,46.4356 43.7657,49.7689 47.5,52.5C 48.1667,52.5 48.5,52.8333 48.5,53.5C 50.7657,57.4356 53.7657,60.7689 57.5,63.5C 58.1667,63.5 58.5,63.8333 58.5,64.5C 60.7657,68.4356 63.7657,71.7689 67.5,74.5C 68.1667,74.5 68.5,74.8333 68.5,75.5C 71.1009,79.7706 74.4342,83.4372 78.5,86.5C 81.3958,90.9046 84.8958,94.9046 89,98.5C 89.5,66.8351 89.6666,35.1684 89.5,3.5C 96.5,3.5 103.5,3.5 110.5,3.5C 110.667,53.5011 110.5,103.501 110,153.5C 109.617,152.944 109.117,152.611 108.5,152.5C 105.899,148.229 102.566,144.563 98.5,141.5C 97.8333,141.5 97.5,141.167 97.5,140.5C 94.8991,136.229 91.5658,132.563 87.5,129.5C 84.5643,124.895 80.8976,120.895 76.5,117.5C 73.8991,113.229 70.5658,109.563 66.5,106.5C 65.8333,106.5 65.5,106.167 65.5,105.5C 62.8991,101.229 59.5658,97.5628 55.5,94.5C 54.8333,94.5 54.5,94.1667 54.5,93.5C 51.8991,89.2294 48.5658,85.5628 44.5,82.5C 41.5643,77.8947 37.8976,73.8947 33.5,70.5C 30.6042,66.0954 27.1042,62.0954 23,58.5C 22.5,89.4982 22.3334,120.498 22.5,151.5C 15.1667,151.5 7.83333,151.5 0.5,151.5C 0.333341,101.832 0.500008,52.1655 1,2.5C 3.0367,4.70587 5.20337,6.70587 7.5,8.5 Z"/></g>
<g><path style="opacity:0.653" fill="#221e1f" d="M 236.5,1.5 C 239.152,1.40953 241.485,2.07619 243.5,3.5C 240.848,3.59047 238.515,2.92381 236.5,1.5 Z"/></g>
<g><path style="opacity:0.902" fill="#221e20" d="M 630.5,1.5 C 633.495,1.29379 636.162,1.96046 638.5,3.5C 635.572,3.43487 632.905,2.7682 630.5,1.5 Z"/></g>
<g><path style="opacity:0.055" fill="#232122" d="M 863.5,3.5 C 844.167,3.5 824.833,3.5 805.5,3.5C 805.5,52.5 805.5,101.5 805.5,150.5C 812.833,150.5 820.167,150.5 827.5,150.5C 827.5,133.167 827.5,115.833 827.5,98.5C 835.174,98.3336 842.841,98.5003 850.5,99C 851.252,99.6708 851.586,100.504 851.5,101.5C 850.711,101.217 850.044,100.717 849.5,100C 842.508,99.5004 835.508,99.3337 828.5,99.5C 828.5,116.833 828.5,134.167 828.5,151.5C 820.5,151.5 812.5,151.5 804.5,151.5C 804.5,101.833 804.5,52.1667 804.5,2.5C 824.34,2.1696 844.007,2.50293 863.5,3.5 Z"/></g>
<g><path style="opacity:0.988" fill="#221d20" d="M 986.5,1.5 C 984.485,2.92381 982.152,3.59047 979.5,3.5C 981.515,2.07619 983.848,1.40953 986.5,1.5 Z"/></g>
<g><path style="opacity:0.727" fill="#1e1b1c" d="M 1025.5,2.5 C 1027.9,2.25939 1029.9,2.92606 1031.5,4.5C 1029.21,4.40505 1027.21,3.73838 1025.5,2.5 Z"/></g>
<g><path style="opacity:1" fill="#f6f7f6" d="M 1114.5,4.5 C 1116.4,8.73212 1119.07,12.3988 1122.5,15.5C 1122.74,17.4044 1123.74,18.7377 1125.5,19.5C 1128.44,25.0414 1132.1,30.0414 1136.5,34.5C 1136.74,36.4044 1137.74,37.7377 1139.5,38.5C 1141.4,42.7321 1144.07,46.3988 1147.5,49.5C 1147.74,51.4044 1148.74,52.7377 1150.5,53.5C 1153.44,59.0414 1157.1,64.0414 1161.5,68.5C 1161.74,70.4044 1162.74,71.7377 1164.5,72.5C 1166.4,76.7321 1169.07,80.3988 1172.5,83.5C 1172.74,85.4044 1173.74,86.7377 1175.5,87.5C 1175.51,89.6859 1176.51,90.5192 1178.5,90C 1180.81,87.8723 1182.47,85.3723 1183.5,82.5C 1185.26,81.7377 1186.26,80.4044 1186.5,78.5C 1190.9,74.0414 1194.56,69.0414 1197.5,63.5C 1199.26,62.7377 1200.26,61.4044 1200.5,59.5C 1204.9,55.0414 1208.56,50.0414 1211.5,44.5C 1213.26,43.7377 1214.26,42.4044 1214.5,40.5C 1218.9,36.0414 1222.56,31.0414 1225.5,25.5C 1227.26,24.7377 1228.26,23.4044 1228.5,21.5C 1232.9,17.0414 1236.56,12.0414 1239.5,6.5C 1241.26,5.73769 1242.26,4.40435 1242.5,2.5C 1243.5,51.9972 1243.83,101.664 1243.5,151.5C 1236.17,151.5 1228.83,151.5 1221.5,151.5C 1221.67,124.165 1221.5,96.8313 1221,69.5C 1216.57,75.3835 1212.4,81.3835 1208.5,87.5C 1206.74,88.2623 1205.74,89.5956 1205.5,91.5C 1203.74,92.2623 1202.74,93.5956 1202.5,95.5C 1200.74,96.2623 1199.74,97.5956 1199.5,99.5C 1197.74,100.262 1196.74,101.596 1196.5,103.5C 1194.74,104.262 1193.74,105.596 1193.5,107.5C 1191.74,108.262 1190.74,109.596 1190.5,111.5C 1188.74,112.262 1187.74,113.596 1187.5,115.5C 1185.74,116.262 1184.74,117.596 1184.5,119.5C 1182.74,120.262 1181.74,121.596 1181.5,123.5C 1179.74,124.262 1178.74,125.596 1178.5,127.5C 1173.51,122.508 1168.85,117.175 1164.5,111.5C 1164.26,109.596 1163.26,108.262 1161.5,107.5C 1161.26,105.596 1160.26,104.262 1158.5,103.5C 1158.26,101.596 1157.26,100.262 1155.5,99.5C 1149.6,89.9312 1142.93,80.9312 1135.5,72.5C 1135.54,71.2438 1135.04,70.2438 1134,69.5C 1133.5,96.8313 1133.33,124.165 1133.5,151.5C 1126.17,151.5 1118.83,151.5 1111.5,151.5C 1111.33,101.832 1111.5,52.1655 1112,2.5C 1112.71,3.38053 1113.54,4.0472 1114.5,4.5 Z"/></g>
<g><path style="opacity:0.591" fill="#211d1f" d="M 1242.5,2.5 C 1242.26,4.40435 1241.26,5.73769 1239.5,6.5C 1239.74,4.59565 1240.74,3.26231 1242.5,2.5 Z"/></g>
<g><path style="opacity:0.762" fill="#221e1f" d="M 111.5,155.5 C 110.833,155.5 110.167,155.5 109.5,155.5C 108.89,154.609 108.557,153.609 108.5,152.5C 109.117,152.611 109.617,152.944 110,153.5C 110.5,103.501 110.667,53.5011 110.5,3.5C 103.5,3.5 96.5,3.5 89.5,3.5C 89.6666,35.1684 89.5,66.8351 89,98.5C 84.8958,94.9046 81.3958,90.9046 78.5,86.5C 81.7974,89.2956 84.9641,92.2956 88,95.5C 88.5,64.5018 88.6666,33.5018 88.5,2.5C 96.1667,2.5 103.833,2.5 111.5,2.5C 111.5,53.5 111.5,104.5 111.5,155.5 Z"/></g>
<g><path style="opacity:0.365" fill="#221d20" d="M 394.5,6.5 C 390.873,5.57068 387.207,4.73735 383.5,4C 364.503,3.50005 345.503,3.33338 326.5,3.5C 326.5,52.5 326.5,101.5 326.5,150.5C 333.833,150.5 341.167,150.5 348.5,150.5C 348.5,133.167 348.5,115.833 348.5,98.5C 356.573,97.8682 364.24,98.5349 371.5,100.5C 364.254,99.536 356.92,99.2027 349.5,99.5C 349.5,116.833 349.5,134.167 349.5,151.5C 341.5,151.5 333.5,151.5 325.5,151.5C 325.5,101.833 325.5,52.1667 325.5,2.5C 345.169,2.33338 364.836,2.50005 384.5,3C 388.245,3.30215 391.578,4.46882 394.5,6.5 Z"/></g>
<g><path style="opacity:1" fill="#f6f7f6" d="M 394.5,6.5 C 395.514,7.67373 396.847,8.3404 398.5,8.5C 400.55,10.5475 402.883,12.2141 405.5,13.5C 417.774,26.3194 423.108,41.6527 421.5,59.5C 420.055,62.9365 419.055,66.6032 418.5,70.5C 416.659,72.8485 415.326,75.5152 414.5,78.5C 410.528,82.8073 406.528,87.1407 402.5,91.5C 400.973,91.427 399.973,92.0937 399.5,93.5C 393.396,94.7896 393.062,97.1229 398.5,100.5C 398.427,102.027 399.094,103.027 400.5,103.5C 400.427,105.027 401.094,106.027 402.5,106.5C 402.427,108.027 403.094,109.027 404.5,109.5C 404.427,111.027 405.094,112.027 406.5,112.5C 406.427,114.027 407.094,115.027 408.5,115.5C 415.438,127.198 422.771,138.698 430.5,150C 422.167,150.667 413.833,150.667 405.5,150C 395.637,135.321 385.637,120.821 375.5,106.5C 375.573,104.973 374.906,103.973 373.5,103.5C 373.573,101.973 372.906,100.973 371.5,100.5C 364.24,98.5349 356.573,97.8682 348.5,98.5C 348.5,115.833 348.5,133.167 348.5,150.5C 341.167,150.5 333.833,150.5 326.5,150.5C 326.5,101.5 326.5,52.5 326.5,3.5C 345.503,3.33338 364.503,3.50005 383.5,4C 387.207,4.73735 390.873,5.57068 394.5,6.5 Z M 377.5,25.5 C 393.592,29.9804 400.426,40.647 398,57.5C 397.187,59.4357 396.687,61.4357 396.5,63.5C 392.98,68.1823 388.647,72.0156 383.5,75C 372.23,76.4093 360.896,76.9093 349.5,76.5C 349.5,59.5 349.5,42.5 349.5,25.5C 358.833,25.5 368.167,25.5 377.5,25.5 Z"/></g>
<g><path style="opacity:0.043" fill="#2b1818" d="M 502.5,3.5 C 488.5,3.5 474.5,3.5 460.5,3.5C 460.5,52.8333 460.5,102.167 460.5,151.5C 459.501,102.003 459.168,52.3361 459.5,2.5C 474.01,2.17075 488.343,2.50408 502.5,3.5 Z"/></g>
<g><path style="opacity:1" fill="#f5f5f5" d="M 502.5,3.5 C 513.311,5.32898 523.311,9.32898 532.5,15.5C 538.566,21.561 544.233,27.8944 549.5,34.5C 550.992,38.8178 552.992,42.8178 555.5,46.5C 555.928,49.7846 556.928,52.7846 558.5,55.5C 558.549,59.0781 559.215,62.4115 560.5,65.5C 561.833,73.5 561.833,81.5 560.5,89.5C 559.215,92.5885 558.549,95.9219 558.5,99.5C 556.928,102.215 555.928,105.215 555.5,108.5C 552.992,112.182 550.992,116.182 549.5,120.5C 548.094,120.973 547.427,121.973 547.5,123.5C 541.833,129.833 535.833,135.833 529.5,141.5C 526.24,142.774 523.24,144.44 520.5,146.5C 518.447,146.402 516.78,147.069 515.5,148.5C 509.718,149.579 504.051,150.579 498.5,151.5C 485.833,151.5 473.167,151.5 460.5,151.5C 460.5,102.167 460.5,52.8333 460.5,3.5C 474.5,3.5 488.5,3.5 502.5,3.5 Z M 507.5,26.5 C 508.209,27.404 509.209,27.7373 510.5,27.5C 511.514,28.6737 512.847,29.3404 514.5,29.5C 516.55,31.5475 518.883,33.2141 521.5,34.5C 522.5,36.1667 523.833,37.5 525.5,38.5C 530.574,45.9812 534.574,53.9812 537.5,62.5C 538.288,70.8088 538.621,79.1422 538.5,87.5C 537.549,88.9187 537.216,90.5853 537.5,92.5C 534.574,101.019 530.574,109.019 525.5,116.5C 523.833,117.5 522.5,118.833 521.5,120.5C 518.883,121.786 516.55,123.453 514.5,125.5C 511.843,125.935 509.509,126.935 507.5,128.5C 505.901,128.232 504.568,128.566 503.5,129.5C 496.833,129.5 490.167,129.5 483.5,129.5C 483.5,94.8333 483.5,60.1667 483.5,25.5C 491.534,25.3018 499.534,25.6351 507.5,26.5 Z"/></g>
<g><path style="opacity:1" fill="#f6f6f6" d="M 863.5,3.5 C 868.825,5.27821 874.158,7.27821 879.5,9.5C 883.141,12.8049 886.808,16.1383 890.5,19.5C 900.143,33.4254 903.143,48.7587 899.5,65.5C 897.98,67.8902 896.98,70.5568 896.5,73.5C 896.672,74.4916 896.338,75.1583 895.5,75.5C 892.591,78.981 889.925,82.6477 887.5,86.5C 887.5,87.1667 887.167,87.5 886.5,87.5C 882.353,90.0783 878.353,92.9117 874.5,96C 874.639,97.301 875.305,98.1344 876.5,98.5C 876.427,100.027 877.094,101.027 878.5,101.5C 878.427,103.027 879.094,104.027 880.5,104.5C 880.427,106.027 881.094,107.027 882.5,107.5C 882.427,109.027 883.094,110.027 884.5,110.5C 884.427,112.027 885.094,113.027 886.5,113.5C 886.427,115.027 887.094,116.027 888.5,116.5C 888.427,118.027 889.094,119.027 890.5,119.5C 890.427,121.027 891.094,122.027 892.5,122.5C 892.427,124.027 893.094,125.027 894.5,125.5C 894.427,127.027 895.094,128.027 896.5,128.5C 896.427,130.027 897.094,131.027 898.5,131.5C 898.427,133.027 899.094,134.027 900.5,134.5C 900.427,136.027 901.094,137.027 902.5,137.5C 902.427,139.027 903.094,140.027 904.5,140.5C 904.427,142.027 905.094,143.027 906.5,143.5C 906.427,145.027 907.094,146.027 908.5,146.5C 908.427,148.027 909.094,149.027 910.5,149.5C 902.01,150.657 893.343,150.824 884.5,150C 873.637,133.655 862.637,117.489 851.5,101.5C 851.586,100.504 851.252,99.6708 850.5,99C 842.841,98.5003 835.174,98.3336 827.5,98.5C 827.5,115.833 827.5,133.167 827.5,150.5C 820.167,150.5 812.833,150.5 805.5,150.5C 805.5,101.5 805.5,52.5 805.5,3.5C 824.833,3.5 844.167,3.5 863.5,3.5 Z M 857.5,25.5 C 860.341,26.6693 863.341,27.6693 866.5,28.5C 867.262,30.2624 868.596,31.2624 870.5,31.5C 870.5,32.1667 870.833,32.5 871.5,32.5C 881.287,46.5888 880.287,59.9221 868.5,72.5C 865.314,73.5969 862.314,74.9303 859.5,76.5C 849.167,76.5 838.833,76.5 828.5,76.5C 828.5,59.5 828.5,42.5 828.5,25.5C 838.167,25.5 847.833,25.5 857.5,25.5 Z"/></g>
<g><path style="opacity:0.601" fill="#231c1d" d="M 197.5,2.5 C 194.05,4.20784 190.383,5.54118 186.5,6.5C 189.66,4.00003 193.327,2.6667 197.5,2.5 Z"/></g>
<g><path style="opacity:0.724" fill="#221e1f" d="M 243.5,3.5 C 251.032,5.26588 257.699,8.59921 263.5,13.5C 256.795,10.1473 250.128,6.81395 243.5,3.5 Z"/></g>
<g><path style="opacity:0.626" fill="#231d1f" d="M 1031.5,4.5 C 1034.24,4.70732 1036.57,5.70732 1038.5,7.5C 1035.76,7.29268 1033.43,6.29268 1031.5,4.5 Z"/></g>
<g><path style="opacity:0.796" fill="#1d1a1b" d="M 394.5,6.5 C 396.38,6.22911 397.713,6.89578 398.5,8.5C 396.847,8.3404 395.514,7.67373 394.5,6.5 Z"/></g>
<g><path style="opacity:0.545" fill="#1f1c1d" d="M 638.5,3.5 C 645.141,4.82068 650.475,8.15401 654.5,13.5C 649.428,9.76323 644.094,6.42989 638.5,3.5 Z"/></g>
<g><path style="opacity:0.918" fill="#221f20" d="M 863.5,3.5 C 869.593,3.74955 874.926,5.74955 879.5,9.5C 874.158,7.27821 868.825,5.27821 863.5,3.5 Z"/></g>
<g><path style="opacity:0.475" fill="#221d1e" d="M 502.5,3.5 C 514.09,3.80185 524.09,7.80185 532.5,15.5C 523.311,9.32898 513.311,5.32898 502.5,3.5 Z"/></g>
<g><path style="opacity:0.617" fill="#211d1f" d="M 1239.5,6.5 C 1236.56,12.0414 1232.9,17.0414 1228.5,21.5C 1231.44,15.9586 1235.1,10.9586 1239.5,6.5 Z"/></g>
<g><path style="opacity:0.591" fill="#211e1f" d="M 8.5,9.5 C 12.2343,12.2311 15.2343,15.5644 17.5,19.5C 13.7657,16.7689 10.7657,13.4356 8.5,9.5 Z"/></g>
<g><path style="opacity:0.718" fill="#211e1e" d="M 398.5,8.5 C 401.674,9.01019 404.008,10.6769 405.5,13.5C 402.883,12.2141 400.55,10.5475 398.5,8.5 Z"/></g>
<g><path style="opacity:0.558" fill="#211c1c" d="M 1114.5,4.5 C 1117.93,7.60121 1120.6,11.2679 1122.5,15.5C 1119.07,12.3988 1116.4,8.73212 1114.5,4.5 Z"/></g>
<g><path style="opacity:0.882" fill="#221d1e" d="M 613.5,2.5 C 602.045,6.28795 593.712,13.6213 588.5,24.5C 592.433,12.2369 600.767,4.90357 613.5,2.5 Z"/></g>
<g><path style="opacity:0.09" fill="#211f20" d="M 879.5,9.5 C 884.441,11.4416 888.108,14.7749 890.5,19.5C 886.808,16.1383 883.141,12.8049 879.5,9.5 Z"/></g>
<g><path style="opacity:0.184" fill="#231d1d" d="M 263.5,13.5 C 265.404,13.7376 266.738,14.7376 267.5,16.5C 265.596,16.2624 264.262,15.2624 263.5,13.5 Z"/></g>
<g><path style="opacity:0.647" fill="#201c1d" d="M 1040.5,8.5 C 1050.96,12.9563 1059.29,19.9563 1065.5,29.5C 1061.04,25.5368 1056.7,21.3702 1052.5,17C 1048.32,14.3036 1044.32,11.4702 1040.5,8.5 Z"/></g>
<g><path style="opacity:0.929" fill="#221e1f" d="M 979.5,3.5 C 962.919,10.4126 949.252,21.0793 938.5,35.5C 944.599,24.8999 952.933,16.3999 963.5,10C 968.525,6.98452 973.858,4.81785 979.5,3.5 Z"/></g>
<g><path style="opacity:0.969" fill="#231e1f" d="M 1122.5,15.5 C 1124.26,16.2623 1125.26,17.5956 1125.5,19.5C 1123.74,18.7377 1122.74,17.4044 1122.5,15.5 Z"/></g>
<g><path style="opacity:0.569" fill="#211e1f" d="M 656.5,15.5 C 657.812,16.1451 658.812,17.1451 659.5,18.5C 657.824,20.3369 655.824,21.6702 653.5,22.5C 654.479,20.8546 655.812,19.5213 657.5,18.5C 656.873,17.5832 656.539,16.5832 656.5,15.5 Z"/></g>
<g><path style="opacity:0.792" fill="#211d1e" d="M 182.5,8.5 C 171.95,15.3783 162.617,23.7116 154.5,33.5C 161.323,22.3429 170.656,14.0096 182.5,8.5 Z"/></g>
<g><path style="opacity:0.593" fill="#211d1f" d="M 1228.5,21.5 C 1228.26,23.4044 1227.26,24.7377 1225.5,25.5C 1225.74,23.5956 1226.74,22.2623 1228.5,21.5 Z"/></g>
<g><path style="opacity:0.569" fill="#211e1e" d="M 18.5,20.5 C 22.2343,23.2311 25.2343,26.5644 27.5,30.5C 23.7657,27.7689 20.7657,24.4356 18.5,20.5 Z"/></g>
<g><path style="opacity:0.701" fill="#242021" d="M 214.5,22.5 C 211.026,23.5249 207.36,24.1916 203.5,24.5C 206.845,22.783 210.511,22.1164 214.5,22.5 Z"/></g>
<g><path style="opacity:0.704" fill="#231f1f" d="M 1008.5,22.5 C 1012.49,22.1164 1016.16,22.783 1019.5,24.5C 1015.64,24.1916 1011.97,23.5249 1008.5,22.5 Z"/></g>
<g><path style="opacity:0.692" fill="#221f1f" d="M 623.5,22.5 C 619.034,23.3996 615.034,25.3996 611.5,28.5C 611.511,26.9826 612.177,25.8159 613.5,25C 616.536,22.9937 619.869,22.1604 623.5,22.5 Z"/></g>
<g><path style="opacity:0.071" fill="#1f1d1d" d="M 653.5,22.5 C 653.027,23.9063 652.027,24.573 650.5,24.5C 650.973,23.0937 651.973,22.427 653.5,22.5 Z"/></g>
<g><path style="opacity:0.882" fill="#211d1d" d="M 203.5,24.5 C 201.11,26.0198 198.443,27.0198 195.5,27.5C 197.684,25.4152 200.351,24.4152 203.5,24.5 Z"/></g>
<g><path style="opacity:0.494" fill="#241d1e" d="M 267.5,16.5 C 272.5,19.5 276.5,23.5 279.5,28.5C 275.167,24.8333 271.167,20.8333 267.5,16.5 Z"/></g>
<g><path style="opacity:0.583" fill="#211e1f" d="M 377.5,25.5 C 368.167,25.5 358.833,25.5 349.5,25.5C 349.5,42.5 349.5,59.5 349.5,76.5C 360.896,76.9093 372.23,76.4093 383.5,75C 388.647,72.0156 392.98,68.1823 396.5,63.5C 394.073,69.0953 390.073,73.262 384.5,76C 372.562,77.415 360.562,77.915 348.5,77.5C 348.5,59.8333 348.5,42.1667 348.5,24.5C 358.348,24.1729 368.014,24.5062 377.5,25.5 Z"/></g>
<g><path style="opacity:0.929" fill="#221d1e" d="M 532.5,15.5 C 539.934,20.2668 545.601,26.6001 549.5,34.5C 544.233,27.8944 538.566,21.561 532.5,15.5 Z"/></g>
<g><path style="opacity:0.188" fill="#241d1d" d="M 625.5,22.5 C 629.416,22.0255 632.749,23.0255 635.5,25.5C 632.06,24.4887 628.726,23.4887 625.5,22.5 Z"/></g>
<g><path style="opacity:0.663" fill="#221e1f" d="M 739.5,151.5 C 739.5,108.833 739.5,66.1667 739.5,23.5C 751.5,23.5 763.5,23.5 775.5,23.5C 775.5,16.8333 775.5,10.1667 775.5,3.5C 744.167,3.5 712.833,3.5 681.5,3.5C 681.5,10.1667 681.5,16.8333 681.5,23.5C 693.5,23.5 705.5,23.5 717.5,23.5C 717.5,66.1667 717.5,108.833 717.5,151.5C 716.501,109.337 716.168,67.0033 716.5,24.5C 704.5,24.5 692.5,24.5 680.5,24.5C 680.5,17.1667 680.5,9.83333 680.5,2.5C 712.5,2.5 744.5,2.5 776.5,2.5C 776.5,9.83333 776.5,17.1667 776.5,24.5C 764.5,24.5 752.5,24.5 740.5,24.5C 740.832,67.0033 740.499,109.337 739.5,151.5 Z"/></g>
<g><path style="opacity:1" fill="#f6f7f6" d="M 739.5,151.5 C 732.167,151.5 724.833,151.5 717.5,151.5C 717.5,108.833 717.5,66.1667 717.5,23.5C 705.5,23.5 693.5,23.5 681.5,23.5C 681.5,16.8333 681.5,10.1667 681.5,3.5C 712.833,3.5 744.167,3.5 775.5,3.5C 775.5,10.1667 775.5,16.8333 775.5,23.5C 763.5,23.5 751.5,23.5 739.5,23.5C 739.5,66.1667 739.5,108.833 739.5,151.5 Z"/></g>
<g><path style="opacity:0.786" fill="#221e1f" d="M 857.5,25.5 C 847.833,25.5 838.167,25.5 828.5,25.5C 828.5,42.5 828.5,59.5 828.5,76.5C 838.833,76.5 849.167,76.5 859.5,76.5C 849.013,77.4944 838.346,77.8278 827.5,77.5C 827.5,59.8333 827.5,42.1667 827.5,24.5C 837.681,24.1726 847.681,24.506 857.5,25.5 Z"/></g>
<g><path style="opacity:0.31" fill="#221f1f" d="M 507.5,26.5 C 499.534,25.6351 491.534,25.3018 483.5,25.5C 483.5,60.1667 483.5,94.8333 483.5,129.5C 490.167,129.5 496.833,129.5 503.5,129.5C 496.687,130.491 489.687,130.825 482.5,130.5C 482.5,95.1667 482.5,59.8333 482.5,24.5C 489.841,24.3337 497.174,24.5003 504.5,25C 505.737,25.2321 506.737,25.7321 507.5,26.5 Z"/></g>
<g><path style="opacity:0.086" fill="#221f20" d="M 650.5,24.5 C 650.027,25.9063 649.027,26.573 647.5,26.5C 647.973,25.0937 648.973,24.427 650.5,24.5 Z"/></g>
<g><path style="opacity:0.518" fill="#1d1b1c" d="M 1022.5,25.5 C 1024.55,25.4021 1026.22,26.0687 1027.5,27.5C 1025.45,27.5979 1023.78,26.9313 1022.5,25.5 Z"/></g>
<g><path style="opacity:0.69" fill="#231f20" d="M 857.5,25.5 C 861.081,25.1376 864.081,26.1376 866.5,28.5C 863.341,27.6693 860.341,26.6693 857.5,25.5 Z"/></g>
<g><path style="opacity:0.435" fill="#211b1d" d="M 992.5,23.5 C 987.073,25.4274 981.74,27.7607 976.5,30.5C 980.818,26.2674 986.151,23.9341 992.5,23.5 Z"/></g>
<g><path style="opacity:0.459" fill="#231e1f" d="M 195.5,27.5 C 194.486,28.6737 193.153,29.3404 191.5,29.5C 192.287,27.8958 193.62,27.2291 195.5,27.5 Z"/></g>
<g><path style="opacity:0.431" fill="#221e1e" d="M 510.5,27.5 C 512.38,27.2291 513.713,27.8958 514.5,29.5C 512.847,29.3404 511.514,28.6737 510.5,27.5 Z"/></g>
<g><path style="opacity:0.922" fill="#242222" d="M 866.5,28.5 C 868.404,28.7376 869.738,29.7376 870.5,31.5C 868.596,31.2624 867.262,30.2624 866.5,28.5 Z"/></g>
<g><path style="opacity:0.894" fill="#211d1e" d="M 1125.5,19.5 C 1129.9,23.9586 1133.56,28.9586 1136.5,34.5C 1132.1,30.0414 1128.44,25.0414 1125.5,19.5 Z"/></g>
<g><path style="opacity:0.988" fill="#201c1e" d="M 223.5,22.5 C 235.594,23.0481 246.26,27.2148 255.5,35C 258.118,37.1057 260.118,39.6057 261.5,42.5C 251.02,31.5943 238.354,24.9277 223.5,22.5 Z"/></g>
<g><path style="opacity:0.567" fill="#221e20" d="M 279.5,28.5 C 281.262,29.2623 282.262,30.5956 282.5,32.5C 280.738,31.7377 279.738,30.4044 279.5,28.5 Z"/></g>
<g><path style="opacity:0.09" fill="#211f20" d="M 611.5,28.5 C 611.34,30.153 610.674,31.4863 609.5,32.5C 609.229,30.6203 609.896,29.287 611.5,28.5 Z"/></g>
<g><path style="opacity:0.608" fill="#201c1d" d="M 635.5,25.5 C 637.736,26.3891 639.736,27.7224 641.5,29.5C 643.534,28.4412 645.534,27.4412 647.5,26.5C 645.941,28.6243 643.941,30.291 641.5,31.5C 639.146,29.8122 637.146,27.8122 635.5,25.5 Z"/></g>
<g><path style="opacity:0.586" fill="#241e21" d="M 191.5,29.5 C 189.853,31.3264 187.853,32.6597 185.5,33.5C 186.802,31.1782 188.802,29.8449 191.5,29.5 Z"/></g>
<g><path style="opacity:0.686" fill="#211d1f" d="M 1029.5,28.5 C 1032.85,29.1695 1035.52,30.8361 1037.5,33.5C 1034.49,32.3307 1031.82,30.664 1029.5,28.5 Z"/></g>
<g><path style="opacity:0.584" fill="#211d1e" d="M 1065.5,29.5 C 1067.26,30.2623 1068.26,31.5956 1068.5,33.5C 1066.74,32.7377 1065.74,31.4044 1065.5,29.5 Z"/></g>
<g><path style="opacity:0.694" fill="#1e1b1b" d="M 514.5,29.5 C 517.674,30.0102 520.008,31.6769 521.5,34.5C 518.883,33.2141 516.55,31.5475 514.5,29.5 Z"/></g>
<g><path style="opacity:0.822" fill="#221c1e" d="M 890.5,19.5 C 896.083,25.3319 899.583,32.3319 901,40.5C 901.667,47.5 901.667,54.5 901,61.5C 900.79,63.0581 900.29,64.3915 899.5,65.5C 903.143,48.7587 900.143,33.4254 890.5,19.5 Z"/></g>
<g><path style="opacity:0.184" fill="#201e1f" d="M 975.5,30.5 C 973.853,32.3264 971.853,33.6597 969.5,34.5C 970.976,32.5 972.809,30.8334 975,29.5C 975.399,29.7284 975.565,30.0618 975.5,30.5 Z"/></g>
<g><path style="opacity:0.839" fill="#201c1e" d="M 405.5,13.5 C 414.55,20.9104 420.05,30.5771 422,42.5C 422.818,48.3487 422.652,54.0154 421.5,59.5C 423.108,41.6527 417.774,26.3194 405.5,13.5 Z"/></g>
<g><path style="opacity:0.855" fill="#211e1f" d="M 588.5,24.5 C 585.642,37.4035 587.642,49.4035 594.5,60.5C 590.728,56.6286 588.228,51.9619 587,46.5C 586.333,40.1667 586.333,33.8333 587,27.5C 587.232,26.2625 587.732,25.2625 588.5,24.5 Z"/></g>
<g><path style="opacity:0.531" fill="#221e1f" d="M 1037.5,33.5 C 1043.22,36.885 1047.55,41.5517 1050.5,47.5C 1046.19,42.8594 1041.86,38.1927 1037.5,33.5 Z"/></g>
<g><path style="opacity:0.992" fill="#211d1e" d="M 1225.5,25.5 C 1222.56,31.0414 1218.9,36.0414 1214.5,40.5C 1217.44,34.9586 1221.1,29.9586 1225.5,25.5 Z"/></g>
<g><path style="opacity:0.914" fill="#231d1e" d="M 154.5,33.5 C 154.573,35.0269 153.906,36.0269 152.5,36.5C 152.427,34.9731 153.094,33.9731 154.5,33.5 Z"/></g>
<g><path style="opacity:0.616" fill="#221c1e" d="M 377.5,25.5 C 392.078,27.5872 399.411,36.0872 399.5,51C 399.933,55.6409 398.933,59.8076 396.5,63.5C 396.687,61.4357 397.187,59.4357 398,57.5C 400.426,40.647 393.592,29.9804 377.5,25.5 Z"/></g>
<g><path style="opacity:0.599" fill="#221e1f" d="M 521.5,34.5 C 523.833,34.8333 525.167,36.1667 525.5,38.5C 523.833,37.5 522.5,36.1667 521.5,34.5 Z"/></g>
<g><path style="opacity:0.275" fill="#221d1e" d="M 871.5,32.5 C 874.231,34.0714 876.065,36.4048 877,39.5C 880.577,48.7988 879.911,57.7988 875,66.5C 873.594,69.4086 871.428,71.4086 868.5,72.5C 880.287,59.9221 881.287,46.5888 871.5,32.5 Z"/></g>
<g><path style="opacity:0.49" fill="#221e1f" d="M 1136.5,34.5 C 1138.26,35.2623 1139.26,36.5956 1139.5,38.5C 1137.74,37.7377 1136.74,36.4044 1136.5,34.5 Z"/></g>
<g><path style="opacity:0.812" fill="#1f1c1d" d="M 28.5,31.5 C 32.2343,34.2311 35.2343,37.5644 37.5,41.5C 33.7657,38.7689 30.7657,35.4356 28.5,31.5 Z"/></g>
<g><path style="opacity:0.604" fill="#211d1e" d="M 282.5,32.5 C 285.164,34.4844 286.831,37.1511 287.5,40.5C 285.336,38.178 283.669,35.5113 282.5,32.5 Z"/></g>
<g><path style="opacity:0.58" fill="#211e1f" d="M 549.5,34.5 C 552.54,37.9136 554.54,41.9136 555.5,46.5C 552.992,42.8178 550.992,38.8178 549.5,34.5 Z"/></g>
<g><path style="opacity:0.965" fill="#221e1f" d="M 938.5,35.5 C 937.921,38.3311 936.588,40.6644 934.5,42.5C 935.079,39.6689 936.412,37.3356 938.5,35.5 Z"/></g>
<g><path style="opacity:0.66" fill="#231d1f" d="M 1214.5,40.5 C 1214.26,42.4044 1213.26,43.7377 1211.5,44.5C 1211.74,42.5956 1212.74,41.2623 1214.5,40.5 Z"/></g>
<g><path style="opacity:0.729" fill="#221f1f" d="M 1068.5,33.5 C 1072.46,37.7403 1075.12,42.7403 1076.5,48.5C 1073.58,43.6665 1070.92,38.6665 1068.5,33.5 Z"/></g>
<g><path style="opacity:0.473" fill="#221e21" d="M 261.5,42.5 C 263.262,43.2623 264.262,44.5956 264.5,46.5C 262.738,45.7377 261.738,44.4044 261.5,42.5 Z"/></g>
<g><path style="opacity:0.792" fill="#201c1d" d="M 287.5,40.5 C 289.104,41.287 289.771,42.6203 289.5,44.5C 288.326,43.4863 287.66,42.153 287.5,40.5 Z"/></g>
<g><path style="opacity:0.712" fill="#221e1f" d="M 152.5,36.5 C 151.008,40.8178 149.008,44.8178 146.5,48.5C 147.46,43.9136 149.46,39.9136 152.5,36.5 Z"/></g>
<g><path style="opacity:0.778" fill="#211d1d" d="M 525.5,38.5 C 532.13,45.0923 536.13,53.0923 537.5,62.5C 534.574,53.9812 530.574,45.9812 525.5,38.5 Z"/></g>
<g><path style="opacity:0.558" fill="#211c1c" d="M 1139.5,38.5 C 1142.93,41.6012 1145.6,45.2679 1147.5,49.5C 1144.07,46.3988 1141.4,42.7321 1139.5,38.5 Z"/></g>
<g><path style="opacity:0.463" fill="#221d1e" d="M 934.5,42.5 C 931.941,49.5106 929.608,56.5106 927.5,63.5C 928.06,55.8199 930.393,48.8199 934.5,42.5 Z"/></g>
<g><path style="opacity:0.812" fill="#201c1d" d="M 38.5,42.5 C 42.2343,45.2311 45.2343,48.5644 47.5,52.5C 43.7657,49.7689 40.7657,46.4356 38.5,42.5 Z"/></g>
<g><path style="opacity:0.706" fill="#221f1f" d="M 609.5,32.5 C 608.994,38.4686 609.994,44.1353 612.5,49.5C 610.59,48.0254 609.424,46.0254 609,43.5C 608.19,39.6425 608.357,35.9758 609.5,32.5 Z"/></g>
<g><path style="opacity:0.712" fill="#232021" d="M 1050.5,47.5 C 1055.3,53.2282 1057.97,59.8948 1058.5,67.5C 1056.43,60.6855 1053.77,54.0189 1050.5,47.5 Z"/></g>
<g><path style="opacity:0.173" fill="#221d1e" d="M 969.5,34.5 C 963.368,40.9555 958.035,47.9555 953.5,55.5C 955.191,50.4533 957.691,45.7866 961,41.5C 963.436,38.5532 966.269,36.2199 969.5,34.5 Z"/></g>
<g><path style="opacity:0.969" fill="#231e1f" d="M 1147.5,49.5 C 1149.26,50.2623 1150.26,51.5956 1150.5,53.5C 1148.74,52.7377 1147.74,51.4044 1147.5,49.5 Z"/></g>
<g><path style="opacity:0.488" fill="#211e1e" d="M 146.5,48.5 C 146.072,51.7846 145.072,54.7846 143.5,57.5C 143.528,54.0836 144.528,51.0836 146.5,48.5 Z"/></g>
<g><path style="opacity:0.69" fill="#201d1e" d="M 264.5,46.5 C 266.669,48.3403 268.002,50.6737 268.5,53.5C 266.412,51.6644 265.079,49.3311 264.5,46.5 Z"/></g>
<g><path style="opacity:0.427" fill="#221f20" d="M 555.5,46.5 C 557.472,49.0836 558.472,52.0836 558.5,55.5C 556.928,52.7846 555.928,49.7846 555.5,46.5 Z"/></g>
<g><path style="opacity:0.992" fill="#231d1e" d="M 1211.5,44.5 C 1208.56,50.0414 1204.9,55.0414 1200.5,59.5C 1203.44,53.9586 1207.1,48.9586 1211.5,44.5 Z"/></g>
<g><path style="opacity:0.424" fill="#221e1f" d="M 289.5,44.5 C 293.079,50.2401 295.079,56.5734 295.5,63.5C 293.529,57.2506 291.529,50.9173 289.5,44.5 Z"/></g>
<g><path style="opacity:0.482" fill="#241e1f" d="M 612.5,49.5 C 616.5,52.8333 620.167,56.5 623.5,60.5C 618.833,57.8333 615.167,54.1667 612.5,49.5 Z"/></g>
<g><path style="opacity:0.031" fill="#1f1e1e" d="M 33.5,70.5 C 30.2026,67.7044 27.0359,64.7044 24,61.5C 23.8324,91.6695 23.3324,121.669 22.5,151.5C 22.3334,120.498 22.5,89.4982 23,58.5C 27.1042,62.0954 30.6042,66.0954 33.5,70.5 Z"/></g>
<g><path style="opacity:0.816" fill="#201c1d" d="M 48.5,53.5 C 52.2343,56.2311 55.2343,59.5644 57.5,63.5C 53.7657,60.7689 50.7657,57.4356 48.5,53.5 Z"/></g>
<g><path style="opacity:0.744" fill="#211d1e" d="M 421.5,59.5 C 421.568,63.5704 420.568,67.237 418.5,70.5C 419.055,66.6032 420.055,62.9365 421.5,59.5 Z"/></g>
<g><path style="opacity:0.609" fill="#1f1c1d" d="M 953.5,55.5 C 952.332,60.324 950.998,64.9907 949.5,69.5C 949.446,64.3414 950.779,59.6748 953.5,55.5 Z"/></g>
<g><path style="opacity:0.843" fill="#241d1e" d="M 1200.5,59.5 C 1200.26,61.4044 1199.26,62.7377 1197.5,63.5C 1197.74,61.5956 1198.74,60.2623 1200.5,59.5 Z"/></g>
<g><path style="opacity:0.261" fill="#251d1d" d="M 269.5,55.5 C 271.472,58.0836 272.472,61.0836 272.5,64.5C 270.928,61.7846 269.928,58.7846 269.5,55.5 Z"/></g>
<g><path style="opacity:0.792" fill="#221e1f" d="M 558.5,55.5 C 560.011,58.5443 560.678,61.8776 560.5,65.5C 559.215,62.4115 558.549,59.0781 558.5,55.5 Z"/></g>
<g><path style="opacity:0.584" fill="#211e1f" d="M 594.5,60.5 C 596.587,61.5846 597.92,63.2512 598.5,65.5C 596.413,64.4154 595.08,62.7488 594.5,60.5 Z"/></g>
<g><path style="opacity:0.89" fill="#211d1e" d="M 1150.5,53.5 C 1154.9,57.9586 1158.56,62.9586 1161.5,68.5C 1157.1,64.0414 1153.44,59.0414 1150.5,53.5 Z"/></g>
<g><path style="opacity:0.583" fill="#201d1f" d="M 623.5,60.5 C 626.764,62.0941 629.431,64.4275 631.5,67.5C 628.236,65.9059 625.569,63.5725 623.5,60.5 Z"/></g>
<g><path style="opacity:0.53" fill="#231f1f" d="M 295.5,63.5 C 297.345,69.7843 297.679,76.1176 296.5,82.5C 296.233,76.1624 295.9,69.829 295.5,63.5 Z"/></g>
<g><path style="opacity:0.027" fill="#292222" d="M 598.5,65.5 C 601.167,67.5 603.5,69.8333 605.5,72.5C 602.167,71.1667 599.833,68.8333 598.5,65.5 Z"/></g>
<g><path style="opacity:0.569" fill="#211d1d" d="M 185.5,33.5 C 166.693,50.2599 160.36,70.9266 166.5,95.5C 158.935,71.6523 164.602,51.1523 183.5,34C 184.094,33.5357 184.761,33.369 185.5,33.5 Z"/></g>
<g><path style="opacity:0.682" fill="#211d1e" d="M 537.5,62.5 C 538.999,67.2449 539.666,72.2449 539.5,77.5C 539.498,81.0175 539.165,84.3509 538.5,87.5C 538.621,79.1422 538.288,70.8088 537.5,62.5 Z"/></g>
<g><path style="opacity:0.49" fill="#221e1f" d="M 1161.5,68.5 C 1163.26,69.2623 1164.26,70.5956 1164.5,72.5C 1162.74,71.7377 1161.74,70.4044 1161.5,68.5 Z"/></g>
<g><path style="opacity:0.816" fill="#1f1c1d" d="M 58.5,64.5 C 62.2343,67.2311 65.2343,70.5644 67.5,74.5C 63.7657,71.7689 60.7657,68.4356 58.5,64.5 Z"/></g>
<g><path style="opacity:0.837" fill="#201d1e" d="M 899.5,65.5 C 899.585,68.6489 898.585,71.3155 896.5,73.5C 896.98,70.5568 897.98,67.8902 899.5,65.5 Z"/></g>
<g><path style="opacity:0.637" fill="#211d1e" d="M 631.5,67.5 C 634.764,69.0941 637.431,71.4275 639.5,74.5C 636.236,72.9059 633.569,70.5725 631.5,67.5 Z"/></g>
<g><path style="opacity:0.036" fill="#1e1d1d" d="M 1243.5,-0.5 C 1243.83,-0.5 1244.17,-0.5 1244.5,-0.5C 1244.5,50.5 1244.5,101.5 1244.5,152.5C 1236.5,152.5 1228.5,152.5 1220.5,152.5C 1220.67,126.165 1220.5,99.8312 1220,73.5C 1216.68,78.647 1212.85,83.3136 1208.5,87.5C 1212.4,81.3835 1216.57,75.3835 1221,69.5C 1221.5,96.8313 1221.67,124.165 1221.5,151.5C 1228.83,151.5 1236.17,151.5 1243.5,151.5C 1243.83,101.664 1243.5,51.9972 1242.5,2.5C 1242.56,1.39105 1242.89,0.391047 1243.5,-0.5 Z"/></g>
<g><path style="opacity:0.68" fill="#242020" d="M 418.5,70.5 C 418.206,73.7541 416.873,76.4208 414.5,78.5C 415.326,75.5152 416.659,72.8485 418.5,70.5 Z"/></g>
<g><path style="opacity:0.539" fill="#221e1f" d="M 949.5,69.5 C 949.214,77.9243 949.88,86.2576 951.5,94.5C 950.113,92.1234 949.279,89.4568 949,86.5C 948.182,80.6513 948.348,74.9846 949.5,69.5 Z"/></g>
<g><path style="opacity:0.435" fill="#211c1f" d="M 605.5,72.5 C 608.764,74.0941 611.431,76.4275 613.5,79.5C 610.236,77.9059 607.569,75.5725 605.5,72.5 Z"/></g>
<g><path style="opacity:0.661" fill="#221e20" d="M 868.5,72.5 C 866.165,75.1648 863.165,76.4982 859.5,76.5C 862.314,74.9303 865.314,73.5969 868.5,72.5 Z"/></g>
<g><path style="opacity:0.515" fill="#231e1f" d="M 1076.5,48.5 C 1082.09,60.6792 1083.75,73.3458 1081.5,86.5C 1082.22,73.5013 1080.56,60.8347 1076.5,48.5 Z"/></g>
<g><path style="opacity:0.602" fill="#221d1e" d="M 1197.5,63.5 C 1194.56,69.0414 1190.9,74.0414 1186.5,78.5C 1189.44,72.9586 1193.1,67.9586 1197.5,63.5 Z"/></g>
<g><path style="opacity:0.686" fill="#221d1e" d="M 33.5,70.5 C 37.8976,73.8947 41.5643,77.8947 44.5,82.5C 40.1024,79.1053 36.4357,75.1053 33.5,70.5 Z"/></g>
<g><path style="opacity:0.66" fill="#241d1f" d="M 1186.5,78.5 C 1186.26,80.4044 1185.26,81.7377 1183.5,82.5C 1183.74,80.5956 1184.74,79.2623 1186.5,78.5 Z"/></g>
<g><path style="opacity:0.871" fill="#221d1d" d="M 68.5,75.5 C 72.5658,78.5628 75.8991,82.2294 78.5,86.5C 74.4342,83.4372 71.1009,79.7706 68.5,75.5 Z"/></g>
<g><path style="opacity:0.973" fill="#241d1e" d="M 613.5,79.5 C 616.764,81.0941 619.431,83.4275 621.5,86.5C 618.236,84.9059 615.569,82.5725 613.5,79.5 Z"/></g>
<g><path style="opacity:0.675" fill="#221c1d" d="M 1164.5,72.5 C 1167.93,75.6012 1170.6,79.2679 1172.5,83.5C 1169.07,80.3988 1166.4,76.7321 1164.5,72.5 Z"/></g>
<g><path style="opacity:0.09" fill="#231e1f" d="M 414.5,78.5 C 411.887,84.113 407.887,88.4463 402.5,91.5C 406.528,87.1407 410.528,82.8073 414.5,78.5 Z"/></g>
<g><path style="opacity:0.68" fill="#221e1f" d="M 895.5,75.5 C 894.054,80.0609 891.387,83.7276 887.5,86.5C 889.925,82.6477 892.591,78.981 895.5,75.5 Z"/></g>
<g><path style="opacity:0.66" fill="#241d1e" d="M 1172.5,83.5 C 1174.26,84.2623 1175.26,85.5956 1175.5,87.5C 1173.74,86.7377 1172.74,85.4044 1172.5,83.5 Z"/></g>
<g><path style="opacity:0.996" fill="#221e1f" d="M 272.5,64.5 C 273.968,68.7416 274.634,73.2416 274.5,78C 274.824,83.8716 273.824,89.3716 271.5,94.5C 273.695,84.5685 274.029,74.5685 272.5,64.5 Z"/></g>
<g><path style="opacity:0.582" fill="#1f1c1d" d="M 296.5,82.5 C 296.874,88.5368 295.874,94.2034 293.5,99.5C 294.399,93.6847 295.399,88.018 296.5,82.5 Z"/></g>
<g><path style="opacity:0.906" fill="#201d1e" d="M 1135.5,72.5 C 1142.93,80.9312 1149.6,89.9312 1155.5,99.5C 1148.07,91.0688 1141.4,82.0688 1135.5,72.5 Z"/></g>
<g><path style="opacity:0.741" fill="#241e1f" d="M 1183.5,82.5 C 1182.47,85.3723 1180.81,87.8723 1178.5,90C 1176.51,90.5192 1175.51,89.6859 1175.5,87.5C 1176.42,88.3029 1177.42,88.4696 1178.5,88C 1179.83,85.8094 1181.5,83.976 1183.5,82.5 Z"/></g>
<g><path style="opacity:0.569" fill="#231e1f" d="M 621.5,86.5 C 624.764,88.0941 627.431,90.4275 629.5,93.5C 626.236,91.9059 623.569,89.5725 621.5,86.5 Z"/></g>
<g><path style="opacity:0.716" fill="#231e1f" d="M 886.5,87.5 C 883.625,91.2807 879.958,94.114 875.5,96C 876.252,96.6708 876.586,97.5041 876.5,98.5C 875.305,98.1344 874.639,97.301 874.5,96C 878.353,92.9117 882.353,90.0783 886.5,87.5 Z"/></g>
<g><path style="opacity:0.728" fill="#211e1f" d="M 44.5,82.5 C 48.5658,85.5628 51.8991,89.2294 54.5,93.5C 50.4342,90.4372 47.1009,86.7706 44.5,82.5 Z"/></g>
<g><path style="opacity:0.586" fill="#221e1f" d="M 1208.5,87.5 C 1208.26,89.4044 1207.26,90.7377 1205.5,91.5C 1205.74,89.5956 1206.74,88.2623 1208.5,87.5 Z"/></g>
<g><path style="opacity:0.916" fill="#231d1e" d="M 926.5,71.5 C 926.679,80.9281 927.679,90.2615 929.5,99.5C 927.398,94.5015 926.231,89.1681 926,83.5C 925.188,79.3112 925.355,75.3112 926.5,71.5 Z"/></g>
<g><path style="opacity:0.737" fill="#221e1f" d="M 639.5,74.5 C 647.329,79.3289 652.996,85.9956 656.5,94.5C 651.613,87.271 645.946,80.6043 639.5,74.5 Z"/></g>
<g><path style="opacity:0.973" fill="#201c1e" d="M 1058.5,67.5 C 1061.94,83.3971 1058.61,97.7304 1048.5,110.5C 1050.64,106.22 1052.81,101.886 1055,97.5C 1058.16,87.7656 1059.32,77.7656 1058.5,67.5 Z"/></g>
<g><path style="opacity:0.09" fill="#211f1f" d="M 402.5,91.5 C 402.027,92.9063 401.027,93.573 399.5,93.5C 399.973,92.0937 400.973,91.427 402.5,91.5 Z"/></g>
<g><path style="opacity:0.667" fill="#211d1f" d="M 143.5,57.5 C 139.11,78.1533 141.776,97.8199 151.5,116.5C 145.559,107.854 142.059,98.1877 141,87.5C 140.333,80.8333 140.333,74.1667 141,67.5C 141.311,63.9101 142.144,60.5767 143.5,57.5 Z"/></g>
<g><path style="opacity:0.531" fill="#221e1f" d="M 1205.5,91.5 C 1205.26,93.4044 1204.26,94.7377 1202.5,95.5C 1202.74,93.5956 1203.74,92.2623 1205.5,91.5 Z"/></g>
<g><path style="opacity:0.157" fill="#211e1e" d="M 399.5,93.5 C 398.942,94.7899 397.942,95.6232 396.5,96C 397.582,97.3297 398.249,98.8297 398.5,100.5C 393.062,97.1229 393.396,94.7896 399.5,93.5 Z"/></g>
<g><path style="opacity:0.731" fill="#281b1c" d="M 166.5,95.5 C 167.931,96.7804 168.598,98.4471 168.5,100.5C 167.069,99.2196 166.402,97.5529 166.5,95.5 Z"/></g>
<g><path style="opacity:0.611" fill="#221f1f" d="M 1202.5,95.5 C 1202.26,97.4044 1201.26,98.7377 1199.5,99.5C 1199.74,97.5956 1200.74,96.2623 1202.5,95.5 Z"/></g>
<g><path style="opacity:0.227" fill="#231d1f" d="M 560.5,89.5 C 560.678,93.1224 560.011,96.4557 558.5,99.5C 558.549,95.9219 559.215,92.5885 560.5,89.5 Z"/></g>
<g><path style="opacity:0.464" fill="#1f1c1d" d="M 1081.5,86.5 C 1081.55,92.611 1080.22,98.2777 1077.5,103.5C 1078.71,97.6828 1080.04,92.0161 1081.5,86.5 Z"/></g>
<g><path style="opacity:0.024" fill="#201e1f" d="M 632.5,96.5 C 634.587,97.5846 635.92,99.2512 636.5,101.5C 634.413,100.415 633.08,98.7488 632.5,96.5 Z"/></g>
<g><path style="opacity:0.941" fill="#231d20" d="M 876.5,98.5 C 877.906,98.9731 878.573,99.9731 878.5,101.5C 877.094,101.027 876.427,100.027 876.5,98.5 Z"/></g>
<g><path style="opacity:0.804" fill="#211d1e" d="M 537.5,92.5 C 536.13,101.908 532.13,109.908 525.5,116.5C 530.574,109.019 534.574,101.019 537.5,92.5 Z"/></g>
<g><path style="opacity:0.776" fill="#211d1f" d="M 951.5,94.5 C 954.227,100.286 957.227,105.952 960.5,111.5C 955.686,106.877 952.686,101.21 951.5,94.5 Z"/></g>
<g><path style="opacity:0.031" fill="#211e1f" d="M 1155.5,99.5 C 1157.26,100.262 1158.26,101.596 1158.5,103.5C 1156.74,102.738 1155.74,101.404 1155.5,99.5 Z"/></g>
<g><path style="opacity:0.525" fill="#221f1f" d="M 1199.5,99.5 C 1199.26,101.404 1198.26,102.738 1196.5,103.5C 1196.74,101.596 1197.74,100.262 1199.5,99.5 Z"/></g>
<g><path style="opacity:0.094" fill="#201e1f" d="M 371.5,100.5 C 372.906,100.973 373.573,101.973 373.5,103.5C 372.094,103.027 371.427,102.027 371.5,100.5 Z"/></g>
<g><path style="opacity:0.514" fill="#211d1d" d="M 657.5,96.5 C 659.585,98.6845 660.585,101.351 660.5,104.5C 658.98,102.11 657.98,99.4432 657.5,96.5 Z"/></g>
<g><path style="opacity:0.539" fill="#221e1f" d="M 55.5,94.5 C 59.5658,97.5628 62.8991,101.229 65.5,105.5C 61.4342,102.437 58.1009,98.7706 55.5,94.5 Z"/></g>
<g><path style="opacity:0.747" fill="#201d1e" d="M 271.5,94.5 C 271.154,98.8524 269.488,102.519 266.5,105.5C 267.93,101.646 269.597,97.9789 271.5,94.5 Z"/></g>
<g><path style="opacity:0.69" fill="#211e1f" d="M 398.5,100.5 C 399.906,100.973 400.573,101.973 400.5,103.5C 399.094,103.027 398.427,102.027 398.5,100.5 Z"/></g>
<g><path style="opacity:0.532" fill="#1e1b1b" d="M 929.5,99.5 C 930.738,101.214 931.405,103.214 931.5,105.5C 929.926,103.898 929.259,101.898 929.5,99.5 Z"/></g>
<g><path style="opacity:0.565" fill="#221e1f" d="M 636.5,101.5 C 638.834,103.176 639.834,105.509 639.5,108.5C 638.264,106.351 637.264,104.018 636.5,101.5 Z"/></g>
<g><path style="opacity:0.694" fill="#211e1f" d="M 878.5,101.5 C 879.906,101.973 880.573,102.973 880.5,104.5C 879.094,104.027 878.427,103.027 878.5,101.5 Z"/></g>
<g><path style="opacity:0.925" fill="#211f1f" d="M 400.5,103.5 C 401.906,103.973 402.573,104.973 402.5,106.5C 401.094,106.027 400.427,105.027 400.5,103.5 Z"/></g>
<g><path style="opacity:0.656" fill="#211d1e" d="M 1158.5,103.5 C 1160.26,104.262 1161.26,105.596 1161.5,107.5C 1159.74,106.738 1158.74,105.404 1158.5,103.5 Z"/></g>
<g><path style="opacity:0.524" fill="#231f1f" d="M 1196.5,103.5 C 1196.26,105.404 1195.26,106.738 1193.5,107.5C 1193.74,105.596 1194.74,104.262 1196.5,103.5 Z"/></g>
<g><path style="opacity:0.373" fill="#231f1f" d="M 373.5,103.5 C 374.906,103.973 375.573,104.973 375.5,106.5C 374.094,106.027 373.427,105.027 373.5,103.5 Z"/></g>
<g><path style="opacity:0.382" fill="#242021" d="M 558.5,99.5 C 558.472,102.916 557.472,105.916 555.5,108.5C 555.928,105.215 556.928,102.215 558.5,99.5 Z"/></g>
<g><path style="opacity:0.69" fill="#211e1f" d="M 880.5,104.5 C 881.906,104.973 882.573,105.973 882.5,107.5C 881.094,107.027 880.427,106.027 880.5,104.5 Z"/></g>
<g><path style="opacity:0.675" fill="#221e1f" d="M 1077.5,103.5 C 1077.6,105.553 1076.93,107.22 1075.5,108.5C 1075.4,106.447 1076.07,104.78 1077.5,103.5 Z"/></g>
<g><path style="opacity:0.522" fill="#242020" d="M 266.5,105.5 C 266.155,108.198 264.822,110.198 262.5,111.5C 263.34,109.147 264.674,107.147 266.5,105.5 Z"/></g>
<g><path style="opacity:0.659" fill="#221f20" d="M 402.5,106.5 C 403.906,106.973 404.573,107.973 404.5,109.5C 403.094,109.027 402.427,108.027 402.5,106.5 Z"/></g>
<g><path style="opacity:0.925" fill="#211e1f" d="M 882.5,107.5 C 883.906,107.973 884.573,108.973 884.5,110.5C 883.094,110.027 882.427,109.027 882.5,107.5 Z"/></g>
<g><path style="opacity:0.52" fill="#241f20" d="M 1161.5,107.5 C 1163.26,108.262 1164.26,109.596 1164.5,111.5C 1162.74,110.738 1161.74,109.404 1161.5,107.5 Z"/></g>
<g><path style="opacity:0.522" fill="#232020" d="M 1193.5,107.5 C 1193.26,109.404 1192.26,110.738 1190.5,111.5C 1190.74,109.596 1191.74,108.262 1193.5,107.5 Z"/></g>
<g><path style="opacity:0.745" fill="#221f20" d="M 292.5,102.5 C 291.486,108.192 289.152,113.192 285.5,117.5C 287.597,112.311 289.93,107.311 292.5,102.5 Z"/></g>
<g><path style="opacity:0.294" fill="#211e1f" d="M 170.5,104.5 C 173.497,108.491 176.497,112.491 179.5,116.5C 175.043,113.582 172.043,109.582 170.5,104.5 Z"/></g>
<g><path style="opacity:0.906" fill="#231d1e" d="M 404.5,109.5 C 405.906,109.973 406.573,110.973 406.5,112.5C 405.094,112.027 404.427,111.027 404.5,109.5 Z"/></g>
<g><path style="opacity:0.585" fill="#211e1f" d="M 66.5,106.5 C 70.5658,109.563 73.8991,113.229 76.5,117.5C 72.4342,114.437 69.1009,110.771 66.5,106.5 Z"/></g>
<g><path style="opacity:0.925" fill="#211f1f" d="M 884.5,110.5 C 885.906,110.973 886.573,111.973 886.5,113.5C 885.094,113.027 884.427,112.027 884.5,110.5 Z"/></g>
<g><path style="opacity:0.775" fill="#221e1f" d="M 931.5,105.5 C 935.41,113.658 940.077,121.325 945.5,128.5C 938.559,122.298 933.893,114.631 931.5,105.5 Z"/></g>
<g><path style="opacity:0.759" fill="#221e1f" d="M 555.5,108.5 C 554.54,113.086 552.54,117.086 549.5,120.5C 550.992,116.182 552.992,112.182 555.5,108.5 Z"/></g>
<g><path style="opacity:0.635" fill="#221f1f" d="M 886.5,113.5 C 887.906,113.973 888.573,114.973 888.5,116.5C 887.094,116.027 886.427,115.027 886.5,113.5 Z"/></g>
<g><path style="opacity:0.184" fill="#222020" d="M 1190.5,111.5 C 1190.26,113.404 1189.26,114.738 1187.5,115.5C 1187.74,113.596 1188.74,112.262 1190.5,111.5 Z"/></g>
<g><path style="opacity:0.627" fill="#211e1f" d="M 406.5,112.5 C 407.906,112.973 408.573,113.973 408.5,115.5C 407.094,115.027 406.427,114.027 406.5,112.5 Z"/></g>
<g><path style="opacity:0.243" fill="#231c1d" d="M 1075.5,108.5 C 1073.35,115.465 1069.69,121.465 1064.5,126.5C 1068.17,120.492 1071.84,114.492 1075.5,108.5 Z"/></g>
<g><path style="opacity:0.588" fill="#221d1f" d="M 525.5,116.5 C 525.167,118.833 523.833,120.167 521.5,120.5C 522.5,118.833 523.833,117.5 525.5,116.5 Z"/></g>
<g><path style="opacity:0.633" fill="#221f1f" d="M 888.5,116.5 C 889.906,116.973 890.573,117.973 890.5,119.5C 889.094,119.027 888.427,118.027 888.5,116.5 Z"/></g>
<g><path style="opacity:0.788" fill="#211d1e" d="M 960.5,111.5 C 966.476,117.806 973.143,123.139 980.5,127.5C 971.939,124.551 965.272,119.217 960.5,111.5 Z"/></g>
<g><path style="opacity:0.642" fill="#211c1d" d="M 1164.5,111.5 C 1168.85,117.175 1173.51,122.508 1178.5,127.5C 1178.29,129.549 1177.46,129.883 1176,128.5C 1171.65,123.122 1167.82,117.455 1164.5,111.5 Z"/></g>
<g><path style="opacity:0.18" fill="#232021" d="M 1187.5,115.5 C 1187.26,117.404 1186.26,118.738 1184.5,119.5C 1184.74,117.596 1185.74,116.262 1187.5,115.5 Z"/></g>
<g><path style="opacity:0.031" fill="#1e1b1c" d="M 180.5,117.5 C 183.792,119.458 186.792,121.791 189.5,124.5C 185.637,123.306 182.637,120.973 180.5,117.5 Z"/></g>
<g><path style="opacity:0.427" fill="#231e1f" d="M 604.5,124.5 C 602.174,121.865 599.841,119.198 597.5,116.5C 593.697,118.738 589.697,120.404 585.5,121.5C 589.612,118.941 593.946,116.608 598.5,114.5C 600.952,117.606 602.952,120.939 604.5,124.5 Z"/></g>
<g><path style="opacity:0.922" fill="#221f1f" d="M 890.5,119.5 C 891.906,119.973 892.573,120.973 892.5,122.5C 891.094,122.027 890.427,121.027 890.5,119.5 Z"/></g>
<g><path style="opacity:0.539" fill="#1f1b1c" d="M 285.5,117.5 C 285.155,120.198 283.822,122.198 281.5,123.5C 282.34,121.147 283.674,119.147 285.5,117.5 Z"/></g>
<g><path style="opacity:0.106" fill="#231d1e" d="M 549.5,120.5 C 549.573,122.027 548.906,123.027 547.5,123.5C 547.427,121.973 548.094,120.973 549.5,120.5 Z"/></g>
<g><path style="opacity:0.555" fill="#221e20" d="M 660.5,104.5 C 662.423,109.561 662.923,114.895 662,120.5C 661.559,125 660.059,129 657.5,132.5C 661.269,123.478 662.269,114.144 660.5,104.5 Z"/></g>
<g><path style="opacity:0.18" fill="#231d21" d="M 1184.5,119.5 C 1184.26,121.404 1183.26,122.738 1181.5,123.5C 1181.74,121.596 1182.74,120.262 1184.5,119.5 Z"/></g>
<g><path style="opacity:0.925" fill="#211d1e" d="M 151.5,116.5 C 161.085,131.088 173.752,142.088 189.5,149.5C 172.499,143.5 159.833,132.5 151.5,116.5 Z"/></g>
<g><path style="opacity:0.804" fill="#201c1e" d="M 262.5,111.5 C 258.327,118.671 252.327,123.671 244.5,126.5C 251.059,122.283 257.059,117.283 262.5,111.5 Z"/></g>
<g><path style="opacity:0.633" fill="#241d1e" d="M 189.5,124.5 C 194.022,126.264 198.355,128.264 202.5,130.5C 197.478,129.82 193.144,127.82 189.5,124.5 Z"/></g>
<g><path style="opacity:0.553" fill="#211d1f" d="M 521.5,120.5 C 520.008,123.323 517.674,124.99 514.5,125.5C 516.55,123.453 518.883,121.786 521.5,120.5 Z"/></g>
<g><path style="opacity:0.957" fill="#201d1e" d="M 581.5,123.5 C 580.766,124.708 580.433,126.041 580.5,127.5C 577.653,125.202 577.987,123.869 581.5,123.5 Z"/></g>
<g><path style="opacity:0.69" fill="#221f20" d="M 892.5,122.5 C 893.906,122.973 894.573,123.973 894.5,125.5C 893.094,125.027 892.427,124.027 892.5,122.5 Z"/></g>
<g><path style="opacity:0.496" fill="#211d1e" d="M 1048.5,110.5 C 1040.86,121.993 1030.2,128.993 1016.5,131.5C 1029.08,127.534 1039.75,120.534 1048.5,110.5 Z"/></g>
<g><path style="opacity:0.539" fill="#241d1e" d="M 281.5,123.5 C 280.92,125.749 279.587,127.415 277.5,128.5C 278.08,126.251 279.413,124.585 281.5,123.5 Z"/></g>
<g><path style="opacity:0.571" fill="#221e20" d="M 1181.5,123.5 C 1181.26,125.404 1180.26,126.738 1178.5,127.5C 1178.74,125.596 1179.74,124.262 1181.5,123.5 Z"/></g>
<g><path style="opacity:0.792" fill="#221d1e" d="M 76.5,117.5 C 80.8976,120.895 84.5643,124.895 87.5,129.5C 83.1024,126.105 79.4357,122.105 76.5,117.5 Z"/></g>
<g><path style="opacity:0.647" fill="#211e1f" d="M 639.5,108.5 C 640.643,111.976 640.81,115.642 640,119.5C 636.746,129.861 629.913,134.194 619.5,132.5C 634.121,131.303 640.788,123.303 639.5,108.5 Z"/></g>
<g><path style="opacity:0.643" fill="#1f1b1c" d="M 514.5,125.5 C 512.68,127.448 510.346,128.448 507.5,128.5C 509.509,126.935 511.843,125.935 514.5,125.5 Z"/></g>
<g><path style="opacity:0.663" fill="#221f20" d="M 894.5,125.5 C 895.906,125.973 896.573,126.973 896.5,128.5C 895.094,128.027 894.427,127.027 894.5,125.5 Z"/></g>
<g><path style="opacity:0.841" fill="#221e1f" d="M 580.5,127.5 C 582.588,129.336 583.921,131.669 584.5,134.5C 582.412,132.664 581.079,130.331 580.5,127.5 Z"/></g>
<g><path style="opacity:0.914" fill="#231d20" d="M 896.5,128.5 C 897.906,128.973 898.573,129.973 898.5,131.5C 897.094,131.027 896.427,130.027 896.5,128.5 Z"/></g>
<g><path style="opacity:0.81" fill="#201c1d" d="M 606.5,126.5 C 610.515,129.278 614.848,131.278 619.5,132.5C 614.015,132.792 609.681,130.792 606.5,126.5 Z"/></g>
<g><path style="opacity:0.027" fill="#251d1e" d="M 945.5,128.5 C 948.5,130.833 951.167,133.5 953.5,136.5C 949.833,134.833 947.167,132.167 945.5,128.5 Z"/></g>
<g><path style="opacity:0.476" fill="#251d1d" d="M 982.5,128.5 C 987.646,129.701 992.646,131.035 997.5,132.5C 992.023,132.549 987.023,131.216 982.5,128.5 Z"/></g>
<g><path style="opacity:0.957" fill="#231f20" d="M 240.5,128.5 C 235.977,131.216 230.977,132.549 225.5,132.5C 230.354,131.035 235.354,129.701 240.5,128.5 Z"/></g>
<g><path style="opacity:0.901" fill="#211e1f" d="M 206.5,131.5 C 212.81,132.19 219.143,132.524 225.5,132.5C 223.359,133.163 221.025,133.497 218.5,133.5C 214.239,133.589 210.239,132.922 206.5,131.5 Z"/></g>
<g><path style="opacity:0.655" fill="#231c20" d="M 898.5,131.5 C 899.906,131.973 900.573,132.973 900.5,134.5C 899.094,134.027 898.427,133.027 898.5,131.5 Z"/></g>
<g><path style="opacity:0.267" fill="#211d1f" d="M 547.5,123.5 C 543.167,131.167 537.167,137.167 529.5,141.5C 535.833,135.833 541.833,129.833 547.5,123.5 Z"/></g>
<g><path style="opacity:0.918" fill="#211d1f" d="M 87.5,129.5 C 91.5658,132.563 94.8991,136.229 97.5,140.5C 93.4342,137.437 90.1009,133.771 87.5,129.5 Z"/></g>
<g><path style="opacity:0.539" fill="#221e1e" d="M 584.5,134.5 C 586.262,135.262 587.262,136.596 587.5,138.5C 585.738,137.738 584.738,136.404 584.5,134.5 Z"/></g>
<g><path style="opacity:0.496" fill="#221d1f" d="M 657.5,132.5 C 657.155,135.198 655.822,137.198 653.5,138.5C 654.34,136.147 655.674,134.147 657.5,132.5 Z"/></g>
<g><path style="opacity:0.6" fill="#201c1d" d="M 277.5,128.5 C 276.118,131.394 274.118,133.894 271.5,136C 268.536,138.81 265.202,140.976 261.5,142.5C 266.793,137.843 272.126,133.177 277.5,128.5 Z"/></g>
<g><path style="opacity:0.651" fill="#241d1e" d="M 900.5,134.5 C 901.906,134.973 902.573,135.973 902.5,137.5C 901.094,137.027 900.427,136.027 900.5,134.5 Z"/></g>
<g><path style="opacity:0.988" fill="#221e1e" d="M 851.5,101.5 C 862.637,117.489 873.637,133.655 884.5,150C 893.343,150.824 902.01,150.657 910.5,149.5C 911.289,149.783 911.956,150.283 912.5,151C 902.833,151.667 893.167,151.667 883.5,151C 872.19,134.868 861.523,118.368 851.5,101.5 Z"/></g>
<g><path style="opacity:0.647" fill="#241d1e" d="M 902.5,137.5 C 903.906,137.973 904.573,138.973 904.5,140.5C 903.094,140.027 902.427,139.027 902.5,137.5 Z"/></g>
<g><path style="opacity:0.678" fill="#241313" d="M 587.5,138.5 C 589.5,139.833 591.167,141.5 592.5,143.5C 589.833,142.833 588.167,141.167 587.5,138.5 Z"/></g>
<g><path style="opacity:0.031" fill="#1e1a1a" d="M 653.5,138.5 C 652.5,141.5 650.5,143.5 647.5,144.5C 649.167,142.167 651.167,140.167 653.5,138.5 Z"/></g>
<g><path style="opacity:0.278" fill="#231f20" d="M 953.5,136.5 C 956.533,138.016 959.2,140.016 961.5,142.5C 958.109,141.471 955.443,139.471 953.5,136.5 Z"/></g>
<g><path style="opacity:0.602" fill="#211e1f" d="M 1064.5,126.5 C 1056.75,137.579 1046.41,145.246 1033.5,149.5C 1045.22,143.792 1055.55,136.126 1064.5,126.5 Z"/></g>
<g><path style="opacity:0.906" fill="#241d1e" d="M 904.5,140.5 C 905.906,140.973 906.573,141.973 906.5,143.5C 905.094,143.027 904.427,142.027 904.5,140.5 Z"/></g>
<g><path style="opacity:0.627" fill="#231d20" d="M 261.5,142.5 C 260.341,144.25 258.674,145.25 256.5,145.5C 257.659,143.75 259.326,142.75 261.5,142.5 Z"/></g>
<g><path style="opacity:0.788" fill="#211e1f" d="M 961.5,142.5 C 963.674,142.75 965.341,143.75 966.5,145.5C 964.326,145.25 962.659,144.25 961.5,142.5 Z"/></g>
<g><path style="opacity:0.586" fill="#1d191b" d="M 529.5,141.5 C 527.244,144.405 524.244,146.072 520.5,146.5C 523.24,144.44 526.24,142.774 529.5,141.5 Z"/></g>
<g><path style="opacity:0.569" fill="#221d1f" d="M 592.5,143.5 C 594.404,143.738 595.738,144.738 596.5,146.5C 594.596,146.262 593.262,145.262 592.5,143.5 Z"/></g>
<g><path style="opacity:0.639" fill="#211e1e" d="M 906.5,143.5 C 907.906,143.973 908.573,144.973 908.5,146.5C 907.094,146.027 906.427,145.027 906.5,143.5 Z"/></g>
<g><path style="opacity:0.575" fill="#1b1919" d="M 256.5,145.5 C 255.089,147.539 253.089,148.539 250.5,148.5C 252.181,146.992 254.181,145.992 256.5,145.5 Z"/></g>
<g><path style="opacity:0.824" fill="#221f1f" d="M 520.5,146.5 C 519.22,147.931 517.553,148.598 515.5,148.5C 516.78,147.069 518.447,146.402 520.5,146.5 Z"/></g>
<g><path style="opacity:0.031" fill="#211f1f" d="M 647.5,144.5 C 646.198,146.822 644.198,148.155 641.5,148.5C 643.147,146.674 645.147,145.34 647.5,144.5 Z"/></g>
<g><path style="opacity:0.596" fill="#1c1919" d="M 966.5,145.5 C 968.819,145.992 970.819,146.992 972.5,148.5C 969.911,148.539 967.911,147.539 966.5,145.5 Z"/></g>
<g><path style="opacity:0.635" fill="#211e1e" d="M 908.5,146.5 C 909.906,146.973 910.573,147.973 910.5,149.5C 909.094,149.027 908.427,148.027 908.5,146.5 Z"/></g>
<g><path style="opacity:0.541" fill="#211e1f" d="M 98.5,141.5 C 102.566,144.563 105.899,148.229 108.5,152.5C 104.434,149.437 101.101,145.771 98.5,141.5 Z"/></g>
<g><path style="opacity:0.781" fill="#221d1e" d="M 375.5,106.5 C 385.637,120.821 395.637,135.321 405.5,150C 413.833,150.667 422.167,150.667 430.5,150C 422.771,138.698 415.438,127.198 408.5,115.5C 416.724,126.927 424.724,138.594 432.5,150.5C 423.184,151.665 413.851,151.832 404.5,151C 394.191,136.536 384.524,121.703 375.5,106.5 Z"/></g>
<g><path style="opacity:0.608" fill="#211e1f" d="M 596.5,146.5 C 600.151,147.659 603.485,149.326 606.5,151.5C 602.58,150.873 599.247,149.207 596.5,146.5 Z"/></g>
<g><path style="opacity:0.727" fill="#201d1e" d="M 250.5,148.5 C 244.09,152.189 237.09,154.189 229.5,154.5C 236.453,152.675 243.453,150.675 250.5,148.5 Z"/></g>
<g><path style="opacity:0.237" fill="#211d1e" d="M 515.5,148.5 C 510.227,151.003 504.561,152.003 498.5,151.5C 504.051,150.579 509.718,149.579 515.5,148.5 Z"/></g>
<g><path style="opacity:0.573" fill="#1e1b1c" d="M 972.5,148.5 C 976.383,149.459 980.05,150.792 983.5,152.5C 979.327,152.333 975.66,151 972.5,148.5 Z"/></g>
<g><path style="opacity:0.637" fill="#211d1f" d="M 189.5,149.5 C 194.049,150.463 198.383,151.796 202.5,153.5C 197.711,153.346 193.378,152.013 189.5,149.5 Z"/></g>
<g><path style="opacity:0.694" fill="#241d1e" d="M 639.5,149.5 C 637.316,151.585 634.649,152.585 631.5,152.5C 633.89,150.98 636.557,149.98 639.5,149.5 Z"/></g>
<g><path style="opacity:0.627" fill="#211d1e" d="M 1033.5,149.5 C 1029.62,152.013 1025.29,153.346 1020.5,153.5C 1024.62,151.796 1028.95,150.463 1033.5,149.5 Z"/></g>
<g><path style="opacity:0.937" fill="#221e1f" d="M 606.5,151.5 C 609.727,151.676 612.727,152.343 615.5,153.5C 612.171,153.785 609.171,153.118 606.5,151.5 Z"/></g>
<g><path style="opacity:0.886" fill="#221e20" d="M 983.5,152.5 C 987.078,152.549 990.411,153.215 993.5,154.5C 989.878,154.678 986.544,154.011 983.5,152.5 Z"/></g>
<g><path style="opacity:0.733" fill="#221f1f" d="M 202.5,153.5 C 211.476,154.308 220.476,154.642 229.5,154.5C 229.5,154.833 229.5,155.167 229.5,155.5C 222.167,155.5 214.833,155.5 207.5,155.5C 205.833,154.833 204.167,154.167 202.5,153.5 Z"/></g>
<g><path style="opacity:0.75" fill="#231e1e" d="M 1020.5,153.5 C 1018.83,154.167 1017.17,154.833 1015.5,155.5C 1008.17,155.5 1000.83,155.5 993.5,155.5C 993.5,155.167 993.5,154.833 993.5,154.5C 1002.52,154.642 1011.52,154.308 1020.5,153.5 Z"/></g>
</svg>
