<?xml version="1.0" encoding="utf-8"?>
<!-- Generator: Adobe Illustrator 19.2.1, SVG Export Plug-In . SVG Version: 6.00 Build 0)  -->
<svg version="1.1" id="layer" xmlns="http://www.w3.org/2000/svg" xmlns:xlink="http://www.w3.org/1999/xlink" x="0px" y="0px"
	 viewBox="0 0 652 652" style="enable-background:new 0 0 652 652;" xml:space="preserve">
<style type="text/css">
	.st0{fill:#3D3A40;}
	.st1{fill:#E4002B;}
	.st2{fill:#FFFFFF;}
</style>
<path class="st0" d="M215.8,339.1c-6.2,0-9.7-3.7-9.7-9.9v-35.6h8.4v35.1c0,2.1,1,3.2,2.9,3.2h2.4v7.2H215.8z M134.2,304.9v8.9h-3.6
	c-3.9,0-6.7,2.8-6.7,7.7V339h-8.4v-33.4h8.4v4.8c1.9-3.9,4.9-5.6,8.5-5.6C132.5,304.9,134.2,304.9,134.2,304.9z M167.1,324.3h-23.6
	c0.5,5.9,3.6,8.5,7.9,8.5c4,0,6.8-1.8,8.6-6.3l7.1,2.6c-2.6,7.5-8.5,10.9-15.3,10.9c-9.9,0-16.8-7-16.8-17.5
	c0-10.4,6.8-17.5,16.4-17.5c9.3,0,15.8,7,15.8,17.4V324.3z M143.8,318.6h14.9c-1-4.8-3.6-6.8-7.3-6.8
	C147.3,311.6,144.7,313.9,143.8,318.6z M200.7,339.1v-21.1c0-9-7-13.2-14.9-13.2c-6.6,0-12.5,2.8-14.7,9.9l6.9,2.9
	c1.2-3.5,3.7-5.4,7.5-5.4c4.3,0,6.9,2.1,6.9,6.6v3c-2-1.8-4.9-2.9-8.8-2.9c-8.2,0-13.5,4.1-13.5,10.4c0,6.6,5.1,10.5,12.9,10.5
	c4.4,0,7.9-1.4,9.9-4.1v3.3H200.7z M185.6,324.9c4.1,0,6.8,1.6,6.8,4.5c0,2.9-2.8,4.4-6.8,4.4c-4.1,0-6.8-1.6-6.8-4.4
	C178.8,326.5,181.5,324.9,185.6,324.9z M230,324.3h23.6c0.1-0.6,0.1-1.4,0-1.9c0-10.4-6.5-17.4-15.8-17.4c-9.6,0-16.4,7.1-16.4,17.5
	c0,10.5,6.9,17.5,16.8,17.5c6.8,0,12.7-3.4,15.3-10.9l-7.1-2.6c-1.7,4.5-4.6,6.3-8.6,6.3C233.6,332.8,230.5,330.2,230,324.3z
	 M245.1,318.6h-14.9c0.9-4.7,3.5-6.9,7.6-6.8C241.6,311.7,244.3,313.8,245.1,318.6z M256.1,328.8l6.8-2.3c1,4.4,4.3,6.6,8.6,6.6
	c3.8,0,6.1-1.2,6.1-3.3c0-1.9-1.8-2.8-5.9-3.8l-3.3-0.8c-7.7-1.9-11-5.1-11-10.4c0-6,5.3-10,13.4-10c7.8,0,13.6,4.1,14.5,10.8
	l-6.9,1.8c-0.7-4.1-3.8-5.8-7.5-5.8c-3.3,0-5.5,1.3-5.5,2.9c0,2.2,2.5,2.9,6.4,3.8l3.3,0.9c7.1,1.6,10.6,5,10.6,10.1
	c0,6.2-5.6,10.4-14.1,10.4C264.4,339.9,257.9,336.4,256.1,328.8z M301.1,312.3h7.5v-6.6h-7.5v-11.1l-8.4,4.6v6.4h-6.1v6.7h6.1v15.2
	c0,7.1,4.2,11.6,11.3,11.6h4.6v-7.2H305c-2.6,0-3.9-1.6-3.9-4.9V312.3z M341.3,318.1v21.1h-7.8v-3.3c-2,2.7-5.5,4.1-9.9,4.1
	c-7.8,0-12.9-3.9-12.9-10.5c0-6.3,5.3-10.4,13.5-10.4c3.8,0,6.8,1.1,8.7,2.9v-3c0-4.5-2.6-6.6-6.9-6.6c-3.7,0-6.2,1.9-7.5,5.4
	l-6.9-2.9c2.3-7.1,8.1-9.9,14.7-9.9C334.4,304.9,341.3,309,341.3,318.1z M333.2,329.4c0-2.9-2.8-4.5-6.9-4.5c-4.1,0-6.9,1.6-6.9,4.5
	c0,2.9,2.8,4.4,6.9,4.4C330.3,333.8,333.2,332.3,333.2,329.4z M358,312.3h7.5v-6.6H358v-11.1l-8.4,4.6v6.4h-6.1v6.7h6.1v15.2
	c0,7.1,4.2,11.6,11.3,11.6h4.6v-7.2h-3.6c-2.6,0-3.9-1.6-3.9-4.9V312.3z M399.5,324.3H376c0.5,5.9,3.6,8.5,7.9,8.5
	c4,0,6.8-1.8,8.6-6.3l7.1,2.6c-2.6,7.5-8.5,10.9-15.3,10.9c-9.9,0-16.8-7-16.8-17.5c0-10.4,6.8-17.5,16.4-17.5
	c9.3,0,15.8,7,15.8,17.4V324.3z M376.1,318.6H391c-0.9-4.8-3.6-6.8-7.3-6.8C379.7,311.6,377.1,313.9,376.1,318.6z M408.1,328.6
	c-3.4,0-5.6,2.3-5.6,5.6s2.3,5.6,5.6,5.6c3.3,0,5.5-2.3,5.5-5.6S411.4,328.6,408.1,328.6z M416.4,322.4c0-10.5,7.3-17.5,16.8-17.5
	c7.5,0,13.8,3.7,15.9,11.9l-7.4,2.7c-1.6-5.1-4.3-7.1-8.6-7.1c-4.2,0-8.1,3.3-8.1,10.1c0,6.8,3.9,10.1,8.1,10.1
	c4.2,0,6.9-1.9,8.6-7.1l7.4,2.7c-2.2,8.1-8.6,11.9-16,11.9C423.7,339.9,416.4,332.9,416.4,322.4z M468.5,304.9
	c-9.9,0-17.2,7.2-17.2,17.5c0,10.4,7.4,17.5,17.2,17.5c10,0,17.3-7.1,17.3-17.5C485.8,312,478.5,304.9,468.5,304.9z M468.5,312.3
	c5,0,8.8,3.7,8.8,10.1c0,6.4-3.7,10.1-8.8,10.1c-4.9,0-8.7-3.7-8.7-10.1C459.8,316,463.5,312.3,468.5,312.3z M538.1,317v22.1h-8.4
	v-20.4c0-4.2-2.2-6.6-5.2-6.6c-3.6,0-6.2,2.4-6.2,6.8v20.1H510v-20.4c0-4.2-2.2-6.6-5.2-6.6c-3.6,0-6.2,2.4-6.2,6.8v20.1h-8.4v-33.4
	h8.4v4.2c1.9-3.5,5-4.9,8.7-4.9c4.2,0,7.6,2,9.5,5.5c2-3.9,5.5-5.5,9.7-5.5C533.2,304.9,538.1,309.7,538.1,317z M548,328.6
	c-3.4,0-5.6,2.3-5.6,5.6s2.3,5.6,5.6,5.6c3.3,0,5.5-2.3,5.5-5.6S551.3,328.6,548,328.6z M587,318.1v21.1h-7.8v-3.3
	c-2,2.7-5.5,4.1-9.9,4.1c-7.8,0-12.9-3.9-12.9-10.5c0-6.3,5.4-10.4,13.5-10.4c3.8,0,6.8,1.1,8.7,2.9v-3c0-4.5-2.6-6.6-6.9-6.6
	c-3.7,0-6.2,1.9-7.5,5.4l-6.9-2.9c2.3-7.1,8.1-9.9,14.7-9.9C580.1,304.9,587,309,587,318.1z M578.8,329.4c0-2.9-2.8-4.5-6.9-4.5
	c-4.1,0-6.9,1.6-6.9,4.5c0,2.9,2.8,4.4,6.9,4.4C576,333.8,578.8,332.3,578.8,329.4z M592.1,305.7v20c0,9,6.4,14.2,14.9,14.2
	c8.4,0,14.7-5.3,14.7-14.2v-20h-8.5v19.5c0,5-2.6,7.3-6.3,7.3c-3.6,0-6.3-2.3-6.3-7.3v-19.5H592.1z"/>
<path class="st1" d="M21.8,320.8c-0.1,22,17.7,40,39.6,40.1c22,0.2,40-17.7,40.1-39.6c0.1-22-17.7-39.9-39.6-40.1
	c-0.1,0-0.2,0-0.3,0C39.8,281.1,21.9,298.9,21.8,320.8z"/>
<path class="st2" d="M86,316.8l-21.3-21.3c-0.8-0.9-1.9-1.3-3-1.3c-1.1,0-2.3,0.4-3,1.3l-21.3,21.3c-1.2,1.2-1.6,3-1,4.7
	s2.3,2.7,4,2.7h3v16.1c0,2.3,1.9,4.3,4.3,4.3h27.9c2.3,0,4.3-1.9,4.3-4.3v-16.1h3c1.7,0,3.3-1,4-2.7C87.5,319.9,87.2,318.1,86,316.8
	z M75.7,322.2v18.1c0,0.1-0.1,0.3-0.3,0.3H47.7c-0.1,0-0.3-0.1-0.3-0.3v-18.1c0-1.1-0.9-2-2-2h-5.1c-0.1,0-0.2-0.1-0.2-0.2
	c0-0.1,0-0.2,0.1-0.3l21.3-21.4c0.1,0,0.1-0.1,0.2-0.1c0.1,0,0.1,0,0.2,0.1l21.3,21.4c0.1,0.1,0.1,0.2,0.1,0.3
	c0,0.1-0.1,0.2-0.2,0.2H78C76.7,320.1,75.7,321,75.7,322.2z"/>
</svg>
