<svg xmlns="http://www.w3.org/2000/svg" width="2500" height="458" viewBox="356.027 243.8 114.545 21"><path fill="#EC1C24" d="M364.178 254.521c-.734 0-1.102-.587-1.322-1.102-.22-.515-.146-.954-.66-.954s-1.762 1.541-1.982 3.598c0 .221-.074 1.615-.074 2.35v2.203c0 .807-.072 1.835.074 2.422.146.809.367.882.954 1.176.22.073.294.146.44.146v.074h-5.58v-.074c.146 0 .221-.073.44-.146.661-.294.808-.367.954-1.176.147-.587.074-1.615.074-2.422v-5.214-2.423c-.074-.588-.221-.734-.514-.955-.295-.22-.588-.22-.809-.293v-.074h3.745c.147 0 .147.074.147.147v3.378c.366-1.469 1.101-2.424 1.541-2.864.441-.44 1.176-.954 2.13-.954.44 0 .954.146 1.321.514.221.221.441.66.441 1.248.074.733-.365 1.395-1.32 1.395zM376 257.017h-7.857c0 3.524.44 5.287 1.322 6.315.66.807 1.321.954 2.202.954 2.423 0 3.671-1.982 4.186-4.038H376c-.515 2.569-2.203 4.332-4.773 4.332-1.469 0-3.084-.367-4.186-1.543-1.175-1.321-1.615-2.863-1.615-4.992 0-4.039 2.276-6.682 5.507-6.682 3.671 0 5.287 2.496 5.287 4.846-.148.221-.148.514-.22.808zm-3.525-4.919c-.514-.515-.954-.661-1.688-.661-.661 0-1.102.146-1.542.661-.661.734-1.027 2.35-1.102 4.699h4.332c.881 0 .955 0 .955-1.322-.075-1.762-.514-2.938-.955-3.377zm12.482 12.482c-.734 0-1.321 0-1.615-.221-.367-.221-.66-.808-.588-1.909-.293 1.028-1.32 2.13-3.23 2.13-1.762 0-3.304-1.028-3.304-3.158 0-.807.22-1.468.734-1.908.954-.881 2.202-.955 3.45-1.469 1.689-.661 2.497-1.469 2.497-2.35v-2.276c0-1.615-.44-1.909-1.688-1.909-.661 0-1.028.146-1.322.44-.293.294-.44.954-.44 1.836 0 .954-.514 1.321-1.321 1.321-.661 0-1.175-.367-1.175-1.102 0-.514.146-.881.514-1.248.661-.808 2.497-1.321 3.745-1.321 2.203 0 4.332.808 4.332 2.937 0 .955-.074 5.728-.074 7.49 0 1.321 0 1.762.295 2.056a.928.928 0 0 0 .66.294c.294 0 .514-.074.808-.221v.074c-.369.22-1.323.514-2.278.514zm-4.111-6.535c-.809.44-1.176.734-1.469 1.175-.294.514-.514 1.321-.514 2.13 0 1.688.66 2.643 1.836 2.643.22 0 .514 0 .733-.146.661-.294 1.249-1.322 1.249-2.276v-4.993c-.367.659-1.028 1.026-1.835 1.467zm6.02 6.241c.147-.073.367-.147.515-.22.514-.221.734-.367.881-1.176.146-.587.146-1.541.146-2.423V247.47c0-.514 0-1.908-.073-2.422-.073-.588-.22-.809-.515-.955-.293-.221-.587-.221-.807-.294h3.744c.146 0 .146 0 .146.221v16.595c0 .807 0 1.762.074 2.422.146.809.367.955 1.027 1.176.147.073.221.073.367.146v.074h-5.507v-.147h.002z"/><path fill="#231F20" d="M400.45 262.67c-.44.955-1.763 1.91-3.084 1.91-1.175 0-1.909-.147-2.569-.809-.514-.514-.809-1.102-.809-2.202 0-.587.074-8.37.147-9.839-.44 0-1.321 0-1.763-.074v-.073c1.836-.44 3.011-1.396 4.26-5.434h.072v5.36h2.938v.146h-2.938l-.146 10.721c0 1.102.294 1.762 1.542 1.762 1.028 0 1.836-.807 2.203-1.541l.147.073zm5.067 1.91c-2.937 0-6.095-2.57-6.095-6.609 0-4.037 3.158-6.607 6.095-6.607 2.938 0 6.168 2.496 6.168 6.607 0 4.039-3.158 6.609-6.168 6.609zm1.983-12.263c-.588-.734-1.322-.881-1.983-.881s-1.396.22-1.909.808c-.881.955-1.395 3.377-1.395 5.654 0 2.35.514 4.625 1.395 5.653.588.734 1.322.882 1.982.882.661 0 1.322-.147 1.982-.882.809-.954 1.396-3.304 1.396-5.653-.073-2.277-.587-4.552-1.468-5.581zm11.82 2.204c-.733 0-1.101-.587-1.32-1.102-.221-.515-.147-.954-.662-.954-.514 0-1.762 1.541-1.982 3.598 0 .221-.072 1.615-.072 2.35v2.203c0 .807-.074 1.835.072 2.422.147.809.367.882.955 1.176.221.073.293.146.44.146v.074h-5.507v-.074c.146 0 .221-.073.44-.146.661-.294.808-.367.954-1.176.147-.587.074-1.615.074-2.422v-5.214-2.423c-.074-.588-.221-.734-.514-.955-.295-.22-.588-.22-.809-.293v-.074h3.745c.147 0 .147.074.147.147v3.378c.366-1.469 1.101-2.424 1.541-2.864.441-.44 1.176-.954 2.13-.954.44 0 .954.146 1.321.514.221.221.441.66.441 1.248.003.733-.439 1.395-1.394 1.395zm1.397 10.279c-.882 0-1.616-.661-1.616-1.615s.734-1.615 1.616-1.615c.881 0 1.614.587 1.614 1.615-.073.954-.733 1.615-1.614 1.615zm8.443-.22c-1.615 0-3.084-.661-4.038-1.615-1.249-1.249-1.689-3.012-1.689-5.141 0-4.038 3.084-6.461 5.801-6.461 1.836 0 3.23.66 3.745 1.321.44.515.66.954.66 1.396 0 .954-.66 1.321-1.248 1.321-1.027 0-1.395-.661-1.469-1.615-.22-1.688-.514-2.276-1.762-2.276-.514 0-1.321.221-1.763.734-.66.808-1.027 2.717-1.027 5.066 0 2.938.367 4.846 1.102 5.947.587.809 1.321 1.028 1.982 1.028 2.717 0 3.892-2.35 4.332-4.112h.146c-.734 2.497-2.276 4.407-4.772 4.407zm10.721 0c-2.938 0-6.095-2.57-6.095-6.609 0-4.037 3.157-6.607 6.095-6.607 2.937 0 6.167 2.496 6.167 6.607 0 4.039-3.231 6.609-6.167 6.609zm1.982-12.263c-.588-.734-1.322-.881-1.982-.881-.661 0-1.396.22-1.909.808-.882.955-1.396 3.377-1.396 5.654 0 2.35.514 4.625 1.396 5.653.587.734 1.321.882 1.982.882.66 0 1.321-.147 1.982-.882.808-.954 1.395-3.304 1.395-5.653-.146-2.277-.66-4.552-1.468-5.581zm18.87 11.969c.147-.073.221-.147.44-.22.588-.221.808-.367.955-1.176.146-.587.146-1.541.146-2.423v-5.214c0-1.395-.146-2.055-.44-2.496-.367-.514-.881-.808-1.615-.808-1.322 0-2.864 1.175-3.084 3.451 0 .44-.073.954-.073 1.542v3.451c0 .808-.074 1.762.073 2.423.146.808.367.954.954 1.175.221.074.294.146.441.146v.074h-5.581v-.074c.147 0 .221-.072.44-.146.588-.221.808-.367.955-1.175.146-.587.146-1.542.146-2.423v-5.213c0-1.396-.146-2.057-.514-2.497-.367-.514-.881-.808-1.615-.808-1.469 0-2.864 1.248-3.084 3.524-.074.734-.074 1.615-.074 2.497v2.422c0 .809-.073 1.836.074 2.424.146.808.367.881 1.027 1.175l.44.147v.072h-5.58v-.072c.146 0 .221-.074.44-.147.661-.22.808-.367.955-1.175.146-.588.146-1.615.146-2.424v-5.139c0-.515 0-1.982-.073-2.424-.073-.587-.221-.734-.514-.954-.294-.221-.588-.221-.809-.294v-.073h3.745c.146 0 .146 0 .146.146l-.073 2.938c.367-1.321 1.028-2.056 1.689-2.57.514-.367 1.468-.808 2.496-.808 1.321 0 2.276.367 2.79 1.027.294.367.808 1.176.808 2.424.367-1.395 1.102-2.203 1.763-2.644.66-.514 1.688-.808 2.423-.808 1.615 0 2.423.514 2.863 1.102.367.44.734 1.248.734 2.79v5.286c0 .809 0 1.763.147 2.424.146.808.367.955.954 1.175l.44.147v.072h-5.507v.151h.006zM468.37 254.006c-.294 0-.588-.072-.881-.146-.294-.146-.515-.293-.661-.44-.221-.22-.367-.44-.44-.661-.147-.293-.147-.514-.147-.881 0-.294.074-.588.147-.881.146-.294.293-.514.44-.734.22-.221.44-.367.734-.441.293-.146.587-.146.881-.146s.588.074.881.146c.294.147.515.295.661.441.221.221.367.44.44.66.146.295.146.515.146.882 0 .294-.073.587-.146.881-.146.294-.294.515-.44.734s-.44.367-.734.44c-.294.146-.587.146-.881.146zm0-.22c.294 0 .514-.073.808-.147.22-.072.44-.22.587-.439.147-.147.294-.367.441-.588.073-.221.146-.514.146-.734 0-.294-.073-.514-.146-.734a1.15 1.15 0 0 0-.441-.588c-.146-.146-.367-.293-.587-.439-.221-.074-.514-.147-.734-.147-.294 0-.514.073-.808.147a1.14 1.14 0 0 0-.588.439c-.146.147-.293.367-.44.588-.073.221-.146.514-.146.734 0 .293.073.514.146.734s.221.44.44.588c.147.146.367.293.588.439.219.074.513.147.734.147zm-.881-3.231h1.027c.294 0 .588.074.734.221s.221.294.221.514c0 .221-.074.367-.147.441-.073.146-.22.22-.367.293l.588.809h-.588l-.514-.734h-.367v.734h-.514v-2.277h-.073zm1.028 1.101c.147 0 .221 0 .294-.073s.073-.146.073-.22c0-.146 0-.221-.073-.221-.073-.073-.146-.073-.294-.073h-.514v.661h.514v-.074z"/></svg>