<?xml version="1.0" encoding="utf-8"?>
<!-- Generator: Adobe Illustrator 19.2.1, SVG Export Plug-In . SVG Version: 6.00 Build 0)  -->
<svg version="1.1" id="layer" xmlns="http://www.w3.org/2000/svg" xmlns:xlink="http://www.w3.org/1999/xlink" x="0px" y="0px"
	 viewBox="0 0 652 652" style="enable-background:new 0 0 652 652;" xml:space="preserve">
<style type="text/css">
	.st0{fill:#C82021;}
</style>
<path class="st0" d="M330.8,272.3c-10.9-7.1-26.2-9.8-45.8-9.8h-37.6v124.9h38.7c13.6,0,25.6-1.6,35.5-5.5
	c9.8-3.8,17.5-10.4,22.9-19.6c5.5-9.3,8.2-21.3,8.2-36.5c0-13.1-1.6-24-4.9-32.7C342.8,283.7,337.9,276.6,330.8,272.3z M320.5,346.5
	c-1.6,6-4.9,10.9-9.3,14.2c-4.9,3.8-12.5,5.5-22.4,5.5h-13.6v-84h11.5c10.9,0,19.6,1.6,25.1,6c3.8,3.3,7.1,7.1,8.7,13.1
	s2.7,13.1,2.7,21.8C323.2,332.8,322.6,340.5,320.5,346.5z M369.5,386.8h28.4v-52.9h33.3v-20.7h-33.3v-30.5h50.7v-20.7h-79.1
	C369.5,261.9,369.5,386.8,369.5,386.8z M467.2,386.8h28.4V261.9h-28.4C467.2,261.9,467.2,386.8,467.2,386.8z M621,261.9h-28.9v72
	l-52.9-72h-22.9v124.9h28.9v-73.6l52.4,73.6H621C621,386.8,621,261.9,621,261.9z M139.4,391.7c-2.2-1.1-4.9-2.7-11.5-13.6
	l-13.1-21.3l-15.3-25.1l-1.1-2.2c0.5,0,1.6-0.5,2.2-0.5c17.5-6,27.8-21.8,27.8-44.7c0-11.5-4.4-21.8-13.1-29.5
	c-1.1-1.1-2.7-2.2-3.8-3.3c-12-7.6-27.8-10.4-48.5-10.4H23.2c-2.2,0-2.7,1.6-1.6,2.7c1.1,1.1,2.2,2.7,2.2,7.1v125.5
	c-0.5,4.9-1.6,6.5-2.2,7.6c-1.1,1.1-0.5,2.7,2.2,2.7h28.9v-52.9h13.1l9.3,15.8l11.5,19.6l5.5,9.8c6.5,10.9,12.5,18,22.9,19.6
	c1.1,0,6.5,1.1,8.7,1.1h2.2c4.4,0,8.7-1.6,11.5-2.7c0,0,0.5-0.5,1.1-0.5C142.1,394.5,141,392.3,139.4,391.7z M71.2,313.2H52.6v-51.3
	h18.5c9.3,0,16.4,1.1,21.3,6c2.2,1.6,3.3,3.8,4.4,6.5c1.1,3.3,2.2,7.1,2.2,12C99,293,98.5,313.2,71.2,313.2z M176.5,333.9h33.3
	v-20.7h-33.3v-30.5h50.7v-20.7h-79.1v124.9h79.1v-20.7h-50.7V333.9z"/>
</svg>
