<?xml version="1.0" encoding="UTF-8" standalone="no"?>
<!-- Created with Inkscape (http://www.inkscape.org/) -->

<svg
   xmlns:dc="http://purl.org/dc/elements/1.1/"
   xmlns:cc="http://creativecommons.org/ns#"
   xmlns:rdf="http://www.w3.org/1999/02/22-rdf-syntax-ns#"
   xmlns:svg="http://www.w3.org/2000/svg"
   xmlns="http://www.w3.org/2000/svg"
   xmlns:sodipodi="http://sodipodi.sourceforge.net/DTD/sodipodi-0.dtd"
   xmlns:inkscape="http://www.inkscape.org/namespaces/inkscape"
   width="999.99994"
   height="203.69539"
   id="svg3173"
   version="1.1"
   inkscape:version="0.48.5 r10040"
   sodipodi:docname="New document 5">
  <defs
     id="defs3175" />
  <sodipodi:namedview
     id="base"
     pagecolor="#ffffff"
     bordercolor="#666666"
     borderopacity="1.0"
     inkscape:pageopacity="0.0"
     inkscape:pageshadow="2"
     inkscape:zoom="0.4036171"
     inkscape:cx="143.87529"
     inkscape:cy="-211.87414"
     inkscape:document-units="px"
     inkscape:current-layer="layer1"
     showgrid="false"
     fit-margin-left="0.5"
     fit-margin-bottom="0.5"
     fit-margin-top="0.5"
     fit-margin-right="0.5"
     inkscape:window-width="1052"
     inkscape:window-height="1032"
     inkscape:window-x="857"
     inkscape:window-y="-15"
     inkscape:window-maximized="0" />
  <metadata
     id="metadata3178">
    <rdf:RDF>
      <cc:Work
         rdf:about="">
        <dc:format>image/svg+xml</dc:format>
        <dc:type
           rdf:resource="http://purl.org/dc/dcmitype/StillImage" />
        <dc:title></dc:title>
      </cc:Work>
    </rdf:RDF>
  </metadata>
  <g
     inkscape:label="Layer 1"
     inkscape:groupmode="layer"
     id="layer1"
     transform="translate(-277.46875,-348.85424)">
    <path
       inkscape:connector-curvature="0"
       d="m 787.34614,419.73789 c -5.92,0 -11.51826,1.08748 -16.92348,3.256 -5.34087,2.16852 -9.90956,5.14782 -13.89913,9.21461 -1.09391,-1.35131 -2.44521,-2.70905 -4.05391,-4.33705 -1.54435,-1.3513 -3.47478,-2.70904 -5.59826,-4.06678 -2.12348,-1.08104 -4.5687,-2.16852 -7.5287,-2.9793 -2.89565,-0.54696 -6.11304,-1.08748 -9.90956,-1.08748 -5.85565,0 -11.26087,1.08748 -15.50783,3.52626 -4.56869,2.16852 -8.30087,5.14782 -11.00348,8.67409 -1.09391,-10.03183 -1.09391,-10.03183 -1.09391,-10.03183 -27.02609,0 -27.02609,0 -27.02609,0 0,89.74591 0,89.74591 0,89.74591 28.12,0 28.12,0 28.12,0 0,-48.26087 0,-48.26087 0,-48.26087 0,-5.69478 1.6087,-10.30208 5.08348,-14.09861 3.21739,-3.79652 7.78609,-5.69478 13.12696,-5.69478 4.82609,0 8.30087,1.628 10.74609,4.60731 2.38086,2.71547 3.73217,7.05252 3.73217,12.20034 0,51.24661 0,51.24661 0,51.24661 27.34783,0 27.34783,0 27.34783,0 0,-48.26087 0,-48.26087 0,-48.26087 0,-5.69478 1.60869,-10.30208 4.82608,-14.09861 3.21739,-3.79652 7.78609,-5.69478 13.12696,-5.69478 4.82609,0 8.55826,1.628 11.00348,4.60731 2.38087,2.71547 3.47478,7.05252 3.47478,12.20034 0,51.24661 0,51.24661 0,51.24661 28.37739,0 28.37739,0 28.37739,0 0,-55.58365 0,-55.58365 0,-55.58365 0,-11.11287 -3.21739,-20.06365 -9.39478,-26.56922 -6.11305,-6.50556 -15.25044,-9.76156 -27.02609,-9.76156 m 116.01913,55.85391 c -0.83652,2.70904 -2.44522,5.42452 -4.3113,7.59304 -1.86609,2.43879 -3.98957,4.33705 -6.94957,5.69479 -2.70261,1.3513 -5.92,1.89826 -9.39478,1.89826 -3.47478,0 -6.69217,-0.54696 -9.39478,-1.89826 -2.89566,-1.35774 -5.34087,-3.256 -6.94957,-5.69479 -1.86609,-2.16852 -3.21739,-4.884 -4.24695,-7.59304 -1.09392,-2.98574 -1.6087,-5.96504 -1.6087,-8.94435 0,-2.98574 0.51478,-5.96504 1.6087,-8.95078 1.02956,-2.70904 2.38086,-5.42452 4.24695,-7.59304 1.6087,-2.16853 4.05391,-4.06679 6.94957,-5.41809 2.70261,-1.35774 5.92,-1.89826 9.39478,-1.89826 3.47478,0 6.69217,0.54052 9.39478,1.89826 2.96,1.3513 5.08348,3.24956 6.94957,5.41809 1.86608,2.16852 3.47478,4.884 4.3113,7.59304 1.02957,2.98574 1.35131,5.96504 1.35131,8.95078 0,2.97931 -0.32174,5.95861 -1.35131,8.94435 m 14.99305,-42.83635 c -4.31131,-4.34348 -9.65218,-7.59304 -15.57218,-10.30208 -6.11304,-2.44522 -12.54782,-3.52627 -20.07652,-3.52627 -7.20696,0 -13.89913,1.08105 -20.07652,3.52627 -6.17739,2.70904 -11.26087,5.9586 -15.57218,10.30208 -4.24695,4.33705 -7.72174,9.48487 -10.16695,15.17965 -2.38087,5.96505 -3.73218,12.20035 -3.73218,18.71235 0,6.77583 1.35131,12.74087 3.73218,18.70592 2.44521,5.69478 5.92,10.8426 10.16695,15.17965 4.31131,4.34348 9.39479,7.8633 15.57218,10.30852 6.17739,2.43878 12.86956,3.79009 20.07652,3.79009 7.5287,0 13.96348,-1.35131 20.07652,-3.79009 5.92,-2.44522 11.26087,-5.96504 15.57218,-10.30852 4.3113,-4.33705 7.78608,-9.48487 10.16695,-15.17965 2.44522,-5.96505 3.47478,-11.93009 3.47478,-18.70592 0,-6.512 -1.02956,-12.7473 -3.47478,-18.71235 -2.38087,-5.69478 -5.85565,-10.8426 -10.16695,-15.17965 m 84.16698,-10.84904 c -21.17046,58.83965 -21.17046,58.83965 -21.17046,58.83965 -21.74957,-58.83965 -21.74957,-58.83965 -21.74957,-58.83965 -31.33739,0 -31.33739,0 -31.33739,0 38.86609,89.74591 38.86609,89.74591 38.86609,89.74591 26.5113,0 26.5113,0 26.5113,0 39.63823,-89.74591 39.63823,-89.74591 39.63823,-89.74591 l -30.7582,0 z m 54.3739,35.52 c 0,-2.16852 0.2574,-4.06678 1.0296,-5.96504 1.0939,-1.89827 2.1878,-3.79653 3.7965,-5.42453 1.8661,-1.628 3.7321,-2.9793 6.4348,-4.06678 2.3808,-1.08104 5.3408,-1.628 8.5582,-1.628 3.2174,0 5.92,0.54696 8.3009,1.628 2.4452,1.08748 4.3113,2.43878 5.92,4.06678 1.6087,1.628 2.8956,3.52626 3.4748,5.42453 0.7721,1.89826 1.3513,3.79652 1.3513,5.96504 l -38.8661,0 z m 65.6348,12.74087 c 0,-7.31635 -1.0939,-14.36887 -2.96,-20.60418 -2.1235,-6.2353 -5.0835,-11.65982 -8.8157,-16.26713 -4.0539,-4.6073 -8.5582,-8.13356 -14.2209,-10.57234 -5.5982,-2.71548 -12.2904,-3.79653 -19.8191,-3.79653 -7.2069,0 -13.9635,1.08105 -19.8191,3.79653 -5.92,2.70904 -11.0035,6.2353 -14.9931,10.57234 -4.0539,4.33705 -7.2713,9.22105 -9.3947,15.17966 -2.1235,5.69478 -3.2174,11.65982 -3.2174,17.89513 0,7.32278 1.0939,13.82834 3.4748,19.79339 2.1234,5.96504 5.5982,10.84904 9.9095,15.18609 4.5687,4.06678 9.9096,7.31634 16.087,9.76156 6.4348,2.43878 13.3843,3.51983 21.1704,3.51983 5.92,0 11.2609,-0.54053 15.8296,-1.62157 4.5043,-1.08748 8.5582,-2.16852 11.7756,-3.79652 3.4748,-1.35774 6.1774,-2.71548 8.3009,-4.06678 1.8661,-1.628 3.4748,-2.71548 4.5687,-3.256 -11.5183,-17.35461 -11.5183,-17.35461 -11.5183,-17.35461 -2.1878,1.35774 -5.4052,3.256 -9.9095,5.42452 -4.8261,2.16852 -10.7461,2.98574 -17.9531,2.98574 -7.5287,0 -13.4487,-1.628 -17.6956,-5.42452 -4.3113,-3.52626 -6.4348,-7.86331 -6.4348,-12.74087 65.6348,0 65.6348,0 65.6348,0 l 0,-4.61374 z m -470.25395,20.88087 c -2.12347,1.08104 -4.56869,1.3513 -7.46434,1.3513 -3.79653,0 -6.43479,-1.08104 -8.36522,-3.51982 -1.6087,-2.16853 -2.63826,-5.69479 -2.63826,-10.03183 0,-35.24974 0,-35.24974 0,-35.24974 23.80869,0 23.80869,0 23.80869,0 0,-21.69165 0,-21.69165 0,-21.69165 -23.80869,0 -23.80869,0 -23.80869,0 0,-27.10974 0,-27.10974 0,-27.10974 -28.12,0 -28.12,0 -28.12,0 0,27.10974 0,27.10974 0,27.10974 -14.47826,0 -14.47826,0 -14.47826,0 0,21.69165 0,21.69165 0,21.69165 14.47826,0 14.47826,0 14.47826,0 0,33.892 0,33.892 0,33.892 0,5.42452 0.51478,10.57235 1.60869,15.17965 1.28696,4.61374 3.2174,8.41026 5.85566,11.65983 2.96,3.256 6.43478,5.96504 11.00347,7.8633 4.31131,1.628 9.90957,2.71548 16.34435,2.71548 9.39478,0 18.21044,-2.98574 26.51131,-8.41026 -9.07305,-18.70591 -9.07305,-18.70591 -9.07305,-18.70591 -1.60869,1.35774 -3.53913,2.43878 -5.66261,3.256 M 331.82788,420.27841 c -6.69217,0 -12.03304,1.35774 -16.08696,4.06678 -4.24695,2.71548 -7.46434,5.69478 -9.65217,8.95078 -1.02957,-11.38956 -1.02957,-11.38956 -1.02957,-11.38956 -27.09043,0 -27.09043,0 -27.09043,0 0,89.74591 0,89.74591 0,89.74591 28.12,0 28.12,0 28.12,0 0,-44.46435 0,-44.46435 0,-44.46435 0,-7.05252 2.18783,-12.4706 6.17739,-16.53739 4.31131,-3.79652 9.65218,-5.69478 16.34435,-5.69478 3.21739,0 5.92,0.27026 8.55826,0.81078 4.3113,-24.40069 4.3113,-24.40069 4.3113,-24.40069 -1.09391,-0.27026 -2.12347,-0.54052 -3.47478,-0.81079 -1.60869,-0.27695 -3.79652,-0.27695 -6.17739,-0.27695 m 17.11652,91.37391 c 28.18435,0 28.18435,0 28.18435,0 0,-89.74591 0,-89.74591 0,-89.74591 -28.18435,0 -28.18435,0 -28.18435,0 l 0,89.74591 z m 103.98609,-40.1273 c 0,5.96504 -1.6087,10.30209 -4.82609,13.01113 -3.21739,2.71548 -7.46435,4.06678 -13.38435,4.06678 -6.17739,0 -10.74608,-1.89182 -13.96347,-5.68834 -3.2174,-3.79653 -4.82609,-8.95079 -4.82609,-15.45635 0,-3.256 0.57913,-6.50557 1.3513,-9.49131 1.09392,-2.9793 2.70261,-5.69478 4.5687,-7.8633 2.12348,-2.16852 4.56869,-4.06678 7.52869,-5.41809 3.2174,-1.35774 6.69218,-1.89826 10.68174,-1.89826 2.96,0 5.40522,0 7.27131,0.54052 1.86609,0.27026 3.73217,0.81079 5.59826,1.35774 l 0,26.83948 z m -12.61217,-51.51687 c -7.72174,0 -14.99305,1.08748 -21.68522,3.52626 -6.43478,2.16852 -12.03305,5.42452 -16.60174,9.76157 -4.5687,4.33704 -8.30087,9.4913 -10.74609,15.17965 -2.63826,5.96504 -3.98956,12.7473 -3.98956,19.79339 0,6.2353 1.09391,12.20035 2.96,17.35461 1.86608,5.15426 4.56869,9.76156 8.30087,13.55809 3.47478,3.79652 7.78608,6.77582 12.86956,8.94434 5.34087,2.16853 10.93913,2.98574 17.69565,2.98574 9.90957,0 17.63131,-2.44521 23.55131,-7.32278 0,6.2353 0,6.2353 0,6.2353 0,6.77583 -1.86609,11.65921 -5.66261,14.91264 -3.47478,3.52497 -8.55826,5.15169 -14.99304,5.15169 -5.08348,0 -9.65218,-0.81336 -13.64174,-1.89826 -4.05392,-1.35517 -8.04348,-2.98188 -11.77566,-5.15107 -11.26087,19.52122 -11.26087,19.52122 -11.26087,19.52122 5.08348,3.25343 10.68174,5.6935 16.85914,7.32021 6.17739,1.62671 13.38434,2.16914 21.42782,2.16914 14.73565,0 25.99652,-3.5243 34.55478,-10.57363 8.36522,-7.04995 12.61218,-17.89447 12.61218,-32.80967 0,-81.87618 0,-81.87618 0,-81.87618 -5.59826,-1.89826 -11.77565,-3.52626 -18.72522,-4.884 -6.69217,-1.3513 -13.96348,-1.89826 -21.74956,-1.89826 m 110.42086,-0.27026 c -5.08347,0 -10.16695,1.08748 -15.25043,2.71548 -4.82609,1.89182 -8.88,4.6073 -12.09739,8.13356 0,-46.6393 0,-46.6393 0,-46.6393 -27.86261,0 -27.86261,0 -27.86261,0 0,127.70469 0,127.70469 0,127.70469 28.12,0 28.12,0 28.12,0 0,-48.26086 0,-48.26086 0,-48.26086 0,-2.70905 0.57913,-5.15427 1.3513,-7.59305 0.83653,-2.16852 1.86609,-4.33704 3.47479,-6.2353 1.60869,-1.628 3.47478,-3.256 5.92,-4.33705 2.38087,-1.08747 5.08348,-1.628 8.04348,-1.628 4.56869,0 8.30086,1.628 11.00347,4.60731 2.63826,2.71548 3.98957,7.05252 3.98957,12.20035 0,51.2466 0,51.2466 0,51.2466 28.12,0 28.12,0 28.12,0 0,-55.58365 0,-55.58365 0,-55.58365 0,-11.93008 -3.21739,-20.87443 -9.33044,-27.10974 -6.43478,-6.2353 -15.05739,-9.22104 -25.48174,-9.22104 M 373.65397,386.93311 c -1.35131,-1.35774 -2.96,-2.16852 -4.82609,-2.70905 -1.93043,-0.81721 -3.79652,-1.08747 -5.66261,-1.08747 -1.86609,0 -3.73217,0.27026 -5.59826,1.08747 -1.86609,0.54053 -3.47478,1.35131 -4.82609,2.70905 -1.60869,1.08104 -2.7026,2.70904 -3.47478,4.33704 -0.83652,1.89826 -1.3513,4.06678 -1.3513,6.23531 0,2.43878 0.51478,4.33704 1.3513,6.2353 0.77218,1.628 1.86609,3.256 3.47478,4.33704 1.35131,1.35774 2.96,2.17496 4.82609,2.98574 1.86609,0.54052 3.73217,0.81079 5.59826,0.81079 1.86609,0 3.73218,-0.27027 5.66261,-0.81079 1.86609,-0.81078 3.47478,-1.628 4.82609,-2.98574 1.28695,-1.08104 2.63826,-2.70904 3.47478,-4.33704 0.77217,-1.89826 1.02957,-3.79652 1.02957,-6.2353 0,-2.16853 -0.2574,-4.33705 -1.02957,-6.23531 -0.83652,-1.628 -2.18783,-3.256 -3.47478,-4.33704"
       style="fill:#262637;fill-opacity:1;fill-rule:evenodd;stroke:none"
       id="path3063" />
    <path
       inkscape:connector-curvature="0"
       d="m 1244.5374,459.97458 c 17.3096,0 17.3096,0 17.3096,0 0,-51.72921 0,-51.72921 0,-51.72921 -47.6174,-39.25861 -47.6174,-39.25861 -47.6174,-39.25861 -47.6174,39.25861 -47.6174,39.25861 -47.6174,39.25861 0,51.72921 0,51.72921 0,51.72921 17.0522,0 17.0522,0 17.0522,0 30.5652,-24.93478 30.5652,-24.93478 30.5652,-24.93478 l 30.3078,24.93478 z m 19.4331,14.85792 c -25.16,0 -25.16,0 -25.16,0 -24.5809,-20.424 -24.5809,-20.424 -24.5809,-20.424 -24.9026,20.424 -24.9026,20.424 -24.9026,20.424 -24.8383,0 -24.8383,0 -24.8383,0 -3.5391,0 -6.7565,-1.32557 -9.2017,-3.71287 -2.4452,-2.38731 -3.7965,-5.57253 -3.7965,-9.02157 0,-54.91443 0,-54.91443 0,-54.91443 0,-3.44905 1.3513,-6.62783 3.7965,-9.01513 0.5148,-0.53409 0.5148,-0.53409 0.5148,-0.53409 58.4278,-48.28017 58.4278,-48.28017 58.4278,-48.28017 58.9426,48.81426 58.9426,48.81426 58.9426,48.81426 2.4452,2.3873 3.7965,5.56608 3.7965,9.01513 0,54.91443 0,54.91443 0,54.91443 0,3.44904 -1.3513,6.63426 -3.7965,9.02157 -2.4452,2.3873 -5.92,3.71287 -9.2017,3.71287"
       style="fill:#00deb6;fill-opacity:1;fill-rule:evenodd;stroke:none"
       id="path3037" />
    <path
       inkscape:connector-curvature="0"
       d="m 1244.5374,459.97458 c 17.3096,0 17.3096,0 17.3096,0 0,-51.72921 0,-51.72921 0,-51.72921 -47.6174,-39.25861 -47.6174,-39.25861 -47.6174,-39.25861 -47.6174,39.25861 -47.6174,39.25861 -47.6174,39.25861 0,51.72921 0,51.72921 0,51.72921 17.0522,0 17.0522,0 17.0522,0 30.5652,-24.93478 30.5652,-24.93478 30.5652,-24.93478 l 30.3078,24.93478 z m 19.4331,14.85792 c -25.16,0 -25.16,0 -25.16,0 -24.5809,-20.424 -24.5809,-20.424 -24.5809,-20.424 -24.9026,20.424 -24.9026,20.424 -24.9026,20.424 -24.8383,0 -24.8383,0 -24.8383,0 -3.5391,0 -6.7565,-1.32557 -9.2017,-3.71287 -2.4452,-2.38731 -3.7965,-5.57253 -3.7965,-9.02157 0,-54.91443 0,-54.91443 0,-54.91443 0,-3.44905 1.3513,-6.62783 3.7965,-9.01513 0.5148,-0.53409 0.5148,-0.53409 0.5148,-0.53409 58.4278,-48.28017 58.4278,-48.28017 58.4278,-48.28017 58.9426,48.81426 58.9426,48.81426 58.9426,48.81426 2.4452,2.3873 3.7965,5.56608 3.7965,9.01513 0,54.91443 0,54.91443 0,54.91443 0,3.44904 -1.3513,6.63426 -3.7965,9.02157 -2.4452,2.3873 -5.92,3.71287 -9.2017,3.71287"
       style="fill:#00deb6;fill-opacity:1;fill-rule:evenodd;stroke:none"
       id="path3061" />
  </g>
</svg>
