<?xml version="1.0" encoding="UTF-8"?>
<svg id="SVGRoot" width="500" height="121.9" version="1.1" viewBox="0 0 500.00003 121.89927" xmlns="http://www.w3.org/2000/svg" xmlns:cc="http://creativecommons.org/ns#" xmlns:dc="http://purl.org/dc/elements/1.1/" xmlns:rdf="http://www.w3.org/1999/02/22-rdf-syntax-ns#"><metadata><rdf:RDF><cc:Work rdf:about=""><dc:format>image/svg+xml</dc:format><dc:type rdf:resource="http://purl.org/dc/dcmitype/StillImage"/><dc:title/></cc:Work></rdf:RDF></metadata><g transform="translate(-177.9 -65.792)" fill="#e00034"><path d="m483.76 87.642c-11.54 0-19.548 2.3484-25.59 6.7969-6.0394 4.4464-9.3222 10.309-10.633 17.572-0.57063 3.1626-0.6086 6.5788-0.20771 9.2365 0.43918 2.9117 1.6887 5.2568 3.4815 7.0551-1.9014 1.2815-3.57 2.8187-4.9935 4.6112-1.4286 1.799-2.3552 3.8977-2.7866 6.2906-0.3853 2.1372-0.24915 4.338 0.4014 6.6053 0.64964 2.2644 2.0449 4.0394 4.1907 5.3209-3.2034 2.1411-5.7014 4.3662-7.3048 6.8015-1.9019 2.8888-2.8475 5.5459-3.3957 8.5892-1.2171 6.7572 0.56104 12.192 5.5931 15.78 5.0362 3.591 13.059 5.3897 24.069 5.3897 23.077 0 34.57-7.2322 37.076-21.17 0.52412-2.9148 0.67169-6.2464-0.13171-8.7803-0.66725-2.1044-2.0956-3.8933-4.2481-5.3885-2.1573-1.4985-5.2378-2.9527-8.9936-4.1072-3.7536-1.1538-8.7883-2.2942-14.289-3.5256-4.7828-1.0707-12.652-3.0817-12.652-3.0817-1.5277-0.34199-2.5081-0.76662-2.9434-1.2793-0.43625-0.51391-0.56007-1.2815-0.3746-2.3088 0.10777-0.59698 0.33604-1.1314 0.68682-1.6042 0.34818-0.46941 0.85292-1.6521 1.6946-1.3468 1.59 0.57675 3.3168 1.1818 5.0435 1.4773 2.7477 0.47023 5.2633 0.45182 8.3507 0.45182 10.391 0 17.336-1.6503 23.7-5.4524 6.3676-3.8042 10.256-9.7763 11.818-18.146 0.38295-2.0522 0.4656-4.2915 0.22807-6.0256-0.24666-1.8008-0.68232-3.3282-0.8458-5.0121l3.9319-1.1564c0.84176-0.24759 1.4893-0.55438 1.9443-0.89447 0.45744-0.34185 0.77548-0.98282 0.94164-1.9227l1.3162-7.4455c0.1659-0.93846 0-1.7302-0.49437-2.37-0.49939-0.64332-1.2398-0.96072-2.2069-0.96072zm-2.1819 15.134c4.6719 0 7.3905 0.78444 8.5175 2.635 1.655 2.7172 1.477 4.9616 1.0041 7.6272-0.48622 2.7405-1.6778 4.9186-3.5575 6.5429-1.8779 1.6226-4.7592 2.4324-9.4312 2.4324-2.5533 0-4.5568-0.25507-6.0013-0.76577-1.4491-0.5123-2.5603-1.1823-3.2683-2.0552-1.738-2.1431-1.355-4.9053-0.94921-7.1812 0.47252-2.6504 1.7143-4.8495 3.7014-6.6002 1.9894-1.7527 5.318-2.635 9.9844-2.635zm-11.546 56.18c2.8804 0.6289 5.1416 1.2871 6.8105 1.8004 1.6685 0.51324 2.929 1.0431 3.8174 1.5354 1.8711 1.0368 1.8938 2.6821 1.594 4.3602-0.16864 0.94363-0.48054 1.9463-0.93655 2.7629-0.45295 0.81119-1.1935 1.5146-2.2324 2.1151-1.0291 0.59486-2.4139 1.0465-4.1398 1.3468-1.7292 0.30089-3.9553 0.44978-6.6843 0.44978-5.1101 0-7.8442-0.66704-9.4989-1.7321-1.6609-1.069-2.3122-2.7207-1.8845-4.9425 0.41008-2.1305 0.86302-4.4683 1.8488-6.2192 0.69902-1.2415 1.4855-2.6713 2.5509-3.5307 3.1356 0.68464 5.6191 1.3693 8.7548 2.054z"/><path d="m416.33 86.482c-5.3836 0-10.271 0.92179-14.657 2.5043-4.3932 1.5852-7.6018 3.9349-10.944 6.7995-3.3417 2.8643-5.9791 6.351-8.1758 10.457-2.1943 4.1014-3.6248 8.7185-4.5483 13.85-0.53854 2.9926-1.0771 5.9852-1.6157 8.9778-0.9235 5.1317-1.0272 9.7482-0.30962 13.85 0.71827 4.1055 2.2275 7.5912 4.5348 10.455 2.3103 2.8672 4.4592 5.091 8.2798 6.6703 3.8174 1.5779 8.4196 2.6322 13.803 2.6322 5.3816 0 10.141-0.79319 14.529-2.3712 4.3909-1.5791 8.2304-4.0656 11.527-6.9312 3.2961-2.865 5.7805-6.3477 7.9778-10.455 2.1939-4.1006 3.6932-8.7068 4.547-13.85 0.49679-2.9926 0.99351-5.9852 1.4903-8.9778 0.85383-5.1435 1.0272-9.7492 0.30962-13.85-0.71846-4.1064-2.075-7.5923-4.3406-10.457-2.2649-2.864-4.913-5.2148-8.7342-6.7995-3.817-1.583-8.2903-2.5043-13.674-2.5043zm-3.3172 17.834c7.7937 0 10.751 5.3422 8.872 15.777-0.53899 2.9926-1.0779 5.9852-1.6169 8.9778-1.8936 10.514-6.6066 15.778-14.404 15.778-3.8552 0-6.0294-1.3264-7.5653-3.9754-1.5371-2.651-1.8422-6.5879-0.9008-11.803 0.54023-2.9926 1.0805-5.9852 1.6207-8.9778 0.94151-5.2151 2.6526-9.1274 5.1362-11.735 2.4837-2.6078 5.0029-4.0422 8.858-4.0422z"/><path d="m262.26 95.724c-3.3899 2.9023-5.8183 6.586-8.0691 10.775-2.2544 4.1908-3.8424 8.8487-4.7641 13.976l-1.6169 8.9791c-1.11 6.1542-1.0795 11.353 0.0994 15.586 1.1734 4.2312 3.1186 7.8916 5.8294 10.458 2.7035 2.5647 5.5479 4.4046 9.3127 5.5121 3.7629 1.111 7.6272 1.6666 11.591 1.6666 5.7258 0 9.6159-0.25408 13.761-0.77088 4.145-0.5168 8.4244-1.2943 12.841-2.3279 2.0886-0.4029 3.0904-1.7116 3.402-3.4861l1.7711-10.086c0.24066-1.3705-0.47702-2.1752-2.1406-2.0565-4.0858 0.29141-8.4054 0.62015-12.096 0.76706-4.5311 0.18037-8.6076 0.38405-12.961 0.38606-2.6455 1e-3 -4.7556-0.38167-6.3365-1.1442-1.579-0.7616-2.7811-1.7815-3.6123-3.0529-0.82937-1.2687-1.3106-2.7471-1.4474-4.4418-0.13667-1.6928-0.0404-3.4371 0.28157-5.2126l0.0444-0.25356h41.232c1.8489 0 2.959-1.0303 3.3295-3.081l1.3442-7.4412c0.87986-4.8704 1.004-9.3582 0.37844-13.464-0.62569-4.1068-2.0339-7.7848-4.2264-10.777-2.1915-2.9912-5.184-5.4726-8.9715-7.183-3.7872-1.7104-8.3712-2.6142-13.738-2.5687-9.8357 0.0833-18.258 3.3196-25.239 9.2421zm22.493 7.694c3.6977 0 6.3939 1.178 8.0833 3.5231 1.6895 2.3573 2.103 5.9278 1.241 10.715l-0.0904 0.51349h-23.528l0.0969-0.51349c0.84561-4.7023 2.5849-8.252 5.2177-10.644 2.6329-2.3942 5.2765-3.5932 8.9796-3.5932z"/><path d="m355.85 65.792c1.4374 0 2.4076 1.2545 2.1729 2.5665l-11.882 66.444c-0.59685 3.3374-0.53292 5.7391 0.51734 6.9784 1.0484 1.2393 3.1146 1.8633 6.2002 1.8633h18.419c1.4395 0 2.3919 1.2438 2.1694 2.5612l-2.0386 12.071c-0.2464 1.4593-1.3093 2.3538-3.1381 2.693-1.1028 0.25666-2.4758 0.48555-4.259 0.71545-4.8147 0.6207-9.0014 0.94846-13.925 0.95279-4.2318 4e-3 -7.0667-0.34101-10.862-1.0266-3.7955-0.68028-6.9842-2.0075-9.5792-3.9728-2.5894-1.9723-4.4328-4.7638-5.5284-8.4043-1.0973-3.6318-1.0857-8.6135-0.045-14.431l11.882-66.444c0.26539-1.4839 1.6842-2.5665 3.111-2.5665z"/><path d="m222.01 72.856c6.173 0 11.383 0.33226 15.481 0.98796 4.1196 0.66443 8.1323 1.5153 11.928 2.5278 1.1897 0.32181 1.5202 0.80498 1.3182 1.9302l-2.3033 12.831c-0.29115 1.6221-1.0503 1.7579-1.7963 1.7579h-0.41288c-3.9576-0.41528-7.9228-0.9396-11.625-1.2358-5.0342-0.40276-8.7399-0.77634-13.569-0.78044-3.3373-3e-3 -5.7421 0.3461-7.3446 1.0618-1.2749 0.56936-2.9045 1.8333-3.4152 4.63-0.28611 1.5664 0.0942 2.9779 1.1028 4.0802 0.80399 0.87537 1.9257 1.8193 3.4931 2.8002 5.9231 3.707 11.111 7.2066 17.043 10.9 2.8443 1.7712 5.1123 3.5956 6.7253 5.4057 2.8455 3.1931 4.7518 7.1083 4.862 11.11 0.0542 1.9757-0.11769 4.232-0.4744 6.1833-0.62837 3.4331-1.8941 6.9795-3.7629 10.022-1.8651 3.0306-4.364 5.6797-7.4297 7.8806-3.0965 2.222-6.8539 4.0009-11.173 5.293-4.3405 1.2956-9.679 1.8358-15.345 1.8225-7.2968-0.017-13.085-0.8474-19.738-1.9952-2.3242-0.40098-4.4437-0.86311-6.3107-1.3694-1.1861-0.31642-1.5106-0.80276-1.3092-1.9249l2.3034-12.833c0.21544-1.2003 1.1173-1.6152 2.115-1.7596h0.52695c2.0951 0.3129 4.4222 0.63245 6.9173 0.84732 7.2137 0.62122 11.979 1.3192 18.804 1.3254 4.1974 4e-3 7.0524-0.57221 8.7335-1.7473 1.7214-1.2033 2.8226-3.0552 3.2685-5.4968 0.27482-1.5048-0.027-2.9315-0.91989-4.2311-0.80047-1.165-2.2639-2.3843-4.46-3.7514-6.2229-3.8738-11.78-7.769-18.004-11.641-3.7467-2.3306-6.5002-5.3249-8.1631-8.923-1.6599-3.5916-2.0654-8.0843-1.1933-12.842 1.3625-7.4332 4.9626-13.151 10.693-16.992 5.8173-3.8991 12.751-5.8748 23.436-5.8748z"/><path d="m626.04 86.611c0.7007 0 1.273 0.26024 1.7075 0.77698 0.4383 0.51688 0.5915 1.1218 0.4673 1.8106l-2.2128 12.275c-0.1083 0.60091-0.3857 1.1619-0.8294 1.6788-0.8654 0.82223-1.5398 0.77343-2.6474 0.77343-3.2612 0-6.3793 0.6905-9.3492 1.5441-2.975 0.85503-5.2871 1.6605-7.9834 2.9385l-8.882 50.168c-0.1267 0.6803-0.4999 1.3043-1.1264 1.8563-0.6282 0.5555-1.2964 0.83323-1.9973 0.83323h-15.727c-0.70619 0-1.2965-0.27774-1.7672-0.83323-0.47812-0.559-0.64833-1.1795-0.52692-1.8616l12.163-68.364c0.1232-0.68554 0.4945-1.2832 1.1172-1.7965 0.6194-0.51696 1.2821-0.76998 1.9884-0.76998h15.459c0.7063 0 1.2766 0.26019 1.7131 0.77698 0.4382 0.5168 0.5938 1.118 0.4672 1.8106l-0.4672 2.5841c2.8212-1.9793 5.3744-3.5058 8.695-4.5845 3.3196-1.0783 6.5642-1.6173 9.7386-1.6173z"/><path d="m526.14 95.724c-3.3899 2.9023-5.8183 6.586-8.0691 10.775-2.2544 4.1908-3.8424 8.8487-4.7641 13.976l-1.6169 8.9791c-1.11 6.1542-1.0795 11.353 0.0994 15.586 1.1734 4.2312 3.1186 7.8916 5.8294 10.458 2.7035 2.5647 5.5479 4.4046 9.3127 5.5121 3.7629 1.111 7.6273 1.6666 11.591 1.6666 5.7258 0 9.6159-0.25408 13.761-0.77088 4.145-0.5168 8.4244-1.2943 12.841-2.3279 2.0886-0.4029 3.0904-1.7116 3.402-3.4861l1.7711-10.086c0.24066-1.3705-0.47701-2.1752-2.1406-2.0565-4.0858 0.29141-8.4054 0.62015-12.096 0.76706-4.5311 0.18037-8.6076 0.38405-12.961 0.38606-2.6455 1e-3 -4.7556-0.38167-6.3365-1.1442-1.5789-0.7616-2.7811-1.7815-3.6123-3.0529-0.82936-1.2687-1.3106-2.7471-1.4474-4.4418-0.13667-1.6928-0.0404-3.4371 0.28157-5.2126l0.0444-0.25356h41.232c1.8489 0 2.959-1.0303 3.3295-3.081l1.3442-7.4412c0.87986-4.8704 1.004-9.3582 0.37844-13.464-0.62569-4.1068-2.0339-7.7848-4.2264-10.777-2.1915-2.9912-5.184-5.4726-8.9715-7.183-3.7872-1.7104-8.3712-2.6142-13.738-2.5687-9.8357 0.0833-18.258 3.3196-25.239 9.2421zm22.493 7.694c3.6977 0 6.3939 1.178 8.0833 3.5231 1.6895 2.3573 2.103 5.9278 1.241 10.715l-0.0904 0.51349h-23.528l0.0969-0.51349c0.84561-4.7023 2.5849-8.252 5.2177-10.644 2.6329-2.3942 5.2766-3.5932 8.9796-3.5932z"/><path d="m677.9 105c0 10.48-8.4955 18.977-18.975 18.975l-23.224-4e-3c-1.9199-3.4e-4 -2.3499-0.9008-1.3235-1.823l8.3566-7.5088c-1.7661-2.8822-2.9147-6.0113-2.9147-9.6392 0-10.48 8.626-18.975 19.106-18.975s18.975 8.4954 18.975 18.975z" fill-rule="evenodd" stroke-width=".65238"/></g></svg>
