<svg width="434" height="57" viewBox="0 0 434 57" fill="none" xmlns="http://www.w3.org/2000/svg">
<path d="M426.333 56.5114C430.155 56.5114 433.254 53.4179 433.254 49.602C433.254 45.7861 430.155 42.6926 426.333 42.6926C422.511 42.6926 419.412 45.7861 419.412 49.602C419.412 53.4179 422.511 56.5114 426.333 56.5114Z" fill="#EC2E3A"/>
<path d="M426.333 28.2824C430.155 28.2824 433.254 25.189 433.254 21.3731C433.254 17.5571 430.155 14.4637 426.333 14.4637C422.51 14.4637 419.412 17.5571 419.412 21.3731C419.412 25.189 422.51 28.2824 426.333 28.2824Z" fill="#EC2E3A"/>
<path d="M148.655 47.5591V56.0009H117.739V47.5591H128.026V8.46869H117.739V0H138.448V47.5591H148.655Z" fill="#051316"/>
<path d="M185.738 47.5591V56.0009H154.822V47.5591H165.109V8.46869H154.822V0H175.531V47.5591H185.738Z" fill="#051316"/>
<path d="M198.179 56.0009V23.3897H188.323V14.9479H198.179V11.6142C198.179 4.08648 202.111 0 210.244 0H221.959V8.30738H211.995C209.49 8.30738 208.413 9.40965 208.413 11.883V14.921H221.959V23.3628H208.548V55.974H198.179V56.0009Z" fill="#051316"/>
<path d="M246.17 14.4637C233.647 14.4637 225.191 22.9055 225.191 35.4875C225.191 48.0696 233.647 56.5114 246.17 56.5114C258.692 56.5114 267.229 48.0965 267.229 35.4875C267.229 22.8786 258.773 14.4637 246.17 14.4637ZM246.17 47.962C239.868 47.962 235.775 42.7464 235.775 35.4875C235.775 28.2287 239.868 23.013 246.17 23.013C252.472 23.013 256.646 28.2018 256.646 35.4875C256.646 42.7733 252.525 47.962 246.17 47.962Z" fill="#051316"/>
<path d="M302.023 14.9481H312.391V56.0011H302.292V51.0005C299.68 54.0923 296.098 56.485 290.308 56.485C281.96 56.485 274.392 52.1834 274.392 38.1496V14.9481H284.76V37.3162C284.76 44.1449 287.265 47.9357 292.92 47.9357C298.575 47.9357 302.049 43.7954 302.049 36.3484V14.9481H302.023Z" fill="#051316"/>
<path d="M398.999 0V19.8947C396.387 16.6954 392.374 14.4371 386.745 14.4371C375.893 14.4371 367.544 22.7176 367.544 35.3803C367.544 48.043 375.569 56.4579 386.53 56.4579C392.535 56.4579 396.548 53.635 399.214 50.0593V55.974H409.313V0H398.972H398.999ZM388.684 47.9623C382.275 47.9623 378.155 42.8274 378.155 35.4878C378.155 28.1483 382.275 23.0133 388.684 23.0133C395.094 23.0133 399.16 28.1752 399.16 35.5954C399.16 43.0155 395.04 47.9892 388.684 47.9892V47.9623Z" fill="#051316"/>
<path d="M12.7649 56.0011L0 14.9481H11.8762L19.4167 44.4675L27.6035 14.9481H39.5336L47.7204 44.4675L55.2609 14.9481H67.1371L54.2106 56.028H41.5534L33.5551 26.3741L25.3952 56.028H12.7649V56.0011Z" fill="#051316"/>
<path d="M111.572 37.8808C111.76 36.6173 111.841 35.1117 111.841 34.1439C111.733 22.0726 103.6 14.4374 91.6164 14.4374C79.6324 14.4374 71.0686 22.7985 71.0686 35.5419C71.0686 48.2852 79.1477 56.4851 92.3704 56.4851C103.008 56.4851 109.956 50.1672 111.275 42.1286H101.042C99.9917 46.2689 96.6793 48.4734 91.9665 48.4734C86.0418 48.4734 82.11 44.5751 81.8676 38.3379V37.8808H111.572ZM91.6972 22.3415C96.8678 22.3415 100.476 25.2719 101.338 30.5144H82.1908C82.9449 25.4601 86.8228 22.3415 91.6972 22.3415Z" fill="#051316"/>
<path d="M332.777 56.0006H322.409V14.9476H332.508V19.9482C335.12 16.8564 338.702 14.4637 344.492 14.4637C352.84 14.4637 360.408 18.7652 360.408 32.7991V56.0006H350.039V33.6325C350.039 26.8038 347.535 23.013 341.88 23.013C336.224 23.013 332.75 27.1533 332.75 34.6003V56.0275L332.777 56.0006Z" fill="#051316"/>
</svg>
