<?xml version="1.0" encoding="UTF-8"?>
<!DOCTYPE svg PUBLIC "-//W3C//DTD SVG 1.1//EN" "http://www.w3.org/Graphics/SVG/1.1/DTD/svg11.dtd">
<svg xmlns="http://www.w3.org/2000/svg" version="1.1" width="614px" height="155px" style="shape-rendering:geometricPrecision; text-rendering:geometricPrecision; image-rendering:optimizeQuality; fill-rule:evenodd; clip-rule:evenodd" xmlns:xlink="http://www.w3.org/1999/xlink">
<g><path style="opacity:1" fill="#f8c700" d="M 120.5,45.5 C 120.41,48.1522 121.076,50.4855 122.5,52.5C 127.563,71.9942 127.73,91.6609 123,111.5C 116.558,134.79 101.725,143.79 78.5,138.5C 76.4855,137.076 74.1522,136.41 71.5,136.5C 62.6351,134.068 54.6351,130.068 47.5,124.5C 47.0269,123.094 46.0269,122.427 44.5,122.5C 40.7623,120.303 37.429,117.636 34.5,114.5C 33.7377,112.738 32.4044,111.738 30.5,111.5C 22.9754,104.763 16.6421,97.0968 11.5,88.5C 11.7148,86.8212 11.0481,85.8212 9.5,85.5C 4.77451,75.9353 3.44118,65.9353 5.5,55.5C 6.92381,53.4855 7.59047,51.1522 7.5,48.5C 15.5408,28.7968 29.8742,16.1301 50.5,10.5C 53.1522,10.5905 55.4855,9.92381 57.5,8.5C 80.7403,2.87616 99.5736,9.54283 114,28.5C 117.257,33.7725 119.423,39.4392 120.5,45.5 Z"/></g>
<g><path style="opacity:0.933" fill="#937607" d="M 57.5,8.5 C 55.4855,9.92381 53.1522,10.5905 50.5,10.5C 52.5145,9.07619 54.8478,8.40953 57.5,8.5 Z"/></g>
<g><path style="opacity:1" fill="#8f7300" d="M 62.5,37.5 C 54.6484,37.1746 46.9818,37.508 39.5,38.5C 38.9569,38.44 38.6236,38.1067 38.5,37.5C 46.6572,36.1796 54.6572,36.1796 62.5,37.5 Z"/></g>
<g><path style="opacity:1" fill="#050300" d="M 39.5,38.5 C 46.9818,37.508 54.6484,37.1746 62.5,37.5C 69.1074,38.6086 74.2741,41.942 78,47.5C 87.5,67.1667 97,86.8333 106.5,106.5C 102.053,109.564 98.2201,108.898 95,104.5C 86.9562,92.9121 78.7895,81.4121 70.5,70C 67.4536,67.826 64.1202,67.1593 60.5,68C 56.5,71.3333 52.5,74.6667 48.5,78C 45.3307,78.9782 42.4973,78.4782 40,76.5C 39.3333,75.8333 39.3333,75.1667 40,74.5C 51.4744,62.2783 51.3077,50.2783 39.5,38.5 Z"/></g>
<g><path style="opacity:0.894" fill="#000000" d="M 146.5,49.5 C 152.346,48.1834 158.346,48.1834 164.5,49.5C 168,56.5 171.5,63.5 175,70.5C 178.5,63.5 182,56.5 185.5,49.5C 190.167,48.1667 194.833,48.1667 199.5,49.5C 193.587,60.9932 187.421,72.3266 181,83.5C 180.5,92.1603 180.334,100.827 180.5,109.5C 175.5,109.5 170.5,109.5 165.5,109.5C 165.666,100.494 165.5,91.4938 165,82.5C 158.806,71.4377 152.639,60.4377 146.5,49.5 Z"/></g>
<g><path style="opacity:0.95" fill="#000000" d="M 237.5,48.5 C 241.833,48.5 246.167,48.5 250.5,48.5C 250.5,68.8333 250.5,89.1667 250.5,109.5C 246.167,109.5 241.833,109.5 237.5,109.5C 237.5,89.1667 237.5,68.8333 237.5,48.5 Z"/></g>
<g><path style="opacity:0.903" fill="#000000" d="M 257.5,48.5 C 262.167,48.5 266.833,48.5 271.5,48.5C 271.5,68.8333 271.5,89.1667 271.5,109.5C 266.833,109.5 262.167,109.5 257.5,109.5C 257.5,89.1667 257.5,68.8333 257.5,48.5 Z"/></g>
<g><path style="opacity:0.831" fill="#000000" d="M 388.5,49.5 C 398.224,49.1411 407.891,49.6411 417.5,51C 422.974,52.4735 426.474,55.9735 428,61.5C 430.791,72.1902 427.291,79.6902 417.5,84C 410.508,84.4996 403.508,84.6663 396.5,84.5C 396.5,92.8333 396.5,101.167 396.5,109.5C 393.833,109.5 391.167,109.5 388.5,109.5C 388.5,89.5 388.5,69.5 388.5,49.5 Z M 395.5,55.5 C 402.241,55.1712 408.908,55.6712 415.5,57C 421.245,61.2459 422.745,66.7459 420,73.5C 418.457,75.3783 416.624,76.8783 414.5,78C 408.231,79.2573 401.898,79.7573 395.5,79.5C 395.5,71.5 395.5,63.5 395.5,55.5 Z"/></g>
<g><path style="opacity:0.745" fill="#8c7106" d="M 120.5,45.5 C 121.924,47.5145 122.59,49.8478 122.5,52.5C 121.076,50.4855 120.41,48.1522 120.5,45.5 Z"/></g>
<g><path style="opacity:0.635" fill="#7b6306" d="M 7.5,48.5 C 7.59047,51.1522 6.92381,53.4855 5.5,55.5C 5.40953,52.8478 6.07619,50.5145 7.5,48.5 Z"/></g>
<g><path style="opacity:0.496" fill="#000000" d="M 589.5,56.5 C 591.604,56.2011 593.604,56.5344 595.5,57.5C 594.078,59.9647 593.078,62.6313 592.5,65.5C 591.745,62.3484 590.745,59.3484 589.5,56.5 Z"/></g>
<g><path style="opacity:0.476" fill="#000000" d="M 596.5,56.5 C 597.5,56.5 598.5,56.5 599.5,56.5C 600.101,62.196 601.101,62.5293 602.5,57.5C 603.325,56.6143 604.325,56.281 605.5,56.5C 605.5,59.5 605.5,62.5 605.5,65.5C 603.876,65.6399 602.71,64.9733 602,63.5C 601,66.1667 600,66.1667 599,63.5C 598.692,64.3081 598.192,64.9747 597.5,65.5C 596.516,62.5719 596.183,59.5719 596.5,56.5 Z"/></g>
<g><path style="opacity:0.794" fill="#000000" d="M 504.5,58.5 C 506.833,58.5 509.167,58.5 511.5,58.5C 511.5,60.1667 511.5,61.8333 511.5,63.5C 502.642,63.8819 500.808,67.5486 506,74.5C 508.138,83.0525 505.305,89.2192 497.5,93C 492.543,94.6638 487.543,94.9971 482.5,94C 477.265,97.613 477.931,100.28 484.5,102C 490.833,102.333 497.167,102.667 503.5,103C 511.796,105.76 514.63,111.26 512,119.5C 509.137,122.515 505.637,124.349 501.5,125C 495.167,125.667 488.833,125.667 482.5,125C 470.043,120.898 468.376,114.231 477.5,105C 474.606,102.091 473.773,98.5913 475,94.5C 476.214,92.9512 477.714,91.7845 479.5,91C 472.833,83.3333 472.833,75.6667 479.5,68C 485.792,64.114 492.292,63.614 499,66.5C 500.117,63.2409 501.95,60.5743 504.5,58.5 Z M 486.5,69.5 C 496.503,69.0016 500.67,73.6683 499,83.5C 495.003,89.7663 489.837,90.933 483.5,87C 477.847,80.1037 478.847,74.2704 486.5,69.5 Z M 481.5,107.5 C 488.156,108.047 494.823,108.547 501.5,109C 505.426,109.58 506.926,111.747 506,115.5C 504.048,117.894 501.548,119.394 498.5,120C 491.946,121.081 485.612,120.414 479.5,118C 475.663,113.79 476.33,110.29 481.5,107.5 Z"/></g>
<g><path style="opacity:0.905" fill="#000000" d="M 207.5,63.5 C 224.66,63.6602 232.993,72.3269 232.5,89.5C 222.81,89.1682 213.144,89.5016 203.5,90.5C 204.663,98.4057 208.996,101.239 216.5,99C 217.872,97.7581 218.872,96.2581 219.5,94.5C 223.831,93.3661 228.164,93.3661 232.5,94.5C 230.315,102.851 224.981,108.018 216.5,110C 199.759,111.757 190.759,104.257 189.5,87.5C 189.744,74.9546 195.744,66.9546 207.5,63.5 Z M 209.5,72.5 C 215.485,72.4847 218.485,75.4847 218.5,81.5C 213.833,81.5 209.167,81.5 204.5,81.5C 204.372,77.4153 206.039,74.4153 209.5,72.5 Z"/></g>
<g><path style="opacity:0.902" fill="#000000" d="M 291.5,63.5 C 313.578,63.7634 322.078,74.7634 317,96.5C 313.211,105.488 306.378,110.154 296.5,110.5C 285.569,109.733 278.736,104.067 276,93.5C 274.032,83.8707 276.199,75.3707 282.5,68C 285.324,65.9212 288.324,64.4212 291.5,63.5 Z M 294.5,72.5 C 299.558,72.1143 302.391,74.4476 303,79.5C 303.667,84.8333 303.667,90.1667 303,95.5C 301.287,100.038 298.12,101.538 293.5,100C 287.84,90.5128 288.174,81.3461 294.5,72.5 Z"/></g>
<g><path style="opacity:0.906" fill="#000000" d="M 316.5,65.5 C 321.348,64.1863 326.348,64.1863 331.5,65.5C 333.665,73.4944 335.832,81.4944 338,89.5C 340.312,81.2527 342.146,72.9193 343.5,64.5C 348.167,64.5 352.833,64.5 357.5,64.5C 358.884,72.9169 360.717,81.2502 363,89.5C 365.327,81.1906 367.494,72.8573 369.5,64.5C 373.514,64.3345 377.514,64.5012 381.5,65C 376.942,79.509 372.275,94.009 367.5,108.5C 363.5,109.833 359.5,109.833 355.5,108.5C 353.179,100.215 351.012,91.8819 349,83.5C 346.516,92.1012 344.35,100.768 342.5,109.5C 338.233,109.797 334.066,109.464 330,108.5C 325.763,93.9618 321.263,79.6285 316.5,65.5 Z"/></g>
<g><path style="opacity:0.796" fill="#000000" d="M 442.5,64.5 C 447.179,64.3342 451.845,64.5008 456.5,65C 462.274,67.116 465.441,71.2827 466,77.5C 466.5,88.1615 466.667,98.8281 466.5,109.5C 464.5,109.5 462.5,109.5 460.5,109.5C 460.664,106.813 460.497,104.146 460,101.5C 454.38,110.43 446.547,112.93 436.5,109C 430.456,105.551 428.29,100.385 430,93.5C 432.007,88.1622 435.841,84.9956 441.5,84C 447.455,82.9283 453.455,82.4283 459.5,82.5C 460.718,75.7561 458.051,71.5894 451.5,70C 444.176,68.6931 438.676,71.1931 435,77.5C 433.56,76.8524 432.06,76.5191 430.5,76.5C 431.534,69.4661 435.534,65.4661 442.5,64.5 Z M 453.5,86.5 C 455.5,86.5 457.5,86.5 459.5,86.5C 459.629,96.3575 454.963,102.357 445.5,104.5C 438.305,104.143 435.472,100.477 437,93.5C 437.833,91.3333 439.333,89.8333 441.5,89C 445.609,88.0557 449.609,87.2224 453.5,86.5 Z"/></g>
<g><path style="opacity:0.796" fill="#000000" d="M 525.5,64.5 C 542.419,62.7975 550.752,70.4642 550.5,87.5C 539.833,87.5 529.167,87.5 518.5,87.5C 519.265,101.799 526.265,106.632 539.5,102C 541.213,100.622 542.547,98.9552 543.5,97C 545.956,96.0539 547.956,96.5539 549.5,98.5C 543.651,108.923 534.984,112.423 523.5,109C 517.508,106.341 513.675,101.841 512,95.5C 508.522,81.3686 513.022,71.0352 525.5,64.5 Z M 527.5,69.5 C 537.635,67.9712 542.968,72.3045 543.5,82.5C 535.14,82.8312 526.807,82.4979 518.5,81.5C 520.085,76.2729 523.085,72.2729 527.5,69.5 Z"/></g>
<g><path style="opacity:0.803" fill="#000000" d="M 564.5,64.5 C 572.75,63.0961 579.916,65.0961 586,70.5C 587.009,72.0249 587.509,73.6916 587.5,75.5C 585.94,75.5191 584.44,75.8524 583,76.5C 577.379,68.8946 570.545,67.5613 562.5,72.5C 560.96,75.291 561.294,77.791 563.5,80C 570.439,82.152 577.439,84.152 584.5,86C 590.916,90.7001 592.083,96.5334 588,103.5C 583.432,107.968 577.932,109.968 571.5,109.5C 562.531,110.188 556.198,106.521 552.5,98.5C 554.003,97.443 555.67,96.7763 557.5,96.5C 563.457,104.545 571.123,106.545 580.5,102.5C 584.529,98.6811 584.196,95.1811 579.5,92C 573.856,90.5595 568.189,89.2261 562.5,88C 555.334,85.1659 552.834,79.9992 555,72.5C 557.161,68.4952 560.328,65.8286 564.5,64.5 Z"/></g>
<g><path style="opacity:1" fill="#080500" d="M 61.5,71.5 C 68.3295,70.8277 71.1628,73.8277 70,80.5C 64.3333,90.1667 58.6667,99.8333 53,109.5C 48.9395,106.428 47.6061,102.428 49,97.5C 52.9078,88.6851 57.0745,80.0185 61.5,71.5 Z"/></g>
<g><path style="opacity:0.929" fill="#745e11" d="M 9.5,85.5 C 11.0481,85.8212 11.7148,86.8212 11.5,88.5C 10.5987,87.7095 9.93205,86.7095 9.5,85.5 Z"/></g>
<g><path style="opacity:0.784" fill="#62500f" d="M 30.5,111.5 C 32.4044,111.738 33.7377,112.738 34.5,114.5C 32.5956,114.262 31.2623,113.262 30.5,111.5 Z"/></g>
<g><path style="opacity:0.369" fill="#554409" d="M 44.5,122.5 C 46.0269,122.427 47.0269,123.094 47.5,124.5C 45.9731,124.573 44.9731,123.906 44.5,122.5 Z"/></g>
<g><path style="opacity:0.965" fill="#917507" d="M 71.5,136.5 C 74.1522,136.41 76.4855,137.076 78.5,138.5C 75.8478,138.59 73.5145,137.924 71.5,136.5 Z"/></g>
</svg>
