<?xml version="1.0" encoding="UTF-8" standalone="no"?>
<!-- Created with Inkscape (http://www.inkscape.org/) -->

<svg
   xmlns:dc="http://purl.org/dc/elements/1.1/"
   xmlns:cc="http://creativecommons.org/ns#"
   xmlns:rdf="http://www.w3.org/1999/02/22-rdf-syntax-ns#"
   xmlns:svg="http://www.w3.org/2000/svg"
   xmlns="http://www.w3.org/2000/svg"
   xmlns:sodipodi="http://sodipodi.sourceforge.net/DTD/sodipodi-0.dtd"
   xmlns:inkscape="http://www.inkscape.org/namespaces/inkscape"
   width="131.23334mm"
   height="52.916668mm"
   viewBox="0 0 131.23334 52.916668"
   version="1.1"
   id="svg8"
   inkscape:version="0.92.5 (2060ec1f9f, 2020-04-08)"
   sodipodi:docname="yelp logo.svg">
  <defs
     id="defs2" />
  <sodipodi:namedview
     id="base"
     pagecolor="#ffffff"
     bordercolor="#666666"
     borderopacity="1.0"
     inkscape:pageopacity="0.0"
     inkscape:pageshadow="2"
     inkscape:zoom="1.1894531"
     inkscape:cx="102.43582"
     inkscape:cy="107.30438"
     inkscape:document-units="mm"
     inkscape:current-layer="layer1"
     showgrid="false"
     fit-margin-top="0"
     fit-margin-left="0"
     fit-margin-right="0"
     fit-margin-bottom="0"
     inkscape:window-width="1920"
     inkscape:window-height="1017"
     inkscape:window-x="1912"
     inkscape:window-y="70"
     inkscape:window-maximized="1" />
  <metadata
     id="metadata5">
    <rdf:RDF>
      <cc:Work
         rdf:about="">
        <dc:format>image/svg+xml</dc:format>
        <dc:type
           rdf:resource="http://purl.org/dc/dcmitype/StillImage" />
        <dc:title></dc:title>
      </cc:Work>
    </rdf:RDF>
  </metadata>
  <g
     inkscape:label="Layer 1"
     inkscape:groupmode="layer"
     id="layer1"
     transform="translate(-35.465716,-124.30762)">
    <g
       style="fill:none"
       id="g832"
       transform="matrix(1.6409947,0,0,1.6106094,35.464573,119.47579)">
      <path
         id="path815"
         d="m 79.191,14.498 a 8.97,8.97 0 0 0 -1.713,-2.442 3.871,3.871 0 0 0 -0.453,-0.377 4.096,4.096 0 0 0 -0.377,-0.26 h -0.027 l -0.034,-0.02 A 4.576,4.576 0 0 0 76.153,11.192 H 76.115 A 3.188,3.188 0 0 0 74.946,10.969 H 74.78 c -0.44,0.028 -0.869,0.146 -1.26,0.348 a 5.417,5.417 0 0 0 -1.26,0.924 h -0.023 l -0.023,0.023 a 0.292,0.292 0 0 1 -0.049,0.045 l -0.072,0.068 c -0.256,0.241 -0.513,0.502 -0.811,0.807 l -0.211,0.22 a 68.55,68.55 0 0 0 -0.796,0.81 c 0.082,-1.426 0.17,-2.886 0.241,-4.335 0,-0.185 0.019,-0.377 0.034,-0.559 0.053,-0.633 0.066,-1.27 0.038,-1.905 V 7.26 C 70.55,6.536 70.49,5.445 69.768,4.51 69.238,3.814 68.18,3 66.166,3 a 10.05,10.05 0 0 0 -1.362,0.102 13.24,13.24 0 0 0 -2.185,0.502 c -2.241,0.736 -3.535,1.886 -3.86,3.449 -0.238,1.158 0.189,2.166 0.468,2.833 l 0.06,0.144 c 0.253,0.585 0.544,1.152 0.872,1.698 l 0.272,0.487 a 308.363,308.363 0 0 0 2.109,3.773 l -1.08,-0.377 -0.275,-0.098 c -0.4,-0.147 -0.754,-0.272 -1.083,-0.378 l -0.09,-0.026 -0.064,-0.019 h -0.061 a 5.36,5.36 0 0 0 -1.54,-0.275 h -0.082 a 3.063,3.063 0 0 0 -1.204,0.241 c -0.422,0.178 -0.8,0.444 -1.11,0.781 a 5.74,5.74 0 0 0 -0.294,0.378 l -0.022,0.03 -0.023,0.034 a 4.408,4.408 0 0 0 -0.464,0.928 v 0.023 a 8.903,8.903 0 0 0 -0.472,2.931 C 53.714,16.388 50.56,13.599 46.839,13.599 a 7.64,7.64 0 0 0 -3.841,1.05 3.8,3.8 0 0 0 -4.732,-0.14 v -1.985 a 3.863,3.863 0 0 0 -3.811,-3.773 3.826,3.826 0 0 0 -3.812,3.834 v 4.124 A 4.33,4.33 0 0 0 30.338,16.35 9.033,9.033 0 0 0 26.334,13.916 8.647,8.647 0 0 0 21.636,13.92 h -0.041 a 8.192,8.192 0 0 0 -3.343,1.781 3.717,3.717 0 0 0 -3.374,-2.12 c -0.358,0 -0.713,0.052 -1.056,0.154 -1.887,0.57 -2.642,2.404 -3.102,3.498 -0.042,0.102 -0.08,0.197 -0.12,0.287 -0.114,0.272 -0.223,0.513 -0.31,0.706 a 8.34,8.34 0 0 0 -0.242,0.57 C 9.995,18.943 9.95,19.044 9.898,19.173 A 200.47,200.47 0 0 0 8.943,17.26 l -0.19,-0.4 C 8.278,15.84 7.565,14.309 5.792,13.773 a 3.728,3.728 0 0 0 -4.528,2.125 c -0.857,2.026 0.207,3.814 0.777,4.773 0.408,0.68 0.932,1.58 1.423,2.517 0.21,0.377 0.29,0.536 0.754,1.437 l 0.068,0.125 0.589,1.132 c 0.14,0.26 0.294,0.558 0.475,0.906 0.193,0.377 0.412,0.784 0.653,1.237 -0.041,0.057 -0.083,0.117 -0.132,0.174 L 5.837,28.24 5.784,28.214 a 4.94,4.94 0 0 0 -1.188,-0.423 3.945,3.945 0 0 0 -0.887,-0.102 3.72,3.72 0 0 0 -3.223,1.86 3.671,3.671 0 0 0 0.05,3.733 c 1.131,1.886 3.437,2.573 5.23,2.573 0.475,0.002 0.95,-0.047 1.414,-0.147 4.027,-0.875 5.77,-4.755 7.042,-7.588 l 0.256,-0.57 a 54.89,54.89 0 0 1 0.819,-1.789 l 0.253,-0.555 a 8.812,8.812 0 0 0 1.12,2.325 c 0.3,0.446 0.635,0.867 1.004,1.257 0.375,0.383 0.783,0.732 1.219,1.045 0.44,0.306 0.91,0.57 1.4,0.788 0.5,0.234 1.023,0.41 1.562,0.529 0.33,0.081 0.666,0.143 1.004,0.184 0.31,0.033 0.62,0.047 0.932,0.042 h 0.275 a 9.727,9.727 0 0 0 3.28,-0.566 c 0.484,-0.16 0.953,-0.365 1.4,-0.611 a 5.011,5.011 0 0 0 1.886,-1.94 3.826,3.826 0 0 0 3.773,3.347 c 0.817,0 1.611,-0.265 2.265,-0.755 v 1.193 a 3.811,3.811 0 1 0 7.622,0 v -1.041 c 0.804,0.28 1.65,0.423 2.502,0.422 4.475,0 8.116,-3.985 8.124,-8.883 0.092,0.297 0.219,0.582 0.377,0.85 0.24,0.378 0.554,0.703 0.925,0.954 a 3.396,3.396 0 0 0 1.796,0.57 h 0.294 a 6.318,6.318 0 0 0 1.475,-0.211 h 0.08 l 2.086,-0.472 c -0.328,0.453 -0.649,0.894 -0.958,1.332 l -0.174,0.245 c -0.252,0.347 -0.468,0.653 -0.66,0.947 l -0.053,0.083 -0.038,0.057 -0.018,0.026 v 0.027 a 5.441,5.441 0 0 0 -0.695,1.415 3.173,3.173 0 0 0 -0.12,1.317 c 0.058,0.452 0.213,0.887 0.452,1.275 v 0.019 c 0.087,0.136 0.185,0.268 0.283,0.377 l 0.023,0.023 0.019,0.026 c 0.105,0.125 0.222,0.242 0.34,0.355 0.138,0.137 0.287,0.263 0.445,0.378 0.746,0.51 1.562,0.91 2.422,1.188 0.733,0.244 1.494,0.39 2.264,0.434 h 0.22 a 3.11,3.11 0 0 0 0.377,-0.019 c 0.157,-0.013 0.313,-0.034 0.467,-0.064 h 0.068 c 0.158,-0.037 0.315,-0.083 0.468,-0.136 h 0.023 a 3.23,3.23 0 0 0 1.132,-0.717 3.26,3.26 0 0 0 0.713,-1.105 5.433,5.433 0 0 0 0.325,-1.54 v -0.068 a 0.351,0.351 0 0 0 0,-0.068 v -0.087 c 0.033,-0.377 0.049,-0.724 0.067,-1.132 v -0.58 l 0.129,0.233 0.147,0.276 c 0.204,0.377 0.377,0.694 0.558,0.996 l 0.046,0.075 0.041,0.068 v 0.023 l 0.02,0.03 c 0.289,0.448 0.642,0.85 1.048,1.196 0.325,0.305 0.71,0.538 1.132,0.683 h 0.023 c 0.327,0.11 0.67,0.166 1.015,0.166 0.107,0 0.214,-0.007 0.32,-0.019 h 0.035 c 0.162,-0.018 0.323,-0.045 0.483,-0.083 h 0.067 c 0.155,-0.04 0.308,-0.091 0.457,-0.15 0.178,-0.067 0.35,-0.147 0.517,-0.238 a 8.68,8.68 0 0 0 1.849,-1.385 9.532,9.532 0 0 0 1.66,-2.128 4.127,4.127 0 0 0 0.393,-0.993 v -0.064 a 4.01,4.01 0 0 0 0.083,-0.475 v -0.05 A 3.24,3.24 0 0 0 79.215,25.074 3.159,3.159 0 0 0 78.52,23.942 5.521,5.521 0 0 0 77.279,22.976 h -0.027 l -0.03,-0.018 -0.06,-0.034 -0.076,-0.05 c -0.301,-0.177 -0.637,-0.377 -0.992,-0.55 L 75.8,22.165 A 37.9,37.9 0 0 0 74.377,21.41 l 2.068,-0.479 h 0.08 a 5.708,5.708 0 0 0 1.678,-0.6 3.396,3.396 0 0 0 1.363,-1.298 c 0.212,-0.385 0.341,-0.81 0.377,-1.249 0.166,-1.362 -0.407,-2.566 -0.75,-3.286 z"
         inkscape:connector-curvature="0"
         style="fill:#ffffff;fill-opacity:0.95999995" />
      <path
         id="path817"
         d="m 63.603,21.892 1.245,-0.288 c 0.026,-0.006 0.07,-0.016 0.122,-0.033 a 1.374,1.374 0 0 0 0.983,-1.636 L 65.948,19.913 A 1.372,1.372 0 0 0 65.736,19.45 1.734,1.734 0 0 0 65.228,19.014 4.705,4.705 0 0 0 64.506,18.68 L 63.141,18.181 C 62.375,17.896 61.609,17.619 60.835,17.348 60.334,17.17 59.909,17.013 59.54,16.898 a 4.019,4.019 0 0 1 -0.209,-0.064 c -0.446,-0.136 -0.76,-0.193 -1.025,-0.195 a 1.22,1.22 0 0 0 -0.517,0.094 1.327,1.327 0 0 0 -0.45,0.32 2.736,2.736 0 0 0 -0.176,0.222 2.617,2.617 0 0 0 -0.262,0.522 7.085,7.085 0 0 0 -0.374,2.326 c 0.005,0.714 0.024,1.631 0.417,2.253 0.095,0.16 0.222,0.298 0.373,0.405 0.28,0.193 0.562,0.219 0.857,0.24 0.44,0.031 0.865,-0.076 1.29,-0.175 L 63.6,21.891 Z m 13.89,-6.609 a 7.072,7.072 0 0 0 -1.352,-1.927 2.08,2.08 0 0 0 -0.23,-0.198 2.682,2.682 0 0 0 -0.234,-0.157 2.666,2.666 0 0 0 -0.256,-0.123 1.318,1.318 0 0 0 -0.543,-0.09 c -0.177,0.01 -0.35,0.06 -0.507,0.143 -0.237,0.118 -0.494,0.308 -0.836,0.625 -0.047,0.047 -0.106,0.1 -0.16,0.15 -0.281,0.265 -0.595,0.592 -0.968,0.972 -0.577,0.583 -1.144,1.169 -1.709,1.76 l -1.01,1.048 a 4.71,4.71 0 0 0 -0.502,0.617 1.736,1.736 0 0 0 -0.267,0.615 1.41,1.41 0 0 0 0.012,0.51 l 0.005,0.022 a 1.373,1.373 0 0 0 1.598,1.04 1.28,1.28 0 0 0 0.125,-0.024 l 5.382,-1.244 c 0.425,-0.098 0.855,-0.188 1.236,-0.41 0.256,-0.147 0.499,-0.294 0.666,-0.59 a 1.33,1.33 0 0 0 0.158,-0.528 c 0.083,-0.734 -0.3,-1.567 -0.608,-2.211 z m -9.635,2.263 c 0.39,-0.49 0.39,-1.22 0.424,-1.818 0.118,-1.995 0.241,-3.99 0.34,-5.986 C 68.659,8.986 68.74,8.24 68.695,7.478 68.658,6.85 68.654,6.128 68.257,5.612 67.557,4.702 66.063,4.777 65.044,4.919 a 9.753,9.753 0 0 0 -0.935,0.176 c -0.31,0.074 -0.618,0.155 -0.918,0.252 -0.978,0.32 -2.353,0.908 -2.585,2.035 -0.132,0.637 0.18,1.288 0.42,1.87 0.293,0.704 0.692,1.339 1.056,2.002 0.963,1.751 1.943,3.492 2.92,5.234 0.293,0.52 0.61,1.178 1.175,1.448 0.038,0.016 0.076,0.03 0.115,0.043 0.253,0.096 0.53,0.114 0.793,0.053 l 0.047,-0.01 c 0.244,-0.067 0.464,-0.2 0.637,-0.383 0.032,-0.03 0.061,-0.06 0.09,-0.093 z m -0.467,5.341 a 1.245,1.245 0 0 0 -1.386,-0.467 1.27,1.27 0 0 0 -0.172,0.071 1.67,1.67 0 0 0 -0.245,0.153 3.233,3.233 0 0 0 -0.585,0.599 c -0.043,0.055 -0.083,0.128 -0.135,0.176 l -0.866,1.19 c -0.49,0.668 -0.975,1.337 -1.454,2.016 -0.314,0.439 -0.584,0.81 -0.799,1.137 -0.04,0.062 -0.082,0.13 -0.12,0.186 -0.257,0.396 -0.402,0.686 -0.477,0.944 A 1.233,1.233 0 0 0 61.1,29.424 c 0.024,0.186 0.087,0.365 0.184,0.526 0.052,0.08 0.108,0.158 0.168,0.233 a 2.644,2.644 0 0 0 0.435,0.4 c 0.598,0.416 1.252,0.715 1.94,0.946 0.573,0.19 1.168,0.304 1.77,0.338 0.103,0.005 0.206,0.003 0.308,-0.006 a 2.99,2.99 0 0 0 0.282,-0.04 2.69,2.69 0 0 0 0.276,-0.08 1.34,1.34 0 0 0 0.47,-0.3 c 0.127,-0.127 0.225,-0.28 0.286,-0.449 0.1,-0.25 0.166,-0.566 0.21,-1.036 0.003,-0.067 0.013,-0.147 0.02,-0.22 0.034,-0.39 0.05,-0.85 0.074,-1.388 0.043,-0.829 0.076,-1.654 0.102,-2.481 l 0.056,-1.472 c 0.013,-0.338 0.002,-0.714 -0.092,-1.051 a 1.574,1.574 0 0 0 -0.198,-0.457 z m 9.773,2.303 c -0.18,-0.199 -0.436,-0.396 -0.84,-0.64 -0.058,-0.033 -0.127,-0.076 -0.19,-0.114 -0.336,-0.203 -0.741,-0.415 -1.214,-0.672 -0.727,-0.4 -1.454,-0.788 -2.189,-1.174 l -1.297,-0.688 c -0.067,-0.02 -0.135,-0.068 -0.199,-0.099 a 3.234,3.234 0 0 0 -0.788,-0.281 1.67,1.67 0 0 0 -0.286,-0.03 1.45,1.45 0 0 0 -0.186,0.011 1.247,1.247 0 0 0 -1.04,1.029 c -0.019,0.165 -0.013,0.332 0.019,0.494 0.063,0.346 0.217,0.687 0.377,0.986 l 0.692,1.299 c 0.386,0.732 0.776,1.46 1.176,2.186 0.258,0.473 0.473,0.878 0.674,1.214 0.038,0.063 0.081,0.131 0.114,0.19 0.245,0.403 0.441,0.657 0.64,0.84 a 1.247,1.247 0 0 0 1.008,0.34 2.68,2.68 0 0 0 0.283,-0.05 2.612,2.612 0 0 0 0.551,-0.217 6.867,6.867 0 0 0 1.443,-1.08 c 0.518,-0.51 0.976,-1.066 1.332,-1.702 0.05,-0.09 0.092,-0.183 0.128,-0.28 a 2.84,2.84 0 0 0 0.087,-0.271 c 0.021,-0.094 0.037,-0.188 0.048,-0.283 a 1.34,1.34 0 0 0 -0.063,-0.553 1.229,1.229 0 0 0 -0.28,-0.456 z"
         inkscape:connector-curvature="0"
         style="fill:#ff1a1a" />
      <path
         id="path819"
         d="m 32.499,12.559 c 0,-1.07 0.871,-1.944 1.923,-1.944 1.037,0 1.879,0.874 1.924,1.96 v 15.174 c 0,1.07 -0.872,1.944 -1.924,1.944 a 1.924,1.924 0 0 1 -1.923,-1.944 z m -1.789,9.373 c -0.015,0.301 -0.09,0.859 -0.48,1.266 -0.421,0.437 -0.992,0.542 -1.323,0.542 -1.375,0.008 -2.75,0.012 -4.125,0.015 -1.375,0.004 -2.75,0.008 -4.125,0.015 0.12,0.377 0.36,0.95 0.901,1.477 0.33,0.317 0.646,0.497 0.782,0.573 0.165,0.105 0.736,0.407 1.442,0.407 0.752,0 1.413,-0.242 2.06,-0.573 l 0.053,-0.028 c 0.45,-0.233 0.913,-0.473 1.404,-0.56 0.48,-0.075 0.992,0.015 1.367,0.347 0.451,0.392 0.632,0.964 0.466,1.552 -0.195,0.663 -0.751,1.236 -1.337,1.582 a 6.61,6.61 0 0 1 -1.052,0.497 7.935,7.935 0 0 1 -2.9,0.453 c -0.24,0 -0.496,0 -0.752,-0.03 -0.27,-0.03 -0.54,-0.091 -0.796,-0.151 a 5.648,5.648 0 0 1 -1.203,-0.407 6.586,6.586 0 0 1 -1.097,-0.618 7.173,7.173 0 0 1 -0.961,-0.829 7.45,7.45 0 0 1 -0.797,-0.994 c -0.811,-1.236 -1.187,-2.758 -1.112,-4.235 0.06,-1.446 0.541,-2.893 1.413,-4.068 0.094,-0.148 0.203,-0.273 0.306,-0.391 0.045,-0.052 0.089,-0.102 0.13,-0.152 1.076,-1.316 2.514,-1.732 3.107,-1.904 l 0.033,-0.01 a 6.74,6.74 0 0 1 3.682,0 c 0.286,0.076 1.894,0.573 3.141,1.914 0.06,0.06 0.226,0.256 0.436,0.543 a 7.177,7.177 0 0 1 1.155,2.418 l 0.002,0.008 c 0.09,0.331 0.18,0.783 0.18,1.34 z m -8.821,-2.486 a 3.394,3.394 0 0 0 -1.172,1.898 h 6.552 a 3.497,3.497 0 0 0 -1.187,-1.899 3.426,3.426 0 0 0 -2.104,-0.753 3.37,3.37 0 0 0 -2.09,0.753 z m 24.916,-3.994 c -1.713,0 -3.276,0.769 -4.388,2.02 v -0.046 a 1.917,1.917 0 0 0 -3.832,0.106 v 14.481 a 1.92,1.92 0 0 0 1.924,1.929 1.92,1.92 0 0 0 1.923,-1.929 v -4.521 c 1.112,1.236 2.66,2.02 4.388,2.02 3.442,0 6.237,-3.12 6.237,-7.008 -0.015,-3.887 -2.81,-7.052 -6.252,-7.052 z m -0.841,10.91 c -1.954,0 -3.547,-1.703 -3.547,-3.827 0,-2.14 1.578,-3.843 3.547,-3.843 1.953,0 3.546,1.703 3.546,3.843 -0.015,2.124 -1.593,3.827 -3.546,3.827 z M 14.24,23.514 13.609,24.901 c -0.286,0.602 -0.572,1.22 -0.842,1.838 l -0.261,0.58 c -1.202,2.672 -2.627,5.844 -5.735,6.517 -1.503,0.332 -3.772,-0.12 -4.614,-1.537 -0.841,-1.431 0.406,-3.074 2.014,-2.697 0.254,0.056 0.503,0.18 0.755,0.306 0.419,0.21 0.844,0.421 1.304,0.327 0.436,-0.075 0.706,-0.392 1.052,-0.799 0.48,-0.557 0.691,-1.145 0.781,-1.492 L 8.041,27.892 A 0.735,0.735 0 0 0 8.018,27.839 C 7.627,27.109 7.285,26.457 7,25.912 A 110.8,110.8 0 0 0 6.515,24.991 L 5.86,23.747 C 5.38,22.837 5.3,22.687 5.088,22.294 A 55.275,55.275 0 0 0 3.615,19.687 C 3.059,18.752 2.488,17.713 2.954,16.612 a 1.838,1.838 0 0 1 2.254,-1.054 c 0.967,0.293 1.396,1.214 1.796,2.074 0.073,0.156 0.144,0.31 0.218,0.457 0.646,1.281 1.277,2.562 1.908,3.843 0.056,0.127 0.14,0.3 0.244,0.512 0.092,0.188 0.199,0.407 0.312,0.648 l 0.167,0.348 c 0.065,0.136 0.122,0.252 0.164,0.345 0.293,-0.73 0.59,-1.457 0.886,-2.185 0.297,-0.727 0.594,-1.454 0.887,-2.185 0.008,-0.04 0.078,-0.196 0.184,-0.431 0.089,-0.199 0.203,-0.454 0.327,-0.744 l 0.127,-0.307 c 0.39,-0.95 0.86,-2.093 1.902,-2.405 a 1.854,1.854 0 0 1 2.029,0.708 c 0.225,0.316 0.315,0.678 0.33,1.04 0.012,0.8 -0.374,1.658 -0.706,2.394 -0.08,0.18 -0.158,0.352 -0.225,0.514 l -0.04,0.088 c -0.092,0.207 -0.342,0.767 -0.772,1.69 -0.155,0.33 -0.304,0.662 -0.455,0.997 z"
         inkscape:connector-curvature="0"
         style="clip-rule:evenodd;fill:#000000;fill-rule:evenodd" />
    </g>
  </g>
</svg>
