<?xml version="1.0" encoding="UTF-8" standalone="no"?>
<!-- Created with Inkscape (http://www.inkscape.org/) -->

<svg
   xmlns:dc="http://purl.org/dc/elements/1.1/"
   xmlns:cc="http://creativecommons.org/ns#"
   xmlns:rdf="http://www.w3.org/1999/02/22-rdf-syntax-ns#"
   xmlns:svg="http://www.w3.org/2000/svg"
   xmlns="http://www.w3.org/2000/svg"
   xmlns:sodipodi="http://sodipodi.sourceforge.net/DTD/sodipodi-0.dtd"
   xmlns:inkscape="http://www.inkscape.org/namespaces/inkscape"
   width="177.27083mm"
   height="39.158333mm"
   viewBox="0 0 177.27083 39.158333"
   version="1.1"
   id="svg8"
   inkscape:version="0.92.5 (2060ec1f9f, 2020-04-08)"
   sodipodi:docname="zillow logo.svg">
  <defs
     id="defs2">
    <linearGradient
       gradientUnits="userSpaceOnUse"
       y2="5.112"
       x2="4.7909899"
       y1="43.007"
       x1="40.129002"
       id="paint0_linear">
      <stop
         id="stop821"
         stop-color="#515254" />
      <stop
         id="stop823"
         stop-color="#48494B"
         offset="0.192" />
      <stop
         id="stop825"
         stop-color="#313233"
         offset="0.503" />
      <stop
         id="stop827"
         stop-color="#0C0C0C"
         offset="0.893" />
      <stop
         id="stop829"
         offset="1" />
    </linearGradient>
    <style
       id="style851">.cls-1{fill:#231f20;}.cls-2{fill:#0080c5;}</style>
    <linearGradient
       id="linear-gradient"
       x1="0.036169"
       y1="36.132832"
       x2="36.132832"
       y2="0.036169"
       gradientUnits="userSpaceOnUse">
      <stop
         id="stop874"
         offset="0"
         stop-color="#0074f5" />
      <stop
         id="stop876"
         offset="1"
         stop-color="#03aaff" />
    </linearGradient>
  </defs>
  <sodipodi:namedview
     id="base"
     pagecolor="#ffffff"
     bordercolor="#666666"
     borderopacity="1.0"
     inkscape:pageopacity="0.0"
     inkscape:pageshadow="2"
     inkscape:zoom="0.84107037"
     inkscape:cx="355.69556"
     inkscape:cy="-94.325771"
     inkscape:document-units="mm"
     inkscape:current-layer="layer1"
     showgrid="false"
     fit-margin-top="0"
     fit-margin-left="0"
     fit-margin-right="0"
     fit-margin-bottom="0"
     inkscape:window-width="1920"
     inkscape:window-height="1017"
     inkscape:window-x="1912"
     inkscape:window-y="70"
     inkscape:window-maximized="1"
     inkscape:pagecheckerboard="true" />
  <metadata
     id="metadata5">
    <rdf:RDF>
      <cc:Work
         rdf:about="">
        <dc:format>image/svg+xml</dc:format>
        <dc:type
           rdf:resource="http://purl.org/dc/dcmitype/StillImage" />
        <dc:title></dc:title>
      </cc:Work>
    </rdf:RDF>
  </metadata>
  <g
     inkscape:label="Layer 1"
     inkscape:groupmode="layer"
     id="layer1"
     transform="translate(50.010288,-30.400465)">
    <g
       style="fill:none"
       id="g951"
       transform="matrix(1.6315769,0,0,1.6315972,-50.553603,30.400465)">
      <path
         id="path940"
         d="m 14.098,6.364 c 0.103,-0.027 0.15,0.012 0.211,0.084 0.35,0.416 1.478,1.866 1.785,2.263 a 0.132,0.132 0 0 1 -0.027,0.19 c -2.274,1.873 -4.804,4.522 -6.214,6.42 -0.03,0.04 -0.005,0.043 0.015,0.034 2.456,-1.116 8.224,-2.897 10.826,-3.396 V 8.485 L 10.524,0 0.333,8.485 v 3.797 C 3.492,10.301 10.79,7.234 14.097,6.364 Z m 47.28,-5.183 h 4.475 v 22.332 h -4.475 z m -3.315,0 h -4.475 v 22.333 h 4.475 z m 29.713,7.72 h -4.421 l 4.477,14.615 h 4.117 l 1.124,-3.695 c 0.446,-1.468 1.19,-4.209 1.19,-4.209 a 0.034,0.034 0 0 1 0.033,-0.026 c 0.015,0 0.028,0.01 0.033,0.026 0,0 0.745,2.794 1.168,4.234 l 1.103,3.667 h 4.044 L 105.089,8.9 h -4.109 l -1.282,4.421 a 278.446,278.446 0 0 0 -1.141,4.213 0.034,0.034 0 0 1 -0.033,0.026 0.034,0.034 0 0 1 -0.033,-0.026 c 0,0 -0.69,-2.698 -1.137,-4.213 l -1.32,-4.42 h -3.266 l -1.344,4.42 c -0.421,1.414 -1.16,4.215 -1.16,4.215 a 0.034,0.034 0 0 1 -0.033,0.023 0.034,0.034 0 0 1 -0.032,-0.023 c 0,0 -0.714,-2.75 -1.142,-4.215 z m -19.708,7.356 c 0,-4.44 3.393,-7.729 7.544,-7.729 4.11,0 7.504,3.29 7.504,7.729 0,4.453 -3.392,7.743 -7.504,7.743 -4.15,0 -7.544,-3.29 -7.544,-7.74 z m 10.754,0 c 0,-2.174 -1.47,-3.654 -3.21,-3.654 -1.781,0 -3.25,1.48 -3.25,3.654 0,2.189 1.469,3.654 3.25,3.654 1.74,0 3.21,-1.465 3.21,-3.654 z M 27.702,3.247 v 4.306 h 7.909 c 0.032,0 0.044,0.032 0.028,0.06 l -7.94,14.242 -0.014,0.026 c -0.18,0.348 -0.223,0.432 -0.223,0.793 v 0.84 H 42.868 V 19.216 H 34.31 a 0.035,0.035 0 0 1 -0.032,-0.021 0.039,0.039 0 0 1 0.004,-0.04 L 42.314,4.726 42.336,4.68 c 0.056,-0.12 0.11,-0.232 0.11,-0.532 l 0.002,-0.9 H 27.702 Z M 47.955,1.581 c 1.395,0 2.548,1.188 2.548,2.651 0,1.464 -1.153,2.654 -2.548,2.654 -1.395,0 -2.547,-1.188 -2.547,-2.652 0,-1.464 1.152,-2.652 2.547,-2.652 z m -2.237,7.32 h 4.474 V 23.514 H 45.718 Z M 5.604,20.922 c 0.055,0.068 0.15,0.082 0.22,0.034 3.778,-2.054 12.089,-4.661 14.87,-5.16 v 7.806 H 0.334 v -8.11 c 2.093,-1.25 7.747,-3.814 9.737,-4.5 0.04,-0.014 0.049,0.01 0.015,0.037 -1.91,1.497 -4.904,5.03 -6.371,7.301 -0.067,0.106 -0.063,0.14 -0.01,0.205 z M 107.409,6.104 c 0.387,0 0.663,0.294 0.663,0.714 0,0.318 -0.163,0.569 -0.411,0.668 l 0.381,0.66 h -0.362 l -0.354,-0.614 h -0.312 v 0.612 h -0.318 v -2.04 z m -0.395,1.128 h 0.375 c 0.211,0 0.366,-0.172 0.366,-0.411 0,-0.24 -0.155,-0.415 -0.365,-0.415 h -0.376 z m 0.299,-1.836 c -0.676,0 -1.285,0.43 -1.543,1.088 a 1.833,1.833 0 0 0 0.362,1.921 1.606,1.606 0 0 0 1.82,0.382 c 0.624,-0.273 1.031,-0.916 1.031,-1.629 -0.001,-0.973 -0.748,-1.761 -1.67,-1.762 z m 0,3.186 c -0.546,0 -1.038,-0.347 -1.247,-0.879 a 1.482,1.482 0 0 1 0.292,-1.552 c 0.386,-0.408 0.967,-0.53 1.471,-0.309 0.504,0.22 0.833,0.74 0.833,1.316 -0.001,0.786 -0.604,1.423 -1.349,1.424 z"
         inkscape:connector-curvature="0"
         style="clip-rule:evenodd;fill:#006aff;fill-rule:evenodd" />
    </g>
  </g>
</svg>
