<svg version="1.2" xmlns="http://www.w3.org/2000/svg" viewBox="0 0 1580 425" width="1580" height="425">
	<title>zoominfo-logo-svg</title>
	<style>
		.s0 { fill: #000000 } 
		.s1 { fill: #f44238 } 
		.s2 { fill: #ffffff } 
	</style>
	<g id="Layer">
		<path id="svg_1" fill-rule="evenodd" class="s0" d="m543.7 309.8v-23.8l88.8-83.3h-62.3v16.3h-25.1v-39.1h120.8v23.9l-88.1 82.8h64.5v-16.7h25.1v39.9zm201.6 2.7c-9.1 0-18.1-1.8-26.4-5.3-16.3-6.8-29.3-19.8-36.1-36-3.5-8.4-5.3-17.3-5.3-26.4 0-9 1.8-18 5.3-26.3 6.8-16.3 19.8-29.2 36.1-36 8.3-3.5 17.3-5.3 26.4-5.3 9.1 0 18 1.8 26.4 5.3 16.3 6.8 29.3 19.7 36.1 36 3.5 8.3 5.3 17.3 5.3 26.3 0 9.1-1.8 18-5.3 26.4-6.8 16.2-19.8 29.2-36.1 36-8.3 3.5-17.3 5.3-26.4 5.3zm0-25c5.5 0 10.9-1.1 15.9-3.3 5.1-2.1 9.6-5.3 13.4-9.3 3.7-3.9 6.6-8.4 8.7-13.4 4.3-10.6 4.3-22.6 0-33.2-2.1-5-5.1-9.6-8.8-13.5-3.8-3.9-8.2-7-13.2-9.2-5.1-2.2-10.5-3.4-16.1-3.4-5.5 0-11 1.2-16.1 3.4-9.9 4.4-17.7 12.5-21.7 22.6-4.2 10.7-4.2 22.6 0 33.2 4 10.1 11.8 18.2 21.7 22.7 5.1 2.2 10.6 3.4 16.2 3.4zm146.2 25c-9.1 0-18.1-1.8-26.4-5.3-16.3-6.8-29.3-19.8-36.1-36-3.5-8.4-5.3-17.3-5.3-26.4 0-9 1.8-18 5.3-26.3 6.8-16.3 19.8-29.2 36.1-36 8.4-3.5 17.3-5.3 26.4-5.3 9.1 0 18.1 1.8 26.4 5.3 16.3 6.8 29.3 19.7 36.1 36 3.5 8.3 5.3 17.3 5.3 26.3 0 9.1-1.8 18-5.3 26.4-6.8 16.2-19.8 29.2-36.1 36-8.3 3.5-17.3 5.3-26.4 5.3zm0-25c5.5 0 10.9-1.1 16-3.3 5-2.1 9.6-5.3 13.3-9.3 3.7-3.9 6.6-8.4 8.7-13.4 4.4-10.6 4.4-22.6 0-33.2-2.1-5-5.1-9.6-8.8-13.5-3.7-3.9-8.2-7-13.2-9.2-5-2.2-10.5-3.4-16.1-3.4-5.5 0-11 1.2-16.1 3.4-9.9 4.4-17.7 12.5-21.7 22.6-4.2 10.7-4.2 22.6 0 33.2 4 10.1 11.8 18.3 21.7 22.7 5.1 2.3 10.6 3.4 16.2 3.4zm83.3-107.6h25.8v15c3.9-5.5 9.1-9.9 15.2-12.9 6.7-3.3 14.2-5 21.7-4.8q15.7 0 25.9 6c6.8 3.9 12.2 9.8 15.6 16.8 4.2-6.9 10.1-12.6 17.1-16.6 7.8-4.3 16.5-6.4 25.3-6.2 7.9-0.2 15.8 1.2 23.2 3.9 6.3 2.3 11.9 6.1 16.5 11 4.4 5 7.7 11 9.6 17.4 2.2 7.3 3.3 14.9 3.2 22.6v77.7h-26.9v-76.3q0-15.1-7-24.3-7-9.1-22.4-9.1-14 0-22.4 8.9-8.3 9-8.3 26.9v73.9h-26.3v-78q0-14.9-6.8-23.3-6.9-8.4-21.9-8.4-14.5 0-22.8 9.3-8.3 9.2-8.3 27.8v72.6h-26zm215.1-39q0 0 0 0c0-2.4 0.4-4.8 1.3-7.1 0.9-2.3 2.2-4.3 3.9-6.1 1.7-1.7 3.8-3.1 6-4 2.3-0.9 4.7-1.3 7.2-1.3 2.4-0.1 4.9 0.3 7.3 1.3 2.3 0.9 4.4 2.2 6.1 4 1.7 1.8 3.1 3.8 4 6.1 0.9 2.3 1.3 4.7 1.2 7.2 0.1 2.4-0.3 4.8-1.2 7.1-0.9 2.3-2.3 4.4-4 6.1-1.7 1.8-3.8 3.2-6.1 4.1-2.4 0.9-4.9 1.3-7.3 1.2-2.5 0.1-5-0.3-7.2-1.2-2.3-1-4.4-2.3-6.1-4.1-1.7-1.8-3-3.9-3.9-6.1-0.8-2.3-1.3-4.7-1.2-7.2q0 0 0 0 0 0 0 0.1zm5.3 39h26.3v130h-26.3zm49 0h25.6v18c4.7-6.6 10.9-11.9 18.1-15.6 7.3-3.6 15.3-5.3 23.4-5.1 7.6-0.1 15.2 1.2 22.3 3.9 6.4 2.5 12.2 6.4 16.9 11.3 4.7 5.2 8.4 11.4 10.6 18.1 2.6 7.7 3.8 15.8 3.7 23.9v75.4h-26.3v-73.4q0-16.6-8.4-26.5-8.5-9.9-24.9-9.9c-4.7 0-9.4 0.9-13.8 2.7-4.2 1.7-8 4.3-11.1 7.6-3.3 3.4-5.8 7.5-7.4 12-1.8 5-2.7 10.4-2.7 15.8v71.7h-26zm124 0h22.7v-7.5c-0.2-8.5 0.7-16.9 2.5-25.2 1.4-6 4.3-11.5 8.5-16 4.4-4.3 9.9-7.2 15.9-8.6 8.3-1.8 16.7-2.7 25.2-2.5h6.3v24.1h-4.4q-7.5-0.2-15 0.9c-3.3 0.4-6.3 1.9-8.6 4.1-2.1 2.5-3.4 5.5-3.9 8.7q-1.1 7.3-0.9 14.7v7.2h30.6v23.4h-30.6v106.6h-25.6v-106.6h-22.7zm143.8 132.6c-9.2 0-18.2-1.8-26.5-5.4-16.2-6.8-29.1-19.7-36-35.8-3.5-8.4-5.3-17.4-5.3-26.5 0-9 1.8-18 5.3-26.4 6.8-16.2 19.7-29.1 36-36 8.3-3.5 17.3-5.3 26.4-5.3 9.1 0 18.1 1.8 26.5 5.3 16.3 6.8 29.3 19.8 36.1 36 3.5 8.4 5.3 17.4 5.3 26.4 0 9.1-1.8 18.1-5.3 26.5-6.9 16.1-19.8 29-36.1 35.8-8.3 3.6-17.3 5.4-26.4 5.3zm0-24.3c5.7 0.1 11.3-1.1 16.5-3.3 5-2.2 9.5-5.4 13.2-9.3 3.9-4 6.9-8.6 9-13.7 3.3-8 4.1-16.7 2.6-25.2-1.6-8.4-5.6-16.3-11.6-22.5-3.8-3.9-8.3-7.1-13.3-9.3-5.2-2.2-10.9-3.3-16.5-3.3-5.7 0-11.3 1.1-16.5 3.3-5 2.2-9.5 5.4-13.2 9.3-3.8 4-6.8 8.7-8.8 13.8-4.1 10.9-4.1 22.9 0 33.8 2.1 5.1 5.1 9.7 8.8 13.7 3.8 3.9 8.3 7.1 13.3 9.3 5.2 2.3 10.9 3.4 16.6 3.4z"/>
		<rect id="svg_2" class="s1" x=".8" y=".8" width="423.5" height="423.3" rx="50"></rect>
		<path id="svg_3" fill-rule="evenodd" class="s2" d="m258.2 116.3h47.3c1.8 0 3.3 1.5 3.3 3.4v45.6c0.1 1.9-1.4 3.4-3.3 3.4q0 0 0 0h-13.4c-1.9 0-3.4-1.5-3.4-3.4v-14l-142.4 137.1h29.3c1.9 0 3.4 1.6 3.4 3.4v13.5c0 1.9-1.5 3.4-3.4 3.4h-55.9c-1.8 0-3.3-1.5-3.3-3.4v-16.8l157.8-152h-16c-1.8 0-3.3-1.5-3.3-3.4v-13.4c0-1.9 1.5-3.4 3.3-3.4zm-121.8 49.6c0 1.8-1.5 3.3-3.3 3.4h-13.4c-1.8 0-3.3-1.6-3.3-3.4v-46.2c0-1.9 1.5-3.4 3.3-3.4h106.5c1.9 0 3.4 1.5 3.4 3.4v12.9c0 1.9-1.5 3.4-3.4 3.4h-89.8zm152.3 91.9c0-1.9 1.5-3.4 3.4-3.4h13.4c1.8 0 3.3 1.5 3.3 3.4v47.6c0 1.8-1.5 3.4-3.3 3.4h-98c-1.8 0-3.3-1.6-3.3-3.4v-13.5c0-1.9 1.5-3.4 3.3-3.4h81.2z"/>
	</g>
</svg>