<?xml version="1.0" encoding="UTF-8" standalone="no"?>
<svg
   xmlns:dc="http://purl.org/dc/elements/1.1/"
   xmlns:cc="http://creativecommons.org/ns#"
   xmlns:rdf="http://www.w3.org/1999/02/22-rdf-syntax-ns#"
   xmlns:svg="http://www.w3.org/2000/svg"
   xmlns="http://www.w3.org/2000/svg"
   xmlns:sodipodi="http://sodipodi.sourceforge.net/DTD/sodipodi-0.dtd"
   xmlns:inkscape="http://www.inkscape.org/namespaces/inkscape"
   width="1000"
   height="179.46461"
   viewBox="0 0 1000 179.46462"
   version="1.1"
   id="svg1379"
   sodipodi:docname="A.svg"
   inkscape:version="0.92.4 (5da689c313, 2019-01-14)">
  <metadata
     id="metadata1385">
    <rdf:RDF>
      <cc:Work
         rdf:about="">
        <dc:format>image/svg+xml</dc:format>
        <dc:type
           rdf:resource="http://purl.org/dc/dcmitype/StillImage" />
        <dc:title></dc:title>
      </cc:Work>
    </rdf:RDF>
  </metadata>
  <defs
     id="defs1383">
    <clipPath
       clipPathUnits="userSpaceOnUse"
       id="clipPath1525">
      <path
         d="M 0,0 H 595.276 V 841.89 H 0 Z"
         id="path1523"
         inkscape:connector-curvature="0" />
    </clipPath>
    <clipPath
       clipPathUnits="userSpaceOnUse"
       id="clipPath1439">
      <path
         d="M 0,0 H 595.276 V 841.89 H 0 Z"
         id="path1437"
         inkscape:connector-curvature="0" />
    </clipPath>
    <clipPath
       clipPathUnits="userSpaceOnUse"
       id="clipPath1417">
      <path
         d="M 0,0 H 595.276 V 841.89 H 0 Z"
         id="path1415"
         inkscape:connector-curvature="0" />
    </clipPath>
    <clipPath
       clipPathUnits="userSpaceOnUse"
       id="clipPath5873">
      <path
         d="M 482.773,735.578 H 585 V 765 H 482.773 Z"
         id="path5871"
         inkscape:connector-curvature="0" />
    </clipPath>
    <clipPath
       clipPathUnits="userSpaceOnUse"
       id="clipPath6200">
      <path
         d="M 0,0 H 595.276 V 841.89 H 0 Z"
         id="path6198"
         inkscape:connector-curvature="0" />
    </clipPath>
  </defs>
  <sodipodi:namedview
     pagecolor="#ffffff"
     bordercolor="#666666"
     borderopacity="1"
     objecttolerance="10"
     gridtolerance="10"
     guidetolerance="10"
     inkscape:pageopacity="0"
     inkscape:pageshadow="2"
     inkscape:window-width="1920"
     inkscape:window-height="1017"
     id="namedview1381"
     showgrid="false"
     fit-margin-top="0"
     fit-margin-left="0"
     fit-margin-right="0"
     fit-margin-bottom="0"
     inkscape:zoom="0.14628272"
     inkscape:cx="2757.3965"
     inkscape:cy="-1256.8838"
     inkscape:window-x="1912"
     inkscape:window-y="-8"
     inkscape:window-maximized="1"
     inkscape:current-layer="g1377" />
  <g
     id="g1377"
     style="fill:#bb2e25;fill-rule:evenodd"
     transform="translate(-263.11543,1359.929)">
    <path
       inkscape:connector-curvature="0"
       d="m 1171.9905,-1214.8873 c -29.8575,0 -53.141,-20.8182 -53.141,-55.3324 0,-33.6012 22.0052,-55.6063 53.141,-55.6063 32.8707,0 54.6019,24.0139 54.6019,55.8802 a 52.593134,52.593134 0 0 1 -54.6019,55.0585 z m -194.66762,30.8619 h 103.08622 v -32.5968 h -66.6545 v -139.7918 h -36.52303 v 172.3886 z m -95.05113,-63.3674 a 38.166545,38.166545 0 0 1 -39.71877,-39.9014 38.531775,38.531775 0 0 1 39.71877,-39.9014 c 23.28342,0 40.35792,15.7049 40.35792,39.9014 0,24.2878 -17.0745,39.9014 -40.35792,39.9014 z m -76.15048,63.4587 h 36.52301 v -61.7239 a 54.236669,54.236669 0 0 0 50.21914,30.6794 c 35.97517,0 66.10665,-29.675 66.10665,-72.3156 0,-42.6406 -30.13148,-72.5895 -66.19796,-72.5895 -22.00511,0 -40.17531,10.9569 -50.21913,30.6793 v -27.3922 h -36.52301 v 172.5712 z m -107.56026,-30.3141 c -30.4054,0 -54.14536,-21.9138 -54.14536,-55.4237 0,-33.7837 23.73996,-56.6106 54.14536,-56.6106 30.40541,0 53.59752,22.8269 53.59752,56.6106 0,33.6012 -23.19211,55.4237 -53.59752,55.4237 z m 0.27392,33.7838 c 52.1366,0 90.12053,-36.2491 90.12053,-89.2075 0,-52.867 -37.98393,-90.1205 -90.12053,-90.1205 -52.2279,0 -90.85098,37.2535 -90.85098,90.1205 0,52.9584 38.62308,89.2075 90.85098,89.2075 z m -195.76333,-33.7838 c -30.3141,0 -53.87144,-21.9138 -53.87144,-55.4237 0,-33.7837 23.55734,-56.6106 53.87144,-56.6106 30.40541,0 53.87144,22.8269 53.87144,56.6106 0,33.6012 -23.46603,55.4237 -53.87144,55.4237 z m 0.27392,33.7838 c 52.1366,0 90.12053,-36.2491 90.12053,-89.2075 0,-52.867 -37.89262,-90.1205 -90.12053,-90.1205 -52.13659,0 -90.85098,37.2535 -90.85098,90.1205 0,52.9584 38.71439,89.2075 90.85098,89.2075 z m -240.23009,-3.561 h 141.52666 v -32.5968 H 302.28636 c 0.91307,-25.6574 19.35719,-32.5055 40.17531,-39.6274 28.67056,-9.7699 61.72388,-22.2791 61.72388,-87.1987 v -12.9657 H 263.57197 v 32.3229 h 101.89919 c -0.91307,24.1965 -18.90065,30.588 -39.26223,37.436 -28.76187,9.8613 -63.00219,22.2791 -63.00219,89.4814 v 13.1483 z m 902.30097,3.4697 a 68.754565,68.754565 0 0 0 61.176,-33.3273 v 29.8576 h 36.523 v -172.3886 h -36.523 v 29.5836 a 68.57195,68.57195 0 0 0 -61.176,-33.0533 c -45.6538,0 -83.2725,37.4361 -83.2725,89.664 0,52.2279 37.71,89.664 83.2725,89.664 z"
       id="path7272"
       style="stroke-width:9.13075256;fill:#8046f1;fill-opacity:1" />
  </g>
</svg>
